	.include "MPlayDef.s"

	.section .rodata

	@********************** Track  1 **********************@

	.align 2
	.global mus_dark_meta_knight_battle_1
mus_dark_meta_knight_battle_1:	@ 0x08D48144
	.byte	KEYSH	, 0
	.byte	TEMPO	, 108
	.byte	VOICE	, 67
	.byte	VOL	, v115
	.byte	PAN	, c_v
	.byte	BEND	, c_v
	.byte		N12	, Gs1, v092
	.byte		N36	, Cs3, v032
	.byte	W12
	.byte		N12	, Gs1, v092
	.byte	W12
	.byte			Cn2
	.byte	W12
	.byte			Ds0, v072
	.byte	W12
	.byte			Cn2, v092
	.byte	W12
	.byte			Gs1
	.byte	W12
	.byte		N36	, Cs1, v024
	.byte		N12	, Gs1, v092
	.byte	W12
	.byte			An0, v100
	.byte	W12
	.byte			Cn2, v092
	.byte	W12
	.byte			Gs1
	.byte	W12
	.byte			Cn2
	.byte	W12
	.byte			Ds0, v060
	.byte	W12
	.byte			Gs1, v092
	.byte		N36	, Cs3, v032
	.byte	W12
	.byte		N12	, Gs1, v092
	.byte	W12
	.byte			Cn2
	.byte	W12
	.byte			Ds0, v072
	.byte	W12
	.byte			Cn2, v092
	.byte	W12
	.byte		N06	, Gn0
	.byte	W06
	.byte			Gn0, v080
	.byte	W06
	.byte		N12	, Ds0, v072
	.byte		N36	, Cs3, v032
	.byte	W12
	.byte		N12	, Gs1, v092
	.byte	W24
	.byte		N12	
	.byte	W12
	.byte			Cn2
	.byte	W12
	.byte			Ds0, v060
	.byte	W12
	.byte			Ds0, v072
	.byte		N36	, Cs1, v024
	.byte	W12
	.byte		N12	, Gs1, v052
	.byte	W12
	.byte			Ds0, v032
	.byte	W12
	.byte			Gs1, v072
	.byte	W12
	.byte			Ds0, v040
	.byte	W12
	.byte			Gs1, v080
	.byte	W12
	.byte			Ds0, v052
	.byte	W12
	.byte			Gs1, v080
	.byte	W12
	.byte			Ds0, v060
	.byte	W12
	.byte			Gs1, v080
	.byte	W12
	.byte			Ds0, v072
	.byte	W12
	.byte			Gs1, v080
	.byte	W12
	.byte			Ds0, v052
	.byte	W12
	.byte			Ds0, v032
	.byte	W12
	.byte			Ds0, v040
	.byte	W12
	.byte			Ds0, v056
	.byte	W12
	.byte			Ds0, v072
	.byte	W12
	.byte			Ds0, v080
	.byte	W12
mus_dark_meta_knight_battle_1_4:
	.byte		N12	, Gs1, v112
	.byte		N48	, Cs3, v036
	.byte	W12
	.byte		N12	, Fs0, v120
	.byte	W12
	.byte			Ds0, v052
	.byte	W12
	.byte			Fs0, v100
	.byte	W12
	.byte			Cn2, v080
	.byte	W12
	.byte			Gs1, v112
	.byte	W12
	.byte			Ds0, v052
	.byte	W12
	.byte			Fs0, v092
	.byte	W12
	.byte			Gs1, v112
	.byte	W12
	.byte			Fs0
	.byte	W12
	.byte			Ds0, v052
	.byte	W12
	.byte			Cn2, v080
	.byte	W12
	.byte			Gs1, v112
	.byte	W12
	.byte			Fs0, v120
	.byte	W12
	.byte			Ds0, v052
	.byte	W12
	.byte			Fs0, v100
	.byte	W12
	.byte			Cn2, v080
	.byte	W12
	.byte			Ds0, v040
	.byte	W12
	.byte			Ds0, v052
	.byte	W12
	.byte			Fs0, v092
	.byte	W12
	.byte			Bn0, v080
	.byte	W12
	.byte		N12	
	.byte	W12
	.byte			An0, v092
	.byte	W12
	.byte			Gn0, v096
	.byte	W12
mus_dark_meta_knight_battle_1_1:
	.byte		N12	, Gs1, v112
	.byte		N48	, Cs3, v036
	.byte	W12
	.byte		N12	, Fs0, v120
	.byte	W12
	.byte			Ds0, v052
	.byte	W12
	.byte			Fs0, v100
	.byte	W12
	.byte			Cn2, v080
	.byte	W12
	.byte			Gs1, v112
	.byte	W12
	.byte			Ds0, v052
	.byte	W12
	.byte			Fs0, v092
	.byte	W12
	.byte			Gs1, v112
	.byte	W12
	.byte			Fs0
	.byte	W12
	.byte			Ds0, v052
	.byte	W12
	.byte			Cn2, v080
	.byte	W12
	.byte	PEND
mus_dark_meta_knight_battle_1_2:
	.byte		N12	, Gs1, v112
	.byte	W12
	.byte			Fs0, v120
	.byte	W12
	.byte			Ds0, v052
	.byte	W12
	.byte			Fs0, v100
	.byte	W12
	.byte			Cn2, v080
	.byte	W12
	.byte			Gs1, v112
	.byte	W12
	.byte			Ds0, v052
	.byte	W12
	.byte			Fs0, v092
	.byte	W12
	.byte			Gs1, v080
	.byte	W12
	.byte			Cn2
	.byte	W12
	.byte			Ds0, v052
	.byte	W12
	.byte			Cn2, v080
	.byte	W12
	.byte	PEND
mus_dark_meta_knight_battle_1_3:
	.byte		N12	, Gs1, v112
	.byte	W12
	.byte			Fs0, v120
	.byte	W12
	.byte			Ds0, v052
	.byte	W12
	.byte			Fs0, v100
	.byte	W12
	.byte			Cn2, v080
	.byte	W12
	.byte			Gs1, v112
	.byte	W12
	.byte			Ds0, v052
	.byte	W12
	.byte			Fs0, v092
	.byte	W12
	.byte			Gs1, v112
	.byte	W12
	.byte			Fs0
	.byte	W12
	.byte			Ds0, v052
	.byte	W12
	.byte			Cn2, v080
	.byte	W12
	.byte	PEND
	.byte			Gs1, v112
	.byte	W12
	.byte			Fs0, v120
	.byte	W12
	.byte			Ds0, v052
	.byte	W12
	.byte			Fs0, v100
	.byte	W12
	.byte			Cn2, v080
	.byte	W12
	.byte			Gs1, v112
	.byte	W12
	.byte			Ds0, v052
	.byte	W12
	.byte			Fs0, v092
	.byte	W12
	.byte			Gs1, v080
	.byte	W12
	.byte			Cn2
	.byte	W12
	.byte			Ds0, v052
	.byte	W12
	.byte			Ds0, v060
	.byte	W12
	.byte	PATT	
		.word	mus_dark_meta_knight_battle_1_1
	.byte	PATT	
		.word	mus_dark_meta_knight_battle_1_2
	.byte	PATT	
		.word	mus_dark_meta_knight_battle_1_3
	.byte		N12	, Gs1, v112
	.byte	W12
	.byte			Fs0, v120
	.byte	W12
	.byte			Ds0, v052
	.byte	W12
	.byte			Fs0, v100
	.byte	W12
	.byte			Cn2, v080
	.byte	W12
	.byte			As0, v116
	.byte	W12
	.byte			Gs1, v100
	.byte	W12
	.byte			Ds0, v060
	.byte	W12
	.byte			Ds0, v068
	.byte	W12
	.byte			Ds0, v072
	.byte	W12
	.byte			Ds0, v076
	.byte	W12
	.byte			Ds0, v080
	.byte	W12
	.byte			Cn1, v092
	.byte		N48	, Cs3, v040
	.byte	W12
	.byte		N12	, An0, v096
	.byte	W12
	.byte			Cn2, v092
	.byte	W12
	.byte			Gn0, v100
	.byte	W12
	.byte			Gs1, v112
	.byte	W12
	.byte			Ds0, v072
	.byte	W12
	.byte			Gn0, v100
	.byte	W12
	.byte			Gs0, v080
	.byte	W12
	.byte			An0, v100
	.byte	W12
	.byte			Gn0
	.byte	W12
	.byte			Ds0, v072
	.byte	W12
	.byte			Gn0, v100
	.byte	W12
	.byte			Cn1, v092
	.byte	W12
	.byte			An0, v096
	.byte	W12
	.byte			Cn2, v092
	.byte	W12
	.byte			Gn0, v100
	.byte	W12
	.byte			Gs1, v112
	.byte	W12
	.byte			Ds0, v072
	.byte	W12
	.byte		N06	, Bn0, v092
	.byte	W06
	.byte			Bn0, v080
	.byte	W06
	.byte		N12	, Ds0, v052
	.byte	W12
	.byte			An0, v100
	.byte	W12
	.byte			Gn0, v092
	.byte	W12
	.byte			Gs1, v100
	.byte	W12
	.byte			Bn0, v092
	.byte	W12
	.byte			Cn1
	.byte		N48	, Cs3, v040
	.byte	W12
	.byte		N12	, An0, v096
	.byte	W12
	.byte			Cn2, v092
	.byte	W12
	.byte			Gn0, v100
	.byte	W12
	.byte			Gs1, v112
	.byte	W12
	.byte			Ds0, v072
	.byte	W12
	.byte			Gn0, v100
	.byte	W12
	.byte			Cn1, v080
	.byte	W12
	.byte			An0, v092
	.byte	W12
	.byte			Gn0, v096
	.byte	W12
	.byte			Ds0, v072
	.byte	W12
	.byte			Gn0, v096
	.byte	W12
	.byte			Cn1, v092
	.byte	W12
	.byte			An0, v096
	.byte	W12
	.byte			Cn2, v092
	.byte	W12
	.byte			Gn0, v100
	.byte	W12
	.byte			Gs1, v112
	.byte	W12
	.byte			Ds0, v072
	.byte	W12
	.byte			Gn0, v100
	.byte	W12
	.byte			Ds0, v052
	.byte	W12
	.byte			An0, v100
	.byte	W12
	.byte			Gn0, v092
	.byte	W12
	.byte			Gs1, v100
	.byte	W12
	.byte			Ds0, v060
	.byte	W12
	.byte			Cn1, v092
	.byte	W12
	.byte			An0, v096
	.byte	W12
	.byte			Cn2, v092
	.byte	W12
	.byte			Gn0, v100
	.byte	W12
	.byte			Gs1, v112
	.byte	W12
	.byte			Ds0, v072
	.byte	W12
	.byte			Gn0, v100
	.byte	W12
	.byte			Ds0, v052
	.byte	W12
	.byte			An0, v100
	.byte	W12
	.byte			Gn0, v092
	.byte	W12
	.byte			Gs1, v100
	.byte	W12
	.byte			Bn0, v092
	.byte	W12
	.byte		N24	, Gs0, v032
	.byte		N12	, Cn1, v092
	.byte	W12
	.byte			An0, v096
	.byte	W12
	.byte		N24	, Gs0, v040
	.byte		N12	, Cn2, v092
	.byte	W12
	.byte			Gn0, v100
	.byte	W12
	.byte		N24	, Gs0, v052
	.byte		N12	, Gs1, v112
	.byte	W12
	.byte			Ds0, v072
	.byte	W12
	.byte			Gn0, v100
	.byte		N24	, Gs0, v060
	.byte	W12
	.byte		N12	, Cn1, v080
	.byte	W12
	.byte		N24	, Gs0, v072
	.byte		N12	, An0, v092
	.byte	W12
	.byte			Gn0, v096
	.byte	W12
	.byte			Ds0, v072
	.byte		N24	, Gs0, v080
	.byte	W12
	.byte		N12	, Gn0, v096
	.byte	W12
	.byte		N24	, Gs0, v088
	.byte		N12	, Cn1, v092
	.byte	W12
	.byte			An0, v096
	.byte	W12
	.byte		N24	, Gs0, v092
	.byte		N12	, Cn2
	.byte	W12
	.byte			Gn0, v100
	.byte	W12
	.byte		N24	, Gs0, v092
	.byte		N12	, Gs1, v112
	.byte	W12
	.byte			Ds0, v072
	.byte	W12
	.byte			Gn0, v100
	.byte		N24	, Gs0, v092
	.byte	W12
	.byte		N12	, Ds0, v052
	.byte	W12
	.byte		N24	, Gs0, v096
	.byte		N12	, An0, v100
	.byte	W12
	.byte			Gn0, v092
	.byte	W12
	.byte		N24	, Gs0, v100
	.byte		N12	, Gs1
	.byte	W12
	.byte			Ds0, v060
	.byte	W12
	.byte		N24	, As0, v100
	.byte		N12	, Cn1, v092
	.byte	W12
	.byte			An0, v096
	.byte	W12
	.byte		N24	, Gs0, v100
	.byte		N12	, Cn2, v092
	.byte	W12
	.byte			Gn0, v100
	.byte	W12
	.byte		N24	, As0, v108
	.byte		N12	, Gs1, v112
	.byte	W12
	.byte			Ds0, v072
	.byte	W12
	.byte			Gs1, v100
	.byte		N21	, Cs3, v040
	.byte	W12
	.byte		N12	, Ds0, v080
	.byte	W12
	.byte		N21	, Cs1, v040
	.byte		N12	, Gs1, v100
	.byte	W12
	.byte			Ds0, v080
	.byte	W12
	.byte			Gs1, v100
	.byte		N21	, Cs3, v040
	.byte	W12
	.byte		N12	, Ds0, v080
	.byte	W12
	.byte	GOTO	
		.word	mus_dark_meta_knight_battle_1_4
	.byte	W96
	.byte	W48
	.byte	W03
	.byte	FINE

	@********************** Track  2 **********************@

	.global mus_dark_meta_knight_battle_2
mus_dark_meta_knight_battle_2:	@ 0x08D4846C
	.byte	KEYSH	, 0
	.byte	VOICE	, 43
	.byte	VOL	, v041
	.byte	PAN	, c_v
	.byte	MOD	, 1
	.byte	BEND	, c_v
	.byte		N09	, Fn3, v116
	.byte	W12
	.byte			Fn4, v072
	.byte	W12
	.byte			Ds4, v116
	.byte	W12
	.byte			Fn3
	.byte	W12
	.byte		N09	
	.byte	W12
	.byte		N06	, Fn4, v072
	.byte	W12
	.byte		N09	, Fs3, v116
	.byte	W12
	.byte			Fs4, v072
	.byte	W12
	.byte			Cs4, v116
	.byte	W12
	.byte			As3
	.byte	W12
	.byte			Fs3
	.byte	W12
	.byte		N06	, Fs4, v080
	.byte	W12
	.byte		N09	, Gs3, v116
	.byte	W12
	.byte			Gs4, v072
	.byte	W12
	.byte			Ds4, v116
	.byte	W12
	.byte			Cn4
	.byte	W12
	.byte			Gs3
	.byte	W12
	.byte		N06	, Gs4, v080
	.byte	W12
	.byte		N09	, Fs3, v116
	.byte	W12
	.byte			Fs4
	.byte	W12
	.byte			Cs4
	.byte	W12
	.byte			As3
	.byte	W12
	.byte			Fs3
	.byte	W12
	.byte		N06	, Fs4, v080
	.byte	W12
	.byte		N09	, Fn3, v116
	.byte	W12
	.byte		N09	
	.byte	W12
	.byte		N09	
	.byte	W12
	.byte		N09	
	.byte	W12
	.byte		N09	
	.byte	W12
	.byte		N09	
	.byte	W12
	.byte			Fn4
	.byte	W12
	.byte			Cn4
	.byte	W12
	.byte			As3
	.byte	W12
	.byte			Cn4
	.byte	W12
	.byte			As3
	.byte	W12
	.byte			Fn3
	.byte	W12
	.byte			Fn4
	.byte	W12
	.byte			Cn4
	.byte	W12
	.byte			As3
	.byte	W12
	.byte			Cn4
	.byte	W12
	.byte			As3
	.byte	W12
	.byte			Fn3
	.byte	W12
mus_dark_meta_knight_battle_2_5:
	.byte		N12	, Fn3, v100
	.byte	W12
	.byte			Cs4
	.byte	W12
	.byte			Cn4
	.byte	W12
	.byte			Gs3
	.byte	W12
	.byte			As3
	.byte	W12
	.byte			Gn3
	.byte	W12
	.byte			Gs3
	.byte	W12
	.byte			Gn3
	.byte	W12
	.byte			Fn3
	.byte	W12
	.byte			Dn3
	.byte	W12
	.byte			Ds3
	.byte	W12
	.byte			En3
	.byte	W12
mus_dark_meta_knight_battle_2_1:
	.byte		N12	, Fn3, v100
	.byte	W12
	.byte			Cs4
	.byte	W12
	.byte			Cn4
	.byte	W12
	.byte			Gs3
	.byte	W12
	.byte			As3
	.byte	W12
	.byte			Gn3
	.byte	W12
	.byte			Gs3
	.byte	W12
	.byte			Gn3
	.byte	W12
	.byte			Fn3
	.byte	W12
	.byte			Dn3
	.byte	W12
	.byte			Ds3
	.byte	W12
	.byte			En3
	.byte	W12
	.byte	PEND
	.byte	PATT	
		.word	mus_dark_meta_knight_battle_2_1
	.byte	PATT	
		.word	mus_dark_meta_knight_battle_2_1
mus_dark_meta_knight_battle_2_2:
	.byte		N12	, Dn3, v100
	.byte	W12
	.byte			As3
	.byte	W12
	.byte			An3
	.byte	W12
	.byte			Fn3
	.byte	W12
	.byte			Gn3
	.byte	W12
	.byte			En3
	.byte	W12
	.byte			Fn3
	.byte	W12
	.byte			En3
	.byte	W12
	.byte			Dn3
	.byte	W12
	.byte			Bn2
	.byte	W12
	.byte			Cn3
	.byte	W12
	.byte			Cs3
	.byte	W12
	.byte	PEND
	.byte	PATT	
		.word	mus_dark_meta_knight_battle_2_2
	.byte	PATT	
		.word	mus_dark_meta_knight_battle_2_1
	.byte	PATT	
		.word	mus_dark_meta_knight_battle_2_1
	.byte	PATT	
		.word	mus_dark_meta_knight_battle_2_2
	.byte	PATT	
		.word	mus_dark_meta_knight_battle_2_2
mus_dark_meta_knight_battle_2_3:
	.byte		N09	, Fn4, v112
	.byte	W12
	.byte			Cn4
	.byte	W12
	.byte			Ds4
	.byte	W12
	.byte			Cn4
	.byte	W12
	.byte			Dn4
	.byte	W12
	.byte			Ds4
	.byte	W12
	.byte			Dn4
	.byte	W12
	.byte			Cn4
	.byte	W12
	.byte			As3
	.byte	W12
	.byte			Fn3
	.byte	W12
	.byte			As3
	.byte	W12
	.byte			Fn3
	.byte	W12
	.byte	PEND
	.byte	PATT	
		.word	mus_dark_meta_knight_battle_2_3
mus_dark_meta_knight_battle_2_4:
	.byte		N09	, Fs4, v112
	.byte	W12
	.byte			Cs4
	.byte	W12
	.byte			En4
	.byte	W12
	.byte			Cs4
	.byte	W12
	.byte			Ds4
	.byte	W12
	.byte			En4
	.byte	W12
	.byte			Ds4
	.byte	W12
	.byte			Cs4
	.byte	W12
	.byte			Bn3
	.byte	W12
	.byte			Fs3
	.byte	W12
	.byte			Bn3
	.byte	W12
	.byte			Fs3
	.byte	W12
	.byte	PEND
	.byte	PATT	
		.word	mus_dark_meta_knight_battle_2_4
	.byte	PATT	
		.word	mus_dark_meta_knight_battle_2_3
	.byte	PATT	
		.word	mus_dark_meta_knight_battle_2_3
	.byte		N09	, Dn4, v112
	.byte	W12
	.byte			An3
	.byte	W12
	.byte			Cn4
	.byte	W12
	.byte			An3
	.byte	W12
	.byte			Bn3
	.byte	W12
	.byte			Cn4
	.byte	W12
	.byte			Bn3
	.byte	W12
	.byte			An3
	.byte	W12
	.byte			Gn3
	.byte	W12
	.byte			Dn3
	.byte	W12
	.byte			Gn3
	.byte	W12
	.byte			Dn3
	.byte	W12
	.byte			Dn4, v120
	.byte	W12
	.byte			An3
	.byte	W12
	.byte			Cn4
	.byte	W12
	.byte			An3
	.byte	W12
	.byte			Bn3
	.byte	W12
	.byte			Cn4
	.byte	W12
	.byte		N12	, Gn3
	.byte	W12
	.byte		N09	, Gn4, v092
	.byte	W12
	.byte		N12	, Gs3, v120
	.byte	W12
	.byte		N09	, Gs4, v092
	.byte	W12
	.byte		N12	, An3, v120
	.byte	W12
	.byte		N09	, An4, v092
	.byte	W12
	.byte	GOTO	
		.word	mus_dark_meta_knight_battle_2_5
	.byte	W96
	.byte	W48
	.byte	W03
	.byte	FINE

	@********************** Track  3 **********************@

	.global mus_dark_meta_knight_battle_3
mus_dark_meta_knight_battle_3:	@ 0x08D485E8
	.byte	KEYSH	, 0
	.byte	VOICE	, 113
	.byte	VOL	, v110
	.byte	PAN	, c_v+10
	.byte	MOD	, 1
	.byte	BEND	, c_v
	.byte		N07	, As2, v072
	.byte		N07	, Cn3
	.byte	W12
	.byte			As2
	.byte		N07	, Cn3
	.byte	W12
	.byte			As2, v040
	.byte		N07	, Cn3
	.byte	W12
	.byte			As2, v072
	.byte		N07	, Cn3
	.byte	W24
	.byte			As2, v040
	.byte		N07	, Cn3
	.byte	W12
	.byte			Bn2, v072
	.byte		N07	, Cs3
	.byte	W12
	.byte			Bn2
	.byte		N07	, Cs3
	.byte	W12
	.byte			Bn2, v040
	.byte		N07	, Cs3
	.byte	W12
	.byte			Bn2, v072
	.byte		N07	, Cs3
	.byte	W24
	.byte			Bn2, v040
	.byte		N07	, Cs3
	.byte	W12
	.byte			Cs3, v072
	.byte		N07	, Ds3
	.byte	W12
	.byte			Cs3
	.byte		N07	, Ds3
	.byte	W12
	.byte			Cs3, v040
	.byte		N07	, Ds3
	.byte	W12
	.byte			Cs3, v072
	.byte		N07	, Ds3
	.byte	W24
	.byte			Cs3, v040
	.byte		N07	, Ds3
	.byte	W12
	.byte			Bn2, v072
	.byte		N07	, Cs3
	.byte	W12
	.byte			Bn2
	.byte		N07	, Cs3
	.byte	W12
	.byte			Bn2, v040
	.byte		N07	, Cs3
	.byte	W12
	.byte			Bn2, v072
	.byte		N07	, Cs3
	.byte	W24
	.byte			Bn2, v040
	.byte		N07	, Cs3
	.byte	W12
	.byte	VOL	, v073
	.byte		TIE	, As2, v080
	.byte		TIE	, Cn3
	.byte	W01
	.byte	VOL	, v071
	.byte	W02
	.byte		v068
	.byte	W01
	.byte		v065
	.byte	W02
	.byte		v063
	.byte	W01
	.byte		v058
	.byte	W02
	.byte		v053
	.byte	W01
	.byte		v047
	.byte	W02
	.byte		v042
	.byte	W01
	.byte		v036
	.byte	W02
	.byte		v032
	.byte	W01
	.byte		v028
	.byte	W02
	.byte		v023
	.byte	W03
	.byte		v020
	.byte	W03
	.byte		v023
	.byte	W03
	.byte		v028
	.byte	W03
	.byte		v031
	.byte	W03
	.byte		v033
	.byte	W03
	.byte		v035
	.byte	W03
	.byte		v037
	.byte	W03
	.byte		v040
	.byte	W03
	.byte		v043
	.byte	W03
	.byte		v045
	.byte	W03
	.byte		v047
	.byte	W03
	.byte		v049
	.byte	W03
	.byte		v052
	.byte	W03
	.byte		v054
	.byte	W03
	.byte		v057
	.byte	W03
	.byte		v058
	.byte	W03
	.byte		v061
	.byte	W03
	.byte		v064
	.byte	W03
	.byte		v066
	.byte	W03
	.byte		v069
	.byte	W03
	.byte		v070
	.byte	W03
	.byte		v073
	.byte	W03
	.byte		v075
	.byte	W03
	.byte		v078
	.byte	W03
	.byte		v080
	.byte	W19
	.byte		v079
	.byte	W02
	.byte		v080
	.byte	W01
	.byte		v081
	.byte	W02
	.byte		v082
	.byte	W01
	.byte		v083
	.byte	W02
	.byte		v084
	.byte	W01
	.byte		v085
	.byte	W02
	.byte		v086
	.byte	W01
	.byte		v087
	.byte	W02
	.byte		v089
	.byte	W01
	.byte		v090
	.byte	W02
	.byte		v091
	.byte	W03
	.byte		EOT	, As2
	.byte			Cn3
	.byte	W12
	.byte	W72
mus_dark_meta_knight_battle_3_3:
	.byte	W96
	.byte	W48
	.byte	VOICE	, 6
	.byte	PAN	, c_v+10
	.byte	W06
	.byte	VOL	, v073
	.byte	W06
	.byte	MOD	, 1
	.byte	W36
	.byte	LFOS	, 26
	.byte	W96
	.byte		TIE	, Cn3, v056
	.byte	W96
	.byte	W30
	.byte	MOD	, 2
	.byte	W18
	.byte	W60
	.byte		3
	.byte	W48
	.byte	W24
	.byte		EOT	
	.byte	MOD	, 1
	.byte		N06	, Bn2
	.byte	W06
	.byte			As2
	.byte	W06
	.byte		TIE	, An2
	.byte	W96
	.byte	W24
	.byte	MOD	, 2
	.byte	W24
	.byte	W60
	.byte		3
	.byte	W48
	.byte		4
	.byte	W24
	.byte		EOT	
	.byte	MOD	, 1
	.byte		N06	, As2
	.byte	W06
	.byte			Bn2
	.byte	W06
	.byte		TIE	, Cn3
	.byte	W96
	.byte	W12
	.byte	MOD	, 2
	.byte	W36
	.byte	W66
	.byte		3
	.byte	W66
	.byte		EOT	
	.byte	MOD	, 1
	.byte		N06	, Bn2
	.byte	W06
	.byte			As2
	.byte	W06
	.byte		TIE	, An2
	.byte	W96
	.byte	W18
	.byte	MOD	, 2
	.byte	W30
	.byte	W48
	.byte		3
	.byte	W54
	.byte		4
	.byte	W30
	.byte		EOT	
	.byte	W06
	.byte	MOD	, 0
	.byte	W06
	.byte	VOICE	, 113
	.byte	VOL	, v087
	.byte	PAN	, c_v+10
	.byte	MOD	, 1
	.byte	BEND	, c_v
	.byte		N07	, As2, v072
	.byte		N07	, Cn3
	.byte	W12
	.byte			As2
	.byte		N07	, Cn3
	.byte	W12
	.byte			As2, v040
	.byte		N07	, Cn3
	.byte	W12
	.byte			As2, v072
	.byte		N07	, Cn3
	.byte	W24
	.byte			As2, v040
	.byte		N07	, Cn3
	.byte	W24
	.byte			As2, v032
	.byte		N07	, Cn3
	.byte	W24
	.byte			As2, v020
	.byte		N07	, Cn3
	.byte	W36
mus_dark_meta_knight_battle_3_2:
	.byte		N07	, As2, v072
	.byte		N07	, Cn3
	.byte	W12
	.byte			As2
	.byte		N07	, Cn3
	.byte	W12
	.byte			As2, v040
	.byte		N07	, Cn3
	.byte	W12
	.byte			As2, v072
	.byte		N07	, Cn3
	.byte	W24
	.byte			As2, v040
	.byte		N07	, Cn3
	.byte	W24
	.byte			As2, v032
	.byte		N07	, Cn3
	.byte	W24
	.byte			As2, v020
	.byte		N07	, Cn3
	.byte	W36
	.byte	PEND
mus_dark_meta_knight_battle_3_1:
	.byte		N07	, Bn2, v072
	.byte		N07	, Cs3
	.byte	W12
	.byte			Bn2
	.byte		N07	, Cs3
	.byte	W12
	.byte			Bn2, v040
	.byte		N07	, Cs3
	.byte	W12
	.byte			Bn2, v072
	.byte		N07	, Cs3
	.byte	W24
	.byte			Bn2, v040
	.byte		N07	, Cs3
	.byte	W24
	.byte			Bn2, v032
	.byte		N07	, Cs3
	.byte	W24
	.byte			Bn2, v020
	.byte		N07	, Cs3
	.byte	W36
	.byte	PEND
	.byte	PATT	
		.word	mus_dark_meta_knight_battle_3_1
	.byte	PATT	
		.word	mus_dark_meta_knight_battle_3_2
	.byte	PATT	
		.word	mus_dark_meta_knight_battle_3_2
	.byte		N07	, Gn2, v080
	.byte		N07	, An2, v072
	.byte	W12
	.byte			Gn2, v080
	.byte		N07	, An2, v072
	.byte	W12
	.byte			Gn2, v052
	.byte		N07	, An2, v040
	.byte	W12
	.byte			Gn2, v080
	.byte		N07	, An2, v072
	.byte	W24
	.byte			Gn2, v052
	.byte		N07	, An2, v040
	.byte	W24
	.byte			Gn2
	.byte		N07	, An2, v032
	.byte	W24
	.byte			Gn2
	.byte		N07	, An2, v020
	.byte	W36
	.byte			An2, v072
	.byte		N07	, Gn3
	.byte	W12
	.byte			An2
	.byte		N07	, Gn3
	.byte	W12
	.byte			An2, v040
	.byte		N07	, Gn3
	.byte	W12
	.byte			An2, v072
	.byte		N07	, Gn3
	.byte	W24
	.byte			An2, v040
	.byte		N07	, Gn3
	.byte	W12
	.byte		N24	, An2, v052
	.byte		N24	, Gn3
	.byte	W24
	.byte			As2
	.byte		N24	, Gs3
	.byte	W24
	.byte			Bn2, v056
	.byte		N24	, An3
	.byte	W24
	.byte	GOTO	
		.word	mus_dark_meta_knight_battle_3_3
	.byte	W96
	.byte	W48
	.byte	W03
	.byte	FINE

	@********************** Track  4 **********************@

	.global mus_dark_meta_knight_battle_4
mus_dark_meta_knight_battle_4:	@ 0x08D487FD
	.byte	KEYSH	, 0
	.byte	VOICE	, 114
	.byte	VOL	, v073
	.byte	PAN	, c_v-10
	.byte	MOD	, 1
	.byte	BEND	, c_v
	.byte		N07	, Fn3, v060
	.byte	W12
	.byte		N07	
	.byte	W12
	.byte			Fn3, v032
	.byte	W12
	.byte			Fn3, v060
	.byte	W24
	.byte			Fn3, v032
	.byte	W12
	.byte			Fs3, v060
	.byte	W12
	.byte		N07	
	.byte	W12
	.byte			Fs3, v032
	.byte	W12
	.byte			Fs3, v060
	.byte	W24
	.byte			Fs3, v032
	.byte	W12
	.byte			Gs3, v060
	.byte	W12
	.byte		N07	
	.byte	W12
	.byte			Gs3, v032
	.byte	W12
	.byte			Gs3, v060
	.byte	W24
	.byte			Gs3, v032
	.byte	W12
	.byte			Fs3, v060
	.byte	W12
	.byte		N07	
	.byte	W12
	.byte			Fs3, v032
	.byte	W12
	.byte			Fs3, v060
	.byte	W24
	.byte			Fs3, v032
	.byte	W12
	.byte	VOL	, v073
	.byte		TIE	, Fn3, v072
	.byte	W01
	.byte	VOL	, v071
	.byte	W02
	.byte		v068
	.byte	W01
	.byte		v065
	.byte	W02
	.byte		v063
	.byte	W01
	.byte		v058
	.byte	W02
	.byte		v053
	.byte	W01
	.byte		v047
	.byte	W02
	.byte		v042
	.byte	W01
	.byte		v036
	.byte	W02
	.byte		v032
	.byte	W01
	.byte		v028
	.byte	W02
	.byte		v023
	.byte	W03
	.byte		v020
	.byte	W03
	.byte		v023
	.byte	W03
	.byte		v028
	.byte	W03
	.byte		v031
	.byte	W03
	.byte		v033
	.byte	W03
	.byte		v035
	.byte	W03
	.byte		v037
	.byte	W03
	.byte		v040
	.byte	W03
	.byte		v043
	.byte	W03
	.byte		v045
	.byte	W03
	.byte		v047
	.byte	W03
	.byte		v049
	.byte	W03
	.byte		v052
	.byte	W03
	.byte		v054
	.byte	W03
	.byte		v057
	.byte	W03
	.byte		v058
	.byte	W03
	.byte		v061
	.byte	W03
	.byte		v064
	.byte	W03
	.byte		v066
	.byte	W03
	.byte		v069
	.byte	W03
	.byte		v070
	.byte	W03
	.byte		v073
	.byte	W03
	.byte		v075
	.byte	W03
	.byte		v078
	.byte	W03
	.byte		v080
	.byte	W24
	.byte		v079
	.byte	W03
	.byte		v082
	.byte	W03
	.byte		v086
	.byte	W03
	.byte		v090
	.byte	W06
	.byte		EOT	
	.byte	W12
	.byte	W72
mus_dark_meta_knight_battle_4_3:
	.byte	W96
	.byte	W48
	.byte	VOICE	, 6
	.byte	PAN	, c_v-10
	.byte	W06
	.byte	VOL	, v073
	.byte	W06
	.byte	MOD	, 1
	.byte	W36
	.byte	LFOS	, 26
	.byte	W96
	.byte		TIE	, Fn2, v056
	.byte	W96
	.byte	W30
	.byte	MOD	, 2
	.byte	W18
	.byte	W72
	.byte		3
	.byte	W60
	.byte		EOT	
	.byte	MOD	, 1
	.byte		N06	, En2
	.byte	W06
	.byte			Ds2
	.byte	W06
	.byte		TIE	, Dn2
	.byte	W96
	.byte	W18
	.byte	MOD	, 2
	.byte	W30
	.byte	W66
	.byte		3
	.byte	W66
	.byte		EOT	
	.byte	MOD	, 1
	.byte		N06	, Ds2
	.byte	W06
	.byte			En2
	.byte	W06
	.byte		TIE	, Fn2
	.byte	W96
	.byte	W24
	.byte	MOD	, 2
	.byte	W24
	.byte	W60
	.byte		3
	.byte	W72
	.byte		EOT	
	.byte	MOD	, 1
	.byte		N06	, En2
	.byte	W06
	.byte			Ds2
	.byte	W06
	.byte		TIE	, Dn2
	.byte	W96
	.byte	W36
	.byte	MOD	, 2
	.byte	W12
	.byte	W78
	.byte		3
	.byte	W54
	.byte		EOT	
	.byte	W06
	.byte	MOD	, 0
	.byte	W06
	.byte	VOICE	, 114
	.byte	VOL	, v064
	.byte	PAN	, c_v-10
	.byte	MOD	, 1
	.byte	BEND	, c_v
	.byte		N07	, Fn3, v060
	.byte	W12
	.byte		N07	
	.byte	W12
	.byte			Fn3, v032
	.byte	W12
	.byte			Fn3, v060
	.byte	W24
	.byte			Fn3, v032
	.byte	W24
	.byte			Fn3, v020
	.byte	W24
	.byte			Fn3, v012
	.byte	W36
mus_dark_meta_knight_battle_4_2:
	.byte		N07	, Fn3, v060
	.byte	W12
	.byte		N07	
	.byte	W12
	.byte			Fn3, v032
	.byte	W12
	.byte			Fn3, v060
	.byte	W24
	.byte			Fn3, v032
	.byte	W24
	.byte			Fn3, v020
	.byte	W24
	.byte			Fn3, v012
	.byte	W36
	.byte	PEND
mus_dark_meta_knight_battle_4_1:
	.byte		N07	, Fs3, v060
	.byte	W12
	.byte		N07	
	.byte	W12
	.byte			Fs3, v032
	.byte	W12
	.byte			Fs3, v060
	.byte	W24
	.byte			Fs3, v032
	.byte	W24
	.byte			Fs3, v020
	.byte	W24
	.byte			Fs3, v012
	.byte	W36
	.byte	PEND
	.byte	PATT	
		.word	mus_dark_meta_knight_battle_4_1
	.byte	PATT	
		.word	mus_dark_meta_knight_battle_4_2
	.byte	PATT	
		.word	mus_dark_meta_knight_battle_4_2
	.byte		N07	, Dn3, v060
	.byte	W12
	.byte		N07	
	.byte	W12
	.byte			Dn3, v032
	.byte	W12
	.byte			Dn3, v060
	.byte	W24
	.byte			Dn3, v032
	.byte	W24
	.byte			Dn3, v020
	.byte	W24
	.byte			Dn3, v012
	.byte	W36
	.byte			Dn3, v060
	.byte	W12
	.byte		N07	
	.byte	W12
	.byte			Dn3, v032
	.byte	W12
	.byte			Dn3, v060
	.byte	W24
	.byte			Dn3, v032
	.byte	W12
	.byte		N24	, Dn3, v040
	.byte	W24
	.byte			Ds3, v048
	.byte	W24
	.byte			En3, v052
	.byte	W24
	.byte	GOTO	
		.word	mus_dark_meta_knight_battle_4_3
	.byte	W96
	.byte	W48
	.byte	W03
	.byte	FINE

	@********************** Track  5 **********************@

	.global mus_dark_meta_knight_battle_5
mus_dark_meta_knight_battle_5:	@ 0x08D48984
	.byte	KEYSH	, 0
	.byte	VOICE	, 109
	.byte	VOL	, v073
	.byte	MOD	, 0
	.byte	PAN	, c_v
	.byte	BEND	, c_v
	.byte		N12	, Cs3, v112
	.byte	W12
	.byte		N18	, Gs2
	.byte	W24
	.byte			Cs3
	.byte	W24
	.byte		N12	, Gs2
	.byte	W12
	.byte			Dn3
	.byte	W12
	.byte		N18	, An2
	.byte	W24
	.byte			Dn3
	.byte	W24
	.byte		N06	, An2
	.byte	W06
	.byte		N06	
	.byte	W06
	.byte		N12	, En3
	.byte	W12
	.byte		N18	, Bn2
	.byte	W24
	.byte			En3
	.byte	W24
	.byte		N12	, Bn2
	.byte	W12
	.byte			Dn3
	.byte	W12
	.byte		N18	, An2
	.byte	W24
	.byte			Dn3
	.byte	W24
	.byte		N12	, An2
	.byte	W12
	.byte			Fs3, v072
	.byte	W12
	.byte			Cs3, v060
	.byte	W12
	.byte			Fs3, v040
	.byte	W12
	.byte			Cs3, v032
	.byte	W12
	.byte			Fs3, v052
	.byte	W12
	.byte			Cs3, v040
	.byte	W12
	.byte			Fs3, v072
	.byte	W12
	.byte			Cs3, v060
	.byte	W12
	.byte			Fs3, v092
	.byte	W12
	.byte			Cs3, v080
	.byte	W12
	.byte			Fs3, v112
	.byte	W12
	.byte			Cs3, v100
	.byte	W12
	.byte			Fs3, v072
	.byte	W12
	.byte			Cs3, v060
	.byte	W12
	.byte			Fs3, v092
	.byte	W12
	.byte			Cs3, v080
	.byte	W12
	.byte			Fs3, v112
	.byte	W12
	.byte			Cs3, v100
	.byte	W12
mus_dark_meta_knight_battle_5_3:
	.byte	W96
	.byte	W48
	.byte	W96
	.byte	W48
	.byte	VOICE	, 111
	.byte	VOL	, v055
	.byte	PAN	, c_v-20
	.byte		N06	, Fn4, v052
	.byte	W09
	.byte		N03	, Fn4, v036
	.byte	W03
	.byte		N06	, Cs5, v052
	.byte	W09
	.byte		N03	, Cs5, v036
	.byte	W03
	.byte	PAN	, c_v+20
	.byte		N06	, Cn5, v052
	.byte	W09
	.byte		N03	, Cn5, v036
	.byte	W03
	.byte		N06	, Gs4, v052
	.byte	W09
	.byte		N03	, Gs4, v036
	.byte	W03
	.byte	PAN	, c_v-20
	.byte		N06	, As4, v052
	.byte	W09
	.byte		N03	, As4, v036
	.byte	W03
	.byte		N06	, Gn4, v052
	.byte	W09
	.byte		N03	, Gn4, v036
	.byte	W03
	.byte	PAN	, c_v+20
	.byte		N06	, Gs4, v052
	.byte	W09
	.byte		N03	, Gs4, v036
	.byte	W03
	.byte		N06	, Gn4, v052
	.byte	W09
	.byte		N03	, Gn4, v036
	.byte	W03
	.byte	PAN	, c_v-20
	.byte		N06	, Fn4, v052
	.byte	W09
	.byte		N03	, Fn4, v036
	.byte	W03
	.byte		N06	, Ds4, v052
	.byte	W09
	.byte		N03	, Ds4, v036
	.byte	W03
	.byte	PAN	, c_v+20
	.byte		N06	, Fn4, v052
	.byte	W09
	.byte		N03	, Fn4, v036
	.byte	W03
	.byte		N06	, Cn4, v052
	.byte	W09
	.byte		N03	, Cn4, v036
	.byte	W03
mus_dark_meta_knight_battle_5_2:
	.byte	PAN	, c_v-20
	.byte		N06	, Fn4, v052
	.byte	W09
	.byte		N03	, Fn4, v036
	.byte	W03
	.byte		N06	, Cs5, v052
	.byte	W09
	.byte		N03	, Cs5, v036
	.byte	W03
	.byte	PAN	, c_v+20
	.byte		N06	, Cn5, v052
	.byte	W09
	.byte		N03	, Cn5, v036
	.byte	W03
	.byte		N06	, Gs4, v052
	.byte	W09
	.byte		N03	, Gs4, v036
	.byte	W03
	.byte	PAN	, c_v-20
	.byte		N06	, As4, v052
	.byte	W09
	.byte		N03	, As4, v036
	.byte	W03
	.byte		N06	, Gn4, v052
	.byte	W09
	.byte		N03	, Gn4, v036
	.byte	W03
	.byte	PAN	, c_v+20
	.byte		N06	, Gs4, v052
	.byte	W09
	.byte		N03	, Gs4, v036
	.byte	W03
	.byte		N06	, Gn4, v052
	.byte	W09
	.byte		N03	, Gn4, v036
	.byte	W03
	.byte	PAN	, c_v-20
	.byte		N06	, Fn4, v052
	.byte	W09
	.byte		N03	, Fn4, v036
	.byte	W03
	.byte		N06	, Ds4, v052
	.byte	W09
	.byte		N03	, Ds4, v036
	.byte	W03
	.byte	PAN	, c_v+20
	.byte		N06	, Fn4, v052
	.byte	W09
	.byte		N03	, Fn4, v036
	.byte	W03
	.byte		N06	, Cn4, v052
	.byte	W09
	.byte		N03	, Cn4, v036
	.byte	W03
	.byte	PEND
mus_dark_meta_knight_battle_5_1:
	.byte	PAN	, c_v-20
	.byte		N06	, Dn4, v052
	.byte	W09
	.byte		N03	, Dn4, v036
	.byte	W03
	.byte		N06	, As4, v052
	.byte	W09
	.byte		N03	, As4, v036
	.byte	W03
	.byte	PAN	, c_v+20
	.byte		N06	, An4, v052
	.byte	W09
	.byte		N03	, An4, v036
	.byte	W03
	.byte		N06	, Fn4, v052
	.byte	W09
	.byte		N03	, Fn4, v036
	.byte	W03
	.byte	PAN	, c_v-20
	.byte		N06	, Gn4, v052
	.byte	W09
	.byte		N03	, Gn4, v036
	.byte	W03
	.byte		N06	, En4, v052
	.byte	W09
	.byte		N03	, En4, v036
	.byte	W03
	.byte	PAN	, c_v+20
	.byte		N06	, Fn4, v052
	.byte	W09
	.byte		N03	, Fn4, v036
	.byte	W03
	.byte		N06	, En4, v052
	.byte	W09
	.byte		N03	, En4, v036
	.byte	W03
	.byte	PAN	, c_v-20
	.byte		N06	, Dn4, v052
	.byte	W09
	.byte		N03	, Dn4, v036
	.byte	W03
	.byte		N06	, Cn4, v052
	.byte	W09
	.byte		N03	, Cn4, v036
	.byte	W03
	.byte	PAN	, c_v+20
	.byte		N06	, Dn4, v052
	.byte	W09
	.byte		N03	, Dn4, v036
	.byte	W03
	.byte		N06	, An3, v052
	.byte	W09
	.byte		N03	, An3, v036
	.byte	W03
	.byte	PEND
	.byte	PATT	
		.word	mus_dark_meta_knight_battle_5_1
	.byte	PATT	
		.word	mus_dark_meta_knight_battle_5_2
	.byte	PATT	
		.word	mus_dark_meta_knight_battle_5_2
	.byte	PATT	
		.word	mus_dark_meta_knight_battle_5_1
	.byte	PATT	
		.word	mus_dark_meta_knight_battle_5_1
	.byte	VOICE	, 33
	.byte	VOL	, v036
	.byte	PAN	, c_v-20
	.byte	W96
	.byte	W48
	.byte	W96
	.byte	W48
	.byte	W96
	.byte	W48
	.byte	W96
	.byte	W48
	.byte	W24
	.byte		c_v-40
	.byte		N05	, Fn2, v028
	.byte	W08
	.byte			As2, v032
	.byte	W05
	.byte		N02	, Fn2, v024
	.byte	W03
	.byte	PAN	, c_v-20
	.byte		N05	, Cn3, v036
	.byte	W05
	.byte		N02	, As2, v024
	.byte	W03
	.byte		N05	, Fn3, v040
	.byte	W05
	.byte		N02	, Cn3, v028
	.byte	W03
	.byte	PAN	, c_v
	.byte		N05	, As3, v044
	.byte	W05
	.byte		N02	, Fn3, v032
	.byte	W03
	.byte		N05	, Cn4, v048
	.byte	W05
	.byte		N02	, As3, v036
	.byte	W03
	.byte	PAN	, c_v+20
	.byte		N05	, Fn4, v052
	.byte	W05
	.byte		N02	, Cn4, v036
	.byte	W03
	.byte		N05	, As4, v056
	.byte	W05
	.byte		N02	, Fn4, v036
	.byte	W03
	.byte	PAN	, c_v+40
	.byte		N05	, Cn5, v060
	.byte	W05
	.byte		N02	, As4, v036
	.byte	W03
	.byte		N05	, Fn5, v048
	.byte	W05
	.byte		N02	, Cn5, v028
	.byte	W03
	.byte	PAN	, c_v+60
	.byte		N05	, Cn5, v044
	.byte	W05
	.byte		N02	, Fn5, v024
	.byte	W03
	.byte		N05	, As4, v040
	.byte	W05
	.byte		N02	, Cn5, v024
	.byte	W03
	.byte	PAN	, c_v+40
	.byte		N05	, Fn4, v036
	.byte	W05
	.byte		N02	, As4, v020
	.byte	W03
	.byte		N05	, Cn4, v032
	.byte	W05
	.byte		N02	, Fn4, v016
	.byte	W03
	.byte	PAN	, c_v+20
	.byte		N05	, As3, v024
	.byte	W05
	.byte		N02	, Cn4, v016
	.byte	W03
	.byte		N05	, Cn5, v024
	.byte	W05
	.byte		N02	, Fn5, v012
	.byte	W03
	.byte		N05	, As4, v020
	.byte	W05
	.byte		N02	, Cn5, v008
	.byte	W03
	.byte		N05	, Fn4, v016
	.byte	W05
	.byte		N02	, As4, v008
	.byte	W03
	.byte		N05	, Cn4, v012
	.byte	W05
	.byte		N02	, Fn4, v004
	.byte	W03
	.byte		N05	, As3, v008
	.byte	W05
	.byte		N02	, Cn4, v004
	.byte	W96
	.byte	W11
	.byte	W96
	.byte	W48
	.byte	W96
	.byte	W48
	.byte	GOTO	
		.word	mus_dark_meta_knight_battle_5_3
	.byte	W96
	.byte	W48
	.byte	W03
	.byte	FINE

	@********************** Track  6 **********************@

	.global mus_dark_meta_knight_battle_6
mus_dark_meta_knight_battle_6:	@ 0x08D48C21
	.byte	KEYSH	, 0
	.byte	VOICE	, 1
	.byte	VOL	, v036
	.byte	PAN	, c_v
	.byte	MOD	, 1
	.byte	BEND	, c_v
	.byte		N09	, Fn2, v116
	.byte	W12
	.byte			Fn3, v072
	.byte	W12
	.byte			Ds3, v116
	.byte	W12
	.byte			Fn2
	.byte	W12
	.byte		N09	
	.byte	W12
	.byte		N06	, Fn3, v072
	.byte	W12
	.byte		N09	, Fs2, v116
	.byte	W12
	.byte			Fs3, v072
	.byte	W12
	.byte			Cs3, v116
	.byte	W12
	.byte			As2
	.byte	W12
	.byte			Fs2
	.byte	W12
	.byte		N06	, Fs3, v080
	.byte	W12
	.byte		N09	, Gs2, v116
	.byte	W12
	.byte			Gs3, v072
	.byte	W12
	.byte			Ds3, v116
	.byte	W12
	.byte			Cn3
	.byte	W12
	.byte			Gs2
	.byte	W12
	.byte		N06	, Gs3, v080
	.byte	W12
	.byte		N09	, Fs2, v116
	.byte	W12
	.byte			Fs3
	.byte	W12
	.byte			Cs3
	.byte	W12
	.byte			As2
	.byte	W12
	.byte			Fs2
	.byte	W12
	.byte		N06	, Fs3, v080
	.byte	W12
	.byte		N09	, Fn2, v116
	.byte	W12
	.byte		N09	
	.byte	W12
	.byte		N09	
	.byte	W12
	.byte		N09	
	.byte	W12
	.byte		N09	
	.byte	W12
	.byte		N09	
	.byte	W12
	.byte			Fn3
	.byte	W12
	.byte			Cn3
	.byte	W12
	.byte			As2
	.byte	W12
	.byte			Cn3
	.byte	W12
	.byte			As2
	.byte	W12
	.byte			Fn2
	.byte	W12
	.byte			Fn3
	.byte	W12
	.byte			Cn3
	.byte	W12
	.byte			As2
	.byte	W12
	.byte			Cn3
	.byte	W12
	.byte			As2
	.byte	W12
	.byte			Fn2
	.byte	W12
mus_dark_meta_knight_battle_6_5:
	.byte		N12	, Fn2, v100
	.byte	W12
	.byte			Cs3
	.byte	W12
	.byte			Cn3
	.byte	W12
	.byte			Gs2
	.byte	W12
	.byte			As2
	.byte	W12
	.byte			Gn2
	.byte	W12
	.byte			Gs2
	.byte	W12
	.byte			Gn2
	.byte	W12
	.byte			Fn2
	.byte	W12
	.byte			Dn2
	.byte	W12
	.byte			Ds2
	.byte	W12
	.byte			En2
	.byte	W12
mus_dark_meta_knight_battle_6_1:
	.byte		N12	, Fn2, v100
	.byte	W12
	.byte			Cs3
	.byte	W12
	.byte			Cn3
	.byte	W12
	.byte			Gs2
	.byte	W12
	.byte			As2
	.byte	W12
	.byte			Gn2
	.byte	W12
	.byte			Gs2
	.byte	W12
	.byte			Gn2
	.byte	W12
	.byte			Fn2
	.byte	W12
	.byte			Dn2
	.byte	W12
	.byte			Ds2
	.byte	W12
	.byte			En2
	.byte	W12
	.byte	PEND
	.byte	PATT	
		.word	mus_dark_meta_knight_battle_6_1
	.byte	PATT	
		.word	mus_dark_meta_knight_battle_6_1
mus_dark_meta_knight_battle_6_2:
	.byte		N12	, Dn2, v100
	.byte	W12
	.byte			As2
	.byte	W12
	.byte			An2
	.byte	W12
	.byte			Fn2
	.byte	W12
	.byte			Gn2
	.byte	W12
	.byte			En2
	.byte	W12
	.byte			Fn2
	.byte	W12
	.byte			En2
	.byte	W12
	.byte			Dn2
	.byte	W12
	.byte			Bn1
	.byte	W12
	.byte			Cn2
	.byte	W12
	.byte			Cs2
	.byte	W12
	.byte	PEND
	.byte	PATT	
		.word	mus_dark_meta_knight_battle_6_2
	.byte	PATT	
		.word	mus_dark_meta_knight_battle_6_1
	.byte	PATT	
		.word	mus_dark_meta_knight_battle_6_1
	.byte	PATT	
		.word	mus_dark_meta_knight_battle_6_2
	.byte	PATT	
		.word	mus_dark_meta_knight_battle_6_2
mus_dark_meta_knight_battle_6_3:
	.byte		N09	, Fn3, v112
	.byte	W12
	.byte			Cn3
	.byte	W12
	.byte			Ds3
	.byte	W12
	.byte			Cn3
	.byte	W12
	.byte			Dn3
	.byte	W12
	.byte			Ds3
	.byte	W12
	.byte			Dn3
	.byte	W12
	.byte			Cn3
	.byte	W12
	.byte			As2
	.byte	W12
	.byte			Fn2
	.byte	W12
	.byte			As2
	.byte	W12
	.byte			Fn2
	.byte	W12
	.byte	PEND
	.byte	PATT	
		.word	mus_dark_meta_knight_battle_6_3
mus_dark_meta_knight_battle_6_4:
	.byte		N09	, Fs3, v112
	.byte	W12
	.byte			Cs3
	.byte	W12
	.byte			En3
	.byte	W12
	.byte			Cs3
	.byte	W12
	.byte			Ds3
	.byte	W12
	.byte			En3
	.byte	W12
	.byte			Ds3
	.byte	W12
	.byte			Cs3
	.byte	W12
	.byte			Bn2
	.byte	W12
	.byte			Fs2
	.byte	W12
	.byte			Bn2
	.byte	W12
	.byte			Fs2
	.byte	W12
	.byte	PEND
	.byte	PATT	
		.word	mus_dark_meta_knight_battle_6_4
	.byte	PATT	
		.word	mus_dark_meta_knight_battle_6_3
	.byte	PATT	
		.word	mus_dark_meta_knight_battle_6_3
	.byte		N09	, Dn3, v112
	.byte	W12
	.byte			An2
	.byte	W12
	.byte			Cn3
	.byte	W12
	.byte			An2
	.byte	W12
	.byte			Bn2
	.byte	W12
	.byte			Cn3
	.byte	W12
	.byte			Bn2
	.byte	W12
	.byte			An2
	.byte	W12
	.byte			Gn2
	.byte	W12
	.byte			Dn2
	.byte	W12
	.byte			Gn2
	.byte	W12
	.byte			Dn2
	.byte	W12
	.byte			Dn3, v120
	.byte	W12
	.byte			An2
	.byte	W12
	.byte			Cn3
	.byte	W12
	.byte			An2
	.byte	W12
	.byte			Bn2
	.byte	W12
	.byte			Cn3
	.byte	W12
	.byte		N12	, Gn2
	.byte	W12
	.byte		N09	, Gn3, v092
	.byte	W12
	.byte		N12	, Gs2, v120
	.byte	W12
	.byte		N09	, Gs3, v092
	.byte	W12
	.byte		N12	, An2, v120
	.byte	W12
	.byte		N09	, An3, v092
	.byte	W12
	.byte	GOTO	
		.word	mus_dark_meta_knight_battle_6_5
	.byte	W96
	.byte	W48
	.byte	W03
	.byte	FINE

	.align 2
	.global mus_dark_meta_knight_battle
mus_dark_meta_knight_battle:	@ 0x08D48DA0
	.byte	6		@ trackCount
	.byte	0		@ blockCount
	.byte	128		@ priority
	.byte	128		@ reverb

	.word	voicegroup000		@ voicegroup/tone

	.word	mus_dark_meta_knight_battle_1		@ track
	.word	mus_dark_meta_knight_battle_2		@ track
	.word	mus_dark_meta_knight_battle_3		@ track
	.word	mus_dark_meta_knight_battle_4		@ track
	.word	mus_dark_meta_knight_battle_5		@ track
	.word	mus_dark_meta_knight_battle_6		@ track
