	.include "MPlayDef.s"

	.section .rodata

	@********************** Track  1 **********************@

	.align 2
	.global mus_dark_mind_second_form_1
mus_dark_mind_second_form_1:	@ 0x08D49AF0
	.byte	KEYSH	, 0
	.byte	TEMPO	, 62
	.byte	VOICE	, 67
	.byte	VOL	, v115
	.byte	PAN	, c_v
	.byte	BEND	, c_v
	.byte		N06	, Gs1, v120
	.byte		N24	, Cs3, v048
	.byte	W06
	.byte		N12	, Cn3, v060
	.byte	W12
	.byte		N06	, Gs1, v120
	.byte	W06
	.byte		N12	, Cn3, v060
	.byte	W12
	.byte		N06	, Gs1, v120
	.byte	W06
	.byte		N12	, Cn3, v060
	.byte	W12
	.byte		N06	, Gs1, v120
	.byte	W06
	.byte		N12	, Cn3, v060
	.byte	W12
	.byte		N06	, Gs1, v100
	.byte		N30	, Cs3, v048
	.byte	W06
	.byte		N06	, Cn3, v080
	.byte	W06
	.byte			Bn0, v092
	.byte	W06
	.byte			Gn0
	.byte	W06
	.byte			Cn1
	.byte	W06
	.byte		N12	, Bn0
	.byte	W12
	.byte			An0
	.byte	W12
	.byte			Gn0, v096
	.byte	W12
	.byte		N06	, Cn3, v060
	.byte	W06
	.byte			Cn3, v072
	.byte	W06
	.byte			Gs1, v120
	.byte	W06
	.byte			Cn3, v060
	.byte	W06
	.byte			Gs1, v120
	.byte	W06
	.byte			Cn3, v072
	.byte	W06
	.byte			Cn3, v080
	.byte	W06
	.byte		N12	
	.byte	W12
mus_dark_mind_second_form_1_5:
	.byte		N06	, Gs1, v112
	.byte		N24	, Cs3, v040
	.byte	W06
	.byte		N06	, Fs0, v100
	.byte	W06
	.byte		N12	, Cn3, v060
	.byte	W12
	.byte		N06	, Fs0, v100
	.byte	W06
	.byte			Gs1, v112
	.byte	W06
	.byte		N12	, Cn3, v060
	.byte	W12
	.byte		N06	, Gs1, v112
	.byte	W06
	.byte			Fs0, v100
	.byte	W06
	.byte		N12	, Cn3, v060
	.byte	W12
	.byte		N06	, Fs0, v100
	.byte	W06
	.byte			Gs1, v112
	.byte	W06
	.byte		N12	, Cn3, v060
	.byte	W12
mus_dark_mind_second_form_1_1:
	.byte		N06	, Gs1, v112
	.byte	W06
	.byte			Fs0, v100
	.byte	W06
	.byte		N12	, Cn3, v060
	.byte	W12
	.byte		N06	, Fs0, v100
	.byte	W06
	.byte			Gs1, v112
	.byte	W06
	.byte		N12	, Cn3, v060
	.byte	W12
	.byte		N06	, Gs1, v112
	.byte	W06
	.byte			Fs0, v100
	.byte	W06
	.byte		N12	, Cn3, v060
	.byte	W12
	.byte		N06	, Fs0, v100
	.byte	W06
	.byte			Gs1, v112
	.byte	W06
	.byte		N12	, Cn3, v060
	.byte	W12
	.byte	PEND
	.byte	PATT	
		.word	mus_dark_mind_second_form_1_1
	.byte	PATT	
		.word	mus_dark_mind_second_form_1_1
	.byte	PATT	
		.word	mus_dark_mind_second_form_1_1
	.byte	PATT	
		.word	mus_dark_mind_second_form_1_1
	.byte	PATT	
		.word	mus_dark_mind_second_form_1_1
	.byte		N06	, Gs1, v112
	.byte	W06
	.byte			Fs0, v100
	.byte	W06
	.byte		N12	, Cn3, v060
	.byte	W12
	.byte		N06	, Fs0, v100
	.byte	W06
	.byte			Gs1, v112
	.byte	W06
	.byte		N12	, Cn3, v060
	.byte	W12
	.byte		N06	, Gs1, v112
	.byte	W06
	.byte			Cn3, v060
	.byte	W06
	.byte		N12	
	.byte	W12
	.byte		N06	, Cn1, v080
	.byte	W06
	.byte			Cn1, v092
	.byte	W06
	.byte			Bn0, v100
	.byte	W06
	.byte			Gn0
	.byte	W06
	.byte			Gs1, v112
	.byte		N24	, Cs3, v040
	.byte	W06
	.byte		N06	, Fs0, v100
	.byte	W06
	.byte			Gs1, v112
	.byte	W06
	.byte			Cn3, v052
	.byte		N12	, Dn3, v032
	.byte	W06
	.byte		N06	, Fs0, v100
	.byte	W06
	.byte			Gs1, v112
	.byte	W06
	.byte		N12	, Cn3, v060
	.byte	W12
	.byte		N06	, Gs1, v112
	.byte	W06
	.byte		N12	, Cn3, v052
	.byte	W12
	.byte		N06	, Fs0, v112
	.byte	W06
	.byte			Gs1, v100
	.byte	W06
	.byte			Gs1, v112
	.byte	W06
	.byte		N12	, Cn3, v060
	.byte	W12
mus_dark_mind_second_form_1_2:
	.byte		N06	, Gs1, v112
	.byte	W06
	.byte			Fs0, v100
	.byte	W06
	.byte			Gs1, v112
	.byte	W06
	.byte			Cn3, v052
	.byte	W06
	.byte			Fs0, v100
	.byte	W06
	.byte			Gs1, v112
	.byte	W06
	.byte		N12	, Cn3, v060
	.byte	W12
	.byte		N06	, Gs1, v112
	.byte	W06
	.byte		N12	, Cn3, v052
	.byte	W12
	.byte		N06	, Fs0, v112
	.byte	W06
	.byte			Gs1, v100
	.byte	W06
	.byte			Gs1, v112
	.byte	W06
	.byte		N12	, Cn3, v060
	.byte	W12
	.byte	PEND
	.byte	PATT	
		.word	mus_dark_mind_second_form_1_2
	.byte		N06	, Gs1, v112
	.byte	W06
	.byte			Fs0, v100
	.byte	W06
	.byte			Gs1, v112
	.byte	W06
	.byte			Cn3, v052
	.byte	W06
	.byte			Fs0, v100
	.byte	W06
	.byte			Gs1, v112
	.byte	W06
	.byte		N12	, Cn3, v060
	.byte	W12
	.byte		N06	, Gs1, v112
	.byte	W06
	.byte		N12	, Cn3, v052
	.byte	W12
	.byte		N06	, Cn3, v060
	.byte	W06
	.byte			Cn3, v072
	.byte	W06
	.byte			Gs1, v112
	.byte	W06
	.byte		N12	, Cn3, v060
	.byte	W12
	.byte		N06	, Gs1, v112
	.byte		N24	, Cs3, v040
	.byte	W06
	.byte		N06	, Fs0, v100
	.byte	W06
	.byte			Gs1, v112
	.byte	W06
	.byte			Cn3, v052
	.byte		N12	, Dn3, v032
	.byte	W06
	.byte		N06	, Fs0, v100
	.byte	W06
	.byte			Gs1, v112
	.byte	W06
	.byte		N12	, Cn3, v060
	.byte	W12
	.byte		N06	, Gs1, v112
	.byte	W06
	.byte		N12	, Cn3, v052
	.byte		N12	, Dn3, v032
	.byte	W12
	.byte		N06	, Fs0, v112
	.byte	W06
	.byte			Gs1, v100
	.byte	W06
	.byte			Gs1, v112
	.byte	W06
	.byte		N12	, Cn3, v060
	.byte	W12
	.byte		N06	, Gs1, v112
	.byte		N24	, Cs3, v040
	.byte	W06
	.byte		N06	, Fs0, v100
	.byte	W06
	.byte			Gs1, v112
	.byte	W06
	.byte			Cn3, v052
	.byte		N12	, Dn3, v032
	.byte	W06
	.byte		N06	, Fs0, v100
	.byte	W06
	.byte			Gs1, v112
	.byte	W06
	.byte		N12	, Cn3, v060
	.byte	W12
	.byte		N06	, Gs1, v112
	.byte	W06
	.byte		N12	, Cn3, v052
	.byte		N12	, Dn3, v032
	.byte	W12
	.byte		N06	, Fs0, v112
	.byte	W06
	.byte			Gs1, v100
	.byte		N12	, Dn3, v032
	.byte	W06
	.byte		N06	, Gs1, v112
	.byte	W06
	.byte		N12	, Cn3, v060
	.byte	W12
	.byte		N06	, Gs1, v112
	.byte	W06
	.byte			Fs0, v100
	.byte	W06
	.byte			Gs1, v112
	.byte	W06
	.byte			Cn3, v052
	.byte		N12	, Dn3, v032
	.byte	W06
	.byte		N06	, Fs0, v100
	.byte	W06
	.byte			Gs1, v112
	.byte	W06
	.byte		N12	, Cn3, v060
	.byte		N12	, Dn3, v032
	.byte	W12
	.byte		N06	, Gs1, v112
	.byte	W06
	.byte		N12	, Cn3, v052
	.byte	W12
	.byte		N06	, Fs0, v112
	.byte	W06
	.byte			Gs1, v100
	.byte		N12	, Dn3, v032
	.byte	W06
	.byte		N06	, Gs1, v112
	.byte	W06
	.byte		N12	, Cn3, v060
	.byte	W12
	.byte		N06	, Gs1, v112
	.byte	W06
	.byte			Fs0, v100
	.byte	W06
	.byte			Gs1, v112
	.byte	W06
	.byte			Cn3, v052
	.byte		N12	, Dn3, v032
	.byte	W06
	.byte		N06	, Fs0, v100
	.byte	W06
	.byte			Gs1, v112
	.byte	W06
	.byte		N12	, Cn3, v060
	.byte		N12	, Dn3, v032
	.byte	W12
	.byte		N06	, Gs1, v112
	.byte	W06
	.byte			Cn1, v092
	.byte	W06
	.byte			Bn0, v100
	.byte	W06
	.byte			Gn0, v112
	.byte	W06
	.byte			Cn3, v080
	.byte	W06
	.byte			Cn3, v060
	.byte	W06
	.byte			Cn3, v072
	.byte	W06
	.byte			Cn3, v080
	.byte	W06
mus_dark_mind_second_form_1_4:
	.byte		N06	, Gs1, v112
	.byte		N30	, Cs3, v040
	.byte	W06
	.byte		N06	, Fs0, v100
	.byte	W06
	.byte		N12	, Cn3, v060
	.byte		N12	, Dn3, v032
	.byte	W12
	.byte		N06	, Fs0, v100
	.byte	W06
	.byte			Gs1, v112
	.byte	W06
	.byte		N12	, Cn3, v060
	.byte	W12
	.byte		N06	, Gs1, v112
	.byte	W06
	.byte			Fs0, v100
	.byte	W06
	.byte		N12	, Cn3, v060
	.byte		N12	, Dn3, v032
	.byte	W12
	.byte		N06	, Fs0, v100
	.byte	W06
	.byte			Gs1, v112
	.byte	W06
	.byte		N12	, Cn3, v060
	.byte	W12
	.byte	PEND
mus_dark_mind_second_form_1_3:
	.byte		N06	, Gs1, v112
	.byte	W06
	.byte			Fs0, v100
	.byte	W06
	.byte		N12	, Cn3, v060
	.byte		N12	, Dn3, v032
	.byte	W12
	.byte		N06	, Fs0, v100
	.byte	W06
	.byte			Gs1, v112
	.byte	W06
	.byte		N12	, Cn3, v060
	.byte	W12
	.byte		N06	, Gs1, v112
	.byte	W06
	.byte			Fs0, v100
	.byte	W06
	.byte		N12	, Cn3, v060
	.byte		N12	, Dn3, v032
	.byte	W12
	.byte		N06	, Fs0, v100
	.byte	W06
	.byte			Gs1, v112
	.byte	W06
	.byte		N12	, Cn3, v060
	.byte	W12
	.byte	PEND
	.byte	PATT	
		.word	mus_dark_mind_second_form_1_3
	.byte	PATT	
		.word	mus_dark_mind_second_form_1_3
	.byte	PATT	
		.word	mus_dark_mind_second_form_1_4
	.byte	PATT	
		.word	mus_dark_mind_second_form_1_3
	.byte	PATT	
		.word	mus_dark_mind_second_form_1_3
	.byte		N06	, Cn3, v072
	.byte		N30	, Cs3, v036
	.byte	W06
	.byte		N06	, Gs1, v100
	.byte	W06
	.byte			Gs1, v112
	.byte	W06
	.byte			Cn3, v072
	.byte	W06
	.byte			Gs1, v100
	.byte	W06
	.byte			Gs1, v112
	.byte	W06
	.byte		N30	, Cs1, v036
	.byte		N06	, Cn3, v072
	.byte	W06
	.byte			Gs1, v100
	.byte	W06
	.byte			Gs1, v112
	.byte	W06
	.byte			Cn3, v072
	.byte	W06
	.byte			Gs1, v100
	.byte	W06
	.byte			Gs1, v112
	.byte	W06
	.byte			Cn3, v072
	.byte		N24	, Cs3, v036
	.byte	W06
	.byte		N06	, Cn3, v076
	.byte	W06
	.byte			Cn3, v080
	.byte	W12
	.byte	GOTO	
		.word	mus_dark_mind_second_form_1_5
	.byte	W96
	.byte	FINE

	@********************** Track  2 **********************@

	.global mus_dark_mind_second_form_2
mus_dark_mind_second_form_2:	@ 0x08D49E2D
	.byte	KEYSH	, 0
	.byte	VOICE	, 68
	.byte	VOL	, v096
	.byte	PAN	, c_v
	.byte	MOD	, 2
	.byte	BEND	, c_v
	.byte		N04	, Gs2, v120
	.byte	W06
	.byte		N06	, Gs3, v092
	.byte	W06
	.byte		N04	, Gs2, v120
	.byte	W06
	.byte			An2
	.byte	W06
	.byte		N10	, An3, v092
	.byte	W12
	.byte		N04	, As2, v120
	.byte	W06
	.byte		N10	, As3, v092
	.byte	W12
	.byte		N04	, Bn2, v120
	.byte	W06
	.byte		N06	, Bn3, v092
	.byte	W06
	.byte		N04	, Bn2, v120
	.byte	W06
	.byte			Cn4, v092
	.byte	W06
	.byte		N10	, Cn3, v120
	.byte	W12
	.byte		N04	
	.byte	W06
	.byte			Fn2
	.byte	W06
	.byte			Fs3, v092
	.byte	W06
	.byte			Fs2, v120
	.byte	W06
	.byte		N10	, Gn2
	.byte	W12
	.byte			Gs2
	.byte	W12
	.byte		N04	, An2
	.byte	W06
	.byte			An3, v092
	.byte	W06
	.byte			Fn2, v120
	.byte	W06
	.byte		N10	, Fn3, v100
	.byte	W12
	.byte		N06	, Gn2, v120
	.byte	W06
	.byte		N04	, Gn3, v092
	.byte	W06
	.byte		N06	, Gs3, v120
	.byte	W06
	.byte		N04	, An3, v092
	.byte	W06
	.byte	VOICE	, 68
mus_dark_mind_second_form_2_9:
	.byte	VOL	, v078
	.byte		N04	, As2, v120
	.byte	W06
	.byte			As2, v108
	.byte	W06
	.byte		N03	
	.byte	W06
	.byte		N03	
	.byte	W06
	.byte		N04	, As2, v120
	.byte	W06
	.byte			Gs2
	.byte	W06
	.byte			An2, v116
	.byte	W06
	.byte		N09	, As2, v120
	.byte	W12
	.byte		N04	, As2, v108
	.byte	W06
	.byte		N03	, As2, v120
	.byte	W06
	.byte		N03	
	.byte	W06
	.byte		N04	
	.byte	W06
	.byte			Gs2
	.byte	W06
	.byte			An2, v112
	.byte	W06
	.byte			As2, v108
	.byte	W06
mus_dark_mind_second_form_2_1:
	.byte		N04	, Gs2, v120
	.byte	W06
	.byte			Gs2, v108
	.byte	W06
	.byte		N03	
	.byte	W06
	.byte		N03	
	.byte	W06
	.byte		N04	, Gs2, v120
	.byte	W06
	.byte			Fs2
	.byte	W06
	.byte			Gn2, v116
	.byte	W06
	.byte		N09	, Gs2, v120
	.byte	W12
	.byte		N04	, Gs2, v108
	.byte	W06
	.byte		N03	, Gs2, v120
	.byte	W06
	.byte		N03	
	.byte	W06
	.byte		N04	
	.byte	W06
	.byte			Fs2
	.byte	W06
	.byte			Gn2, v112
	.byte	W06
	.byte			Gs2, v108
	.byte	W06
	.byte	PEND
mus_dark_mind_second_form_2_2:
	.byte		N04	, Gn2, v120
	.byte	W06
	.byte			Gn2, v108
	.byte	W06
	.byte		N03	
	.byte	W06
	.byte		N03	
	.byte	W06
	.byte		N04	, Gn2, v120
	.byte	W06
	.byte			Fn2
	.byte	W06
	.byte			Fs2, v116
	.byte	W06
	.byte		N09	, Gn2, v120
	.byte	W12
	.byte		N04	, Gn2, v108
	.byte	W06
	.byte		N03	, Gn2, v120
	.byte	W06
	.byte		N03	
	.byte	W06
	.byte		N04	
	.byte	W06
	.byte			Fn2
	.byte	W06
	.byte			Fs2, v112
	.byte	W06
	.byte			Gn2, v108
	.byte	W06
	.byte	PEND
mus_dark_mind_second_form_2_3:
	.byte		N04	, Fs2, v120
	.byte	W06
	.byte			Fs2, v108
	.byte	W06
	.byte		N03	
	.byte	W06
	.byte		N03	
	.byte	W06
	.byte		N04	, Fs2, v120
	.byte	W06
	.byte			Fn2
	.byte	W06
	.byte			Fs2, v116
	.byte	W06
	.byte		N09	, Gs2, v120
	.byte	W12
	.byte		N04	, Gs2, v108
	.byte	W06
	.byte		N03	, Gs2, v120
	.byte	W06
	.byte			Ds2
	.byte	W06
	.byte		N04	, Gs2
	.byte	W06
	.byte			Ds2
	.byte	W06
	.byte			Cn3, v112
	.byte	W06
	.byte			Gs2, v108
	.byte	W06
	.byte	PEND
	.byte			As2, v120
	.byte	W06
	.byte			As2, v108
	.byte	W06
	.byte		N03	
	.byte	W06
	.byte		N03	
	.byte	W06
	.byte		N04	, As2, v120
	.byte	W06
	.byte			Gs2
	.byte	W06
	.byte			An2, v116
	.byte	W06
	.byte		N09	, As2, v120
	.byte	W12
	.byte		N04	, As2, v108
	.byte	W06
	.byte		N03	, As2, v120
	.byte	W06
	.byte		N03	
	.byte	W06
	.byte		N04	
	.byte	W06
	.byte			Gs2
	.byte	W06
	.byte			An2, v112
	.byte	W06
	.byte			As2, v108
	.byte	W06
	.byte	PATT	
		.word	mus_dark_mind_second_form_2_1
	.byte	PATT	
		.word	mus_dark_mind_second_form_2_2
	.byte	PATT	
		.word	mus_dark_mind_second_form_2_3
mus_dark_mind_second_form_2_4:
	.byte		N03	, As2, v120
	.byte	W06
	.byte			As2, v108
	.byte	W06
	.byte			As3, v072
	.byte	W06
	.byte			As2, v108
	.byte	W06
	.byte			As2, v120
	.byte	W06
	.byte			Gs2
	.byte	W06
	.byte			An2, v116
	.byte	W06
	.byte		N10	, As2, v120
	.byte	W12
	.byte		N03	, As2, v108
	.byte	W06
	.byte			As3, v100
	.byte	W06
	.byte			As2, v120
	.byte	W06
	.byte		N03	
	.byte	W06
	.byte			Gs2
	.byte	W06
	.byte			An2, v112
	.byte	W06
	.byte			As2, v108
	.byte	W06
	.byte	PEND
mus_dark_mind_second_form_2_5:
	.byte		N03	, An2, v120
	.byte	W06
	.byte			An2, v108
	.byte	W06
	.byte			An3, v072
	.byte	W06
	.byte			An2, v108
	.byte	W06
	.byte			An2, v120
	.byte	W06
	.byte			Gn2
	.byte	W06
	.byte			Gs2, v116
	.byte	W06
	.byte		N10	, An2, v120
	.byte	W12
	.byte		N03	, An2, v108
	.byte	W06
	.byte			An2, v112
	.byte	W06
	.byte			An3, v100
	.byte	W06
	.byte			An2, v120
	.byte	W06
	.byte		N04	, Gn2
	.byte	W06
	.byte			Gs2, v112
	.byte	W06
	.byte			An2, v108
	.byte	W06
	.byte	PEND
mus_dark_mind_second_form_2_6:
	.byte		N03	, Gs2, v120
	.byte	W06
	.byte			Gs2, v108
	.byte	W06
	.byte			Gs3, v072
	.byte	W06
	.byte			Gs2, v108
	.byte	W06
	.byte			Gs2, v120
	.byte	W06
	.byte			Fs2
	.byte	W06
	.byte			Gn2, v116
	.byte	W06
	.byte		N10	, Gs2, v120
	.byte	W12
	.byte		N03	, Gs2, v108
	.byte	W06
	.byte			Gs3, v100
	.byte	W06
	.byte			Gs2, v120
	.byte	W06
	.byte		N03	
	.byte	W06
	.byte			Fs2
	.byte	W06
	.byte			Gn2, v112
	.byte	W06
	.byte			Gs2, v108
	.byte	W06
	.byte	PEND
	.byte			Gn2, v120
	.byte	W06
	.byte			Gn2, v108
	.byte	W06
	.byte			Gn3, v072
	.byte	W06
	.byte			Gn2, v108
	.byte	W06
	.byte			Gn2, v120
	.byte	W06
	.byte			Fn2
	.byte	W06
	.byte			Fs2, v116
	.byte	W06
	.byte		N10	, Gn2, v120
	.byte	W12
	.byte		N03	, Gn2, v108
	.byte	W06
	.byte			Gn2, v120
	.byte	W06
	.byte			Gn3, v092
	.byte	W06
	.byte			Gn2, v120
	.byte	W06
	.byte		N04	
	.byte	W06
	.byte			Gn3, v100
	.byte	W06
	.byte			Gn2, v108
	.byte	W06
	.byte	PATT	
		.word	mus_dark_mind_second_form_2_4
	.byte	PATT	
		.word	mus_dark_mind_second_form_2_5
	.byte	PATT	
		.word	mus_dark_mind_second_form_2_6
	.byte		N03	, Gn2, v120
	.byte	W06
	.byte			Gn2, v108
	.byte	W06
	.byte			Gn3, v072
	.byte	W06
	.byte			Gn2, v108
	.byte	W06
	.byte			Gn2, v120
	.byte	W06
	.byte			Fn2
	.byte	W06
	.byte			Fs2, v116
	.byte	W06
	.byte		N10	, Gn2, v120
	.byte	W12
	.byte		N03	, Gn2, v108
	.byte	W06
	.byte			Gn3, v092
	.byte	W06
	.byte			Gn2, v120
	.byte	W06
	.byte		N04	, Gs2
	.byte	W06
	.byte			Gs3, v100
	.byte	W06
	.byte			An2, v120
	.byte	W06
	.byte			An3, v080
	.byte	W06
mus_dark_mind_second_form_2_7:
	.byte		N03	, As2, v116
	.byte	W06
	.byte			As2, v072
	.byte	W06
	.byte		N03	
	.byte	W06
	.byte			As2, v116
	.byte	W06
	.byte			As2, v072
	.byte	W06
	.byte		N03	
	.byte	W06
	.byte			As2, v116
	.byte	W06
	.byte			As2, v072
	.byte	W06
	.byte		N03	
	.byte	W06
	.byte			As2, v116
	.byte	W06
	.byte			As2, v072
	.byte	W06
	.byte		N03	
	.byte	W06
	.byte			As2, v116
	.byte	W06
	.byte			Gs2
	.byte	W06
	.byte			An2
	.byte	W06
	.byte			As2
	.byte	W06
	.byte	PEND
mus_dark_mind_second_form_2_8:
	.byte		N03	, Bn2, v116
	.byte	W06
	.byte			Bn2, v072
	.byte	W06
	.byte		N03	
	.byte	W06
	.byte			Bn2, v116
	.byte	W06
	.byte			Bn2, v072
	.byte	W06
	.byte		N03	
	.byte	W06
	.byte			Bn2, v116
	.byte	W06
	.byte			Bn2, v072
	.byte	W06
	.byte		N03	
	.byte	W06
	.byte			Bn2, v116
	.byte	W06
	.byte			Bn2, v072
	.byte	W06
	.byte		N03	
	.byte	W06
	.byte			Bn2, v116
	.byte	W06
	.byte			An2
	.byte	W06
	.byte			As2
	.byte	W06
	.byte			Bn2
	.byte	W06
	.byte	PEND
	.byte	PATT	
		.word	mus_dark_mind_second_form_2_7
	.byte	PATT	
		.word	mus_dark_mind_second_form_2_8
	.byte		N03	, As2, v116
	.byte	W06
	.byte			As2, v072
	.byte	W06
	.byte		N03	
	.byte	W06
	.byte			As2, v116
	.byte	W06
	.byte			As2, v072
	.byte	W06
	.byte			Gs2, v112
	.byte	W06
	.byte			An2
	.byte	W06
	.byte		N09	, As2
	.byte	W12
	.byte		N03	, As2, v116
	.byte	W06
	.byte			As2, v072
	.byte	W06
	.byte		N03	
	.byte	W06
	.byte			As2, v116
	.byte	W06
	.byte			Gs2
	.byte	W06
	.byte			An2
	.byte	W06
	.byte			As2
	.byte	W06
	.byte			Bn2
	.byte	W06
	.byte			Bn2, v072
	.byte	W06
	.byte		N03	
	.byte	W06
	.byte			Bn2, v116
	.byte	W06
	.byte			Bn2, v072
	.byte	W06
	.byte			An2, v112
	.byte	W06
	.byte			As2
	.byte	W06
	.byte		N09	, Bn2
	.byte	W12
	.byte		N03	, Bn2, v116
	.byte	W06
	.byte			Bn2, v072
	.byte	W06
	.byte		N03	
	.byte	W06
	.byte			Bn2, v116
	.byte	W06
	.byte			An2
	.byte	W06
	.byte			As2
	.byte	W06
	.byte			Bn2
	.byte	W06
	.byte			As2
	.byte	W06
	.byte			As2, v072
	.byte	W06
	.byte		N03	
	.byte	W06
	.byte			As2, v116
	.byte	W06
	.byte			As2, v072
	.byte	W06
	.byte			Gs2, v112
	.byte	W06
	.byte			An2
	.byte	W06
	.byte		N09	, As2
	.byte	W12
	.byte		N03	, As3, v100
	.byte	W06
	.byte			As2, v072
	.byte	W06
	.byte		N03	
	.byte	W06
	.byte			As2, v116
	.byte	W06
	.byte			Gs2
	.byte	W06
	.byte			An2
	.byte	W06
	.byte			As2
	.byte	W06
	.byte		N04	, Gn2, v112
	.byte	W06
	.byte			Gn3, v080
	.byte	W06
	.byte		N03	, Gn2, v100
	.byte	W06
	.byte		N04	, Gs2, v112
	.byte	W06
	.byte			Gs3, v088
	.byte	W06
	.byte		N03	, Gs2, v100
	.byte	W06
	.byte		N04	, An2, v112
	.byte	W06
	.byte			An3, v092
	.byte	W06
	.byte		N03	, An2, v100
	.byte	W06
	.byte		N04	, As2, v112
	.byte	W06
	.byte			As3, v096
	.byte	W06
	.byte		N03	, As2, v100
	.byte	W06
	.byte		N04	, Bn2, v112
	.byte	W06
	.byte		N03	, Bn3, v100
	.byte	W06
	.byte		N04	, Cn3, v112
	.byte	W06
	.byte		N03	, Cn4, v092
	.byte	W06
	.byte	GOTO	
		.word	mus_dark_mind_second_form_2_9
	.byte	W96
	.byte	FINE

	@********************** Track  3 **********************@

	.global mus_dark_mind_second_form_3
mus_dark_mind_second_form_3:	@ 0x08D4A195
	.byte	KEYSH	, 0
	.byte	VOICE	, 39
	.byte	VOL	, v110
	.byte	PAN	, c_v
	.byte	BEND	, c_v
	.byte	W03
	.byte	MOD	, 1
	.byte	LFOS	, 27
	.byte	LFODL	, 23
	.byte	W03
	.byte	PAN	, c_v-10
	.byte		N09	, Dn3, v072
	.byte	W12
	.byte		N04	, Dn3, v040
	.byte	W06
	.byte	PAN	, c_v+10
	.byte		N09	, Ds3, v076
	.byte	W12
	.byte		N04	, Ds3, v040
	.byte	W06
	.byte	PAN	, c_v-10
	.byte		N09	, En3, v080
	.byte	W12
	.byte		N04	, En3, v048
	.byte	W06
	.byte	PAN	, c_v+10
	.byte		N09	, Fn3, v088
	.byte	W12
	.byte		N04	, Fn3, v048
	.byte	W06
	.byte	PAN	, c_v-10
	.byte		N09	, Fs3, v092
	.byte	W12
	.byte		N04	, Fs3, v048
	.byte	W06
	.byte	W06
	.byte	PAN	, c_v+10
	.byte		N09	, Fs3, v060
	.byte	W12
	.byte	PAN	, c_v-10
	.byte		N09	, Fs3, v052
	.byte	W12
	.byte	PAN	, c_v+20
	.byte		N09	
	.byte	W12
	.byte	PAN	, c_v-30
	.byte		N09	, Fs3, v040
	.byte	W12
	.byte	PAN	, c_v+30
	.byte		N09	, Fs3, v032
	.byte	W42
	.byte	VOICE	, 23
mus_dark_mind_second_form_3_5:
	.byte	VOL	, v073
	.byte	MOD	, 10
	.byte	PAN	, c_v
	.byte		N18	, Cs3, v072
	.byte	W18
	.byte		N06	, As2, v060
	.byte	W12
	.byte		N04	, As2, v040
	.byte	W06
	.byte		N40	, As2, v060
	.byte	W42
	.byte		N06	, Gs2
	.byte	W06
	.byte			As2
	.byte	W06
	.byte			Gs2
	.byte	W06
mus_dark_mind_second_form_3_1:
	.byte		N18	, Cs3, v060
	.byte	W18
	.byte		N06	, As2
	.byte	W12
	.byte		N04	, As2, v040
	.byte	W06
	.byte		N40	, As2, v060
	.byte	W42
	.byte		N06	, Gs2
	.byte	W06
	.byte			As2
	.byte	W06
	.byte		N04	, Ds3
	.byte	W06
	.byte	PEND
mus_dark_mind_second_form_3_2:
	.byte		N18	, Cs3, v060
	.byte	W18
	.byte		N06	, Cn3
	.byte	W12
	.byte		N04	, Ds3, v040
	.byte	W06
	.byte		N40	, As2, v060
	.byte	W42
	.byte		N06	, Gs2
	.byte	W06
	.byte			As2
	.byte	W06
	.byte		N04	, Gs2
	.byte	W06
	.byte	PEND
	.byte		N16	, Fs2
	.byte	W18
	.byte		N04	, Gs2
	.byte	W12
	.byte		N06	, As2
	.byte	W12
	.byte		N03	, Fs2
	.byte	W06
	.byte		N16	, Gs2
	.byte	W18
	.byte	BEND	, c_v-22
	.byte		N24	, Cn3
	.byte	W03
	.byte	BEND	, c_v
	.byte	W24
	.byte	W03
	.byte	VOICE	, 23
	.byte	PAN	, c_v
	.byte	VOL	, v064
	.byte	MOD	, 10
	.byte	LFODL	, 24
	.byte	LFOS	, 27
	.byte		N18	, Cs3
	.byte	W18
	.byte		N06	, As2
	.byte	W12
	.byte		N04	, As2, v040
	.byte	W06
	.byte		N40	, As2, v060
	.byte	W42
	.byte		N06	, Gs2
	.byte	W06
	.byte			As2
	.byte	W06
	.byte			Gs2
	.byte	W06
	.byte	PATT	
		.word	mus_dark_mind_second_form_3_1
	.byte	PATT	
		.word	mus_dark_mind_second_form_3_2
	.byte		N16	, Fs2, v060
	.byte	W18
	.byte		N04	, Gs2
	.byte	W12
	.byte		N06	, As2
	.byte	W12
	.byte		N03	, Fs2
	.byte	W06
	.byte		N16	, Gs2
	.byte	W18
	.byte		N04	, As2
	.byte	W06
	.byte			Cn3, v068
	.byte	W06
	.byte			Cs3, v072
	.byte	W06
	.byte			Cn3, v068
	.byte	W06
	.byte			Gs2, v072
	.byte	W06
	.byte	VOICE	, 23
	.byte	PAN	, c_v+10
	.byte	VOL	, v036
	.byte	MOD	, 10
	.byte	LFODL	, 28
	.byte	LFOS	, 25
	.byte		N92	, Ds4, v040
	.byte	W96
	.byte		N96	
	.byte	W96
	.byte		N96	
	.byte	W96
	.byte		N92	
	.byte	W96
	.byte	PAN	, c_v
	.byte	VOL	, v036
	.byte		N92	
	.byte	W96
	.byte		N96	
	.byte	W96
	.byte		N96	
	.byte	W96
	.byte		N44	
	.byte	W48
	.byte		N22	, Gs4, v052
	.byte	W24
	.byte			An4, v056
	.byte	W24
	.byte	VOICE	, 6
	.byte	VOL	, v046
	.byte	PAN	, c_v
	.byte		N16	, As2, v060
	.byte	W01
	.byte	MOD	, 5
	.byte	LFOS	, 28
	.byte	LFODL	, 12
	.byte	W17
	.byte		N16	, Cs3, v072
	.byte	W18
	.byte		N56	, Cs3, v060
	.byte	W24
	.byte	MOD	, 10
	.byte	W18
	.byte		15
	.byte	W18
mus_dark_mind_second_form_3_4:
	.byte		N16	, Bn2, v060
	.byte	W01
	.byte	MOD	, 5
	.byte	W17
	.byte		N16	, Dn3, v072
	.byte	W18
	.byte		N56	, Dn3, v060
	.byte	W24
	.byte	MOD	, 10
	.byte	W18
	.byte		15
	.byte	W18
	.byte	PEND
mus_dark_mind_second_form_3_3:
	.byte		N16	, As2, v060
	.byte	W01
	.byte	MOD	, 5
	.byte	W17
	.byte		N16	, Cs3, v072
	.byte	W18
	.byte		N56	, Cs3, v060
	.byte	W24
	.byte	MOD	, 10
	.byte	W18
	.byte		15
	.byte	W18
	.byte	PEND
	.byte		N16	, Bn2
	.byte	W01
	.byte	MOD	, 5
	.byte	W17
	.byte		N16	, Dn3, v072
	.byte	W18
	.byte		N40	, Dn3, v060
	.byte	W12
	.byte	MOD	, 10
	.byte	W12
	.byte		15
	.byte	W18
	.byte		N06	, En3, v072
	.byte	W06
	.byte			Dn3, v060
	.byte	W06
	.byte		N04	, Bn2, v072
	.byte	W06
	.byte	PATT	
		.word	mus_dark_mind_second_form_3_3
	.byte	PATT	
		.word	mus_dark_mind_second_form_3_4
	.byte	PATT	
		.word	mus_dark_mind_second_form_3_3
	.byte	VOICE	, 39
	.byte	LFODL	, 16
	.byte	LFOS	, 29
	.byte	MOD	, 1
	.byte	VOL	, v110
	.byte	PAN	, c_v
	.byte	BEND	, c_v
	.byte		N09	, Gn3, v076
	.byte	W12
	.byte		N06	, Gn3, v020
	.byte	W06
	.byte		N09	, Gs3, v076
	.byte	W12
	.byte		N06	, Gs3, v020
	.byte	W06
	.byte		N09	, An3, v076
	.byte	W12
	.byte		N06	, An3, v020
	.byte	W06
	.byte		N09	, As3, v076
	.byte	W12
	.byte		N06	, As3, v020
	.byte	W06
	.byte			Bn3, v076
	.byte	W12
	.byte			Cn4
	.byte	W06
	.byte	VOICE	, 23
	.byte	PAN	, c_v
	.byte	VOL	, v073
	.byte	W03
	.byte	MOD	, 10
	.byte	LFOS	, 27
	.byte	LFODL	, 24
	.byte	W03
	.byte	GOTO	
		.word	mus_dark_mind_second_form_3_5
	.byte	W96
	.byte	FINE

	@********************** Track  4 **********************@

	.global mus_dark_mind_second_form_4
mus_dark_mind_second_form_4:	@ 0x08D4A38D
	.byte	KEYSH	, 0
	.byte	VOICE	, 24
	.byte	VOL	, v046
	.byte	PAN	, c_v
	.byte	BEND	, c_v
	.byte	W03
	.byte	MOD	, 5
	.byte	LFOS	, 29
	.byte	LFODL	, 5
	.byte	W03
	.byte		N16	, Bn3, v040
	.byte	W18
	.byte			Cn4, v048
	.byte	W18
	.byte			Cs4, v052
	.byte	W18
	.byte		N09	, Dn4, v056
	.byte	W18
	.byte		TIE	, Ds4, v060
	.byte	W15
	.byte	MOD	, 10
	.byte	W03
	.byte	W12
	.byte		15
	.byte	W15
	.byte		20
	.byte	W15
	.byte		25
	.byte	W15
	.byte		30
	.byte	W32
	.byte	W01
	.byte		EOT	
	.byte	W03
	.byte	MOD	, 15
	.byte	LFOS	, 27
	.byte	LFODL	, 17
	.byte	W03
mus_dark_mind_second_form_4_1:
	.byte	W03
	.byte	VOICE	, 45
	.byte	VOL	, v055
	.byte	W03
	.byte	PAN	, c_v-30
	.byte		N03	, As2, v040
	.byte	W06
	.byte	PAN	, c_v+30
	.byte		N03	
	.byte	W06
	.byte	PAN	, c_v-30
	.byte		N03	, Cs3
	.byte	W12
	.byte	PAN	, c_v+30
	.byte		N03	, Gs2
	.byte	W12
	.byte	PAN	, c_v-30
	.byte		N03	, As2
	.byte	W12
	.byte	PAN	, c_v+30
	.byte		N03	, Gs2
	.byte	W12
	.byte	PAN	, c_v-30
	.byte		N03	
	.byte	W06
	.byte	PAN	, c_v+30
	.byte		N03	, Cs3, v028
	.byte	W06
	.byte			Cs3, v040
	.byte	W06
	.byte	PAN	, c_v-30
	.byte		N03	, As2, v028
	.byte	W06
	.byte			As2, v040
	.byte	W06
	.byte	W06
	.byte	PAN	, c_v-30
	.byte		N03	, Cs3
	.byte	W06
	.byte	PAN	, c_v+30
	.byte		N03	, Cs3, v020
	.byte	W06
	.byte	PAN	, c_v-30
	.byte		N03	, As2, v040
	.byte	W12
	.byte	PAN	, c_v+30
	.byte		N03	, Gs2
	.byte	W12
	.byte	PAN	, c_v-30
	.byte		N03	, As2
	.byte	W12
	.byte	PAN	, c_v+30
	.byte		N03	, Gs2
	.byte	W06
	.byte	PAN	, c_v-30
	.byte		N03	, As2
	.byte	W06
	.byte	PAN	, c_v+30
	.byte		N03	, Gs2
	.byte	W06
	.byte	PAN	, c_v-30
	.byte		N03	, Ds3, v028
	.byte	W06
	.byte			Ds3, v040
	.byte	W06
	.byte	PAN	, c_v+30
	.byte		N03	, Cs3, v028
	.byte	W06
	.byte			Cs3, v040
	.byte	W06
	.byte	W06
	.byte	PAN	, c_v-30
	.byte		N03	, As2
	.byte	W06
	.byte	PAN	, c_v+30
	.byte		N03	
	.byte	W06
	.byte	PAN	, c_v-30
	.byte		N03	, Gs2
	.byte	W12
	.byte	PAN	, c_v+30
	.byte		N03	, Cs3
	.byte	W12
	.byte	PAN	, c_v-30
	.byte		N03	, As2
	.byte	W12
	.byte	PAN	, c_v+30
	.byte		N03	, Gs2
	.byte	W12
	.byte	PAN	, c_v-30
	.byte		N03	
	.byte	W06
	.byte	PAN	, c_v+30
	.byte		N03	, Cs3, v028
	.byte	W06
	.byte			Cs3, v040
	.byte	W06
	.byte	PAN	, c_v-30
	.byte		N03	, As2, v028
	.byte	W06
	.byte			As2, v040
	.byte	W06
	.byte	W06
	.byte	PAN	, c_v-30
	.byte		N03	, Cs3
	.byte	W06
	.byte	PAN	, c_v+30
	.byte		N03	
	.byte	W06
	.byte	PAN	, c_v-30
	.byte		N03	, As2
	.byte	W12
	.byte	PAN	, c_v+30
	.byte		N03	, Gs2
	.byte	W12
	.byte	PAN	, c_v-30
	.byte		N03	, As2
	.byte	W12
	.byte	PAN	, c_v+30
	.byte		N03	, Gs2
	.byte	W12
	.byte	PAN	, c_v-30
	.byte		N03	
	.byte	W06
	.byte	PAN	, c_v+30
	.byte		N03	, Cn3, v028
	.byte	W06
	.byte			Cn3, v040
	.byte	W06
	.byte	PAN	, c_v-30
	.byte		N03	, Gs2, v028
	.byte	W06
	.byte			Gs2, v040
	.byte	W06
	.byte	VOICE	, 23
	.byte	PAN	, c_v+20
	.byte	VOL	, v064
	.byte	MOD	, 7
	.byte	LFODL	, 10
	.byte	LFOS	, 24
	.byte		N18	, As2, v060
	.byte	W18
	.byte		N06	, Fn2
	.byte	W12
	.byte		N04	, Fn2, v028
	.byte	W06
	.byte		N40	, Fn2, v060
	.byte	W60
	.byte		N18	, As2
	.byte	W18
	.byte		N06	, Fn2
	.byte	W12
	.byte		N04	, Fn2, v028
	.byte	W06
	.byte		N40	, Fn2, v060
	.byte	W60
	.byte		N18	, As2
	.byte	W18
	.byte		N06	, Gs2
	.byte	W12
	.byte		N04	, As2, v028
	.byte	W06
	.byte		N40	, Fn2, v060
	.byte	W60
	.byte	W48
	.byte		N16	, Ds2
	.byte	W18
	.byte		N04	, Fn2
	.byte	W06
	.byte			Gs2, v068
	.byte	W06
	.byte			As2, v072
	.byte	W06
	.byte			Gs2, v068
	.byte	W06
	.byte			Ds2, v072
	.byte	W06
	.byte	VOICE	, 6
	.byte	PAN	, c_v-10
	.byte	VOL	, v036
	.byte	MOD	, 10
	.byte	LFODL	, 27
	.byte	LFOS	, 28
	.byte		N92	, Cs4, v048
	.byte	W96
	.byte		N96	
	.byte	W96
	.byte		N96	
	.byte	W96
	.byte		N92	
	.byte	W96
	.byte	VOICE	, 35
	.byte	VOL	, v027
	.byte	PAN	, c_v+10
	.byte	W03
	.byte	MOD	, 10
	.byte	LFOS	, 24
	.byte	LFODL	, 17
	.byte	W09
	.byte		N03	, As4, v056
	.byte	W04
	.byte		N01	, As4, v032
	.byte	W02
	.byte		N10	, As4, v056
	.byte	W12
	.byte		N06	, Cn5
	.byte	W06
	.byte		N03	, Cs5
	.byte	W04
	.byte		N01	, Cs5, v032
	.byte	W02
	.byte		N03	, Ds5, v056
	.byte	W04
	.byte		N01	, Ds5, v032
	.byte	W02
	.byte	BEND	, c_v-20
	.byte		N06	, Fn5, v056
	.byte	W03
	.byte	BEND	, c_v
	.byte	W03
	.byte		N06	, Ds5
	.byte	W09
	.byte		N03	, Ds5, v032
	.byte	W03
	.byte		N06	, Cs5, v056
	.byte	W09
	.byte		N03	, Cs5, v032
	.byte	W03
	.byte		N18	, As4, v056
	.byte	W18
	.byte	BEND	, c_v-22
	.byte		N06	, An4
	.byte	W03
	.byte	BEND	, c_v
	.byte	W03
	.byte		N04	, Ds4
	.byte	W06
	.byte		N03	, Fn4
	.byte	W06
	.byte			An4
	.byte	W09
	.byte			An4, v032
	.byte	W03
	.byte		N06	, Cn5, v056
	.byte	W09
	.byte		N03	, Cn5, v032
	.byte	W03
	.byte	BEND	, c_v-22
	.byte		N06	, Fn5, v056
	.byte	W03
	.byte	BEND	, c_v
	.byte	W06
	.byte		N03	, Fn5, v032
	.byte	W03
	.byte		N04	, Cn5, v056
	.byte	W09
	.byte		N03	, Cn5, v032
	.byte	W03
	.byte		N04	, An4, v056
	.byte	W09
	.byte		N03	, An4, v032
	.byte	W03
	.byte		N10	, Fn4, v056
	.byte	W13
	.byte		N04	, Fn4, v032
	.byte	W05
	.byte	W12
	.byte		N03	, Gs4, v056
	.byte	W04
	.byte		N01	, Gs4, v032
	.byte	W02
	.byte		N03	, Gs4, v056
	.byte	W04
	.byte		N01	, Gs4, v032
	.byte	W02
	.byte		N06	, Gs4, v056
	.byte	W06
	.byte			As4
	.byte	W06
	.byte		N03	, Cn5
	.byte	W06
	.byte	BEND	, c_v-22
	.byte		N04	, Gs4
	.byte	W01
	.byte	BEND	, c_v
	.byte	W08
	.byte		N03	, Gs4, v032
	.byte	W03
	.byte		N06	, Ds4, v056
	.byte	W09
	.byte		N03	, Ds4, v032
	.byte	W03
	.byte		N06	, Cn4, v056
	.byte	W09
	.byte		N03	, Cn4, v032
	.byte	W03
	.byte	BEND	, c_v-22
	.byte		N10	, Ds4, v056
	.byte	W03
	.byte	BEND	, c_v
	.byte	W09
	.byte		N04	, Cn4
	.byte	W06
	.byte		N06	, Dn4
	.byte	W06
	.byte			Ds4
	.byte	W06
	.byte		N03	, Fn4
	.byte	W06
	.byte	BEND	, c_v-22
	.byte		N04	, As4
	.byte	W01
	.byte	BEND	, c_v
	.byte	W08
	.byte		N03	, As4, v032
	.byte	W03
	.byte		N04	, Fn4, v056
	.byte	W09
	.byte		N03	, Fn4, v032
	.byte	W03
	.byte	BEND	, c_v-22
	.byte		N30	, Dn5, v056
	.byte	W03
	.byte	BEND	, c_v
	.byte	W48
	.byte	W03
	.byte	VOICE	, 23
	.byte	MOD	, 10
	.byte	LFOS	, 27
	.byte	LFODL	, 12
	.byte	VOL	, v059
	.byte	PAN	, c_v-20
	.byte		N96	, As1, v052
	.byte	W96
	.byte			Bn1
	.byte	W96
	.byte			As1
	.byte	W96
	.byte			Bn1
	.byte	W96
	.byte	VOL	, v064
	.byte	PAN	, c_v-10
	.byte		N96	, As1, v060
	.byte	W96
	.byte			Bn1
	.byte	W96
	.byte			As1
	.byte	W96
	.byte	VOICE	, 39
	.byte	PAN	, c_v-10
	.byte	LFODL	, 16
	.byte	LFOS	, 29
	.byte	MOD	, 1
	.byte	VOL	, v055
	.byte	PAN	, c_v-10
	.byte	BEND	, c_v+6
	.byte	W06
	.byte		N09	, Gn3, v076
	.byte	W18
	.byte			Gs3
	.byte	W18
	.byte			An3
	.byte	W18
	.byte			As3
	.byte	W18
	.byte		N06	, Bn3
	.byte	W12
	.byte			Cn4
	.byte	W06
	.byte	GOTO	
		.word	mus_dark_mind_second_form_4_1
	.byte	W96
	.byte	FINE

	@********************** Track  5 **********************@

	.global mus_dark_mind_second_form_5
mus_dark_mind_second_form_5:	@ 0x08D4A63F
	.byte	KEYSH	, 0
	.byte	VOICE	, 24
	.byte	VOL	, v046
	.byte	PAN	, c_v
	.byte	BEND	, c_v
	.byte	W03
	.byte	MOD	, 5
	.byte	LFOS	, 29
	.byte	LFODL	, 5
	.byte	W03
	.byte		N16	, Gs3, v040
	.byte	W18
	.byte			An3, v048
	.byte	W18
	.byte			As3, v052
	.byte	W18
	.byte		N09	, Bn3, v056
	.byte	W18
	.byte		TIE	, Cn4, v060
	.byte	W15
	.byte	MOD	, 10
	.byte	W03
	.byte	W12
	.byte		15
	.byte	W15
	.byte		20
	.byte	W15
	.byte		25
	.byte	W15
	.byte		30
	.byte	W32
	.byte	W01
	.byte		EOT	
	.byte	W06
mus_dark_mind_second_form_5_1:
	.byte	W96
	.byte	W96
	.byte	W96
	.byte	W96
	.byte	W96
	.byte	W96
	.byte	W96
	.byte	W48
	.byte	VOICE	, 7
	.byte	VOL	, v027
	.byte	PAN	, c_v
	.byte	BEND	, c_v
	.byte	W03
	.byte	MOD	, 10
	.byte	LFOS	, 29
	.byte	LFODL	, 13
	.byte	W44
	.byte	W01
	.byte	W12
	.byte	BEND	, c_v-16
	.byte		N06	, Fn4, v052
	.byte	W03
	.byte	BEND	, c_v
	.byte	W03
	.byte		N04	, As4
	.byte	W06
	.byte			As4, v032
	.byte	W06
	.byte	BEND	, c_v-16
	.byte		N06	, Ds5, v052
	.byte	W03
	.byte	BEND	, c_v
	.byte	W06
	.byte		N03	, Ds5, v032
	.byte	W03
	.byte	LFODL	, 19
	.byte		N22	, Cs5, v052
	.byte	W24
	.byte	LFODL	, 13
	.byte		N06	, As4
	.byte	W09
	.byte		N03	, As4, v032
	.byte	W03
	.byte		N15	, Cn5, v052
	.byte	W18
	.byte	BEND	, c_v-16
	.byte		N06	, Cs5
	.byte	W03
	.byte	BEND	, c_v
	.byte	W03
	.byte		N06	, Ds5
	.byte	W09
	.byte		N03	, Ds5, v032
	.byte	W03
	.byte		N06	, Fn5, v052
	.byte	W09
	.byte		N03	, Fn5, v032
	.byte	W03
	.byte		N06	, Cs5, v052
	.byte	W09
	.byte		N03	, Cs5, v032
	.byte	W03
	.byte		N48	, An4, v052
	.byte	W54
	.byte	W12
	.byte		N03	, Fn4
	.byte	W04
	.byte		N01	, Fn4, v032
	.byte	W02
	.byte		N03	, Gn4, v052
	.byte	W04
	.byte		N01	, Gn4, v032
	.byte	W02
	.byte		N04	, Gs4, v052
	.byte	W06
	.byte			As4
	.byte	W06
	.byte		N03	, Cn5
	.byte	W04
	.byte		N01	, Cn5, v032
	.byte	W02
	.byte		N03	, Cs5, v052
	.byte	W04
	.byte		N01	, Cs5, v032
	.byte	W02
	.byte	BEND	, c_v-16
	.byte		N06	, Ds5, v052
	.byte	W03
	.byte	BEND	, c_v
	.byte	W03
	.byte		N04	, Cs5
	.byte	W06
	.byte			Cs5, v032
	.byte	W06
	.byte		N06	, Cn5, v052
	.byte	W09
	.byte		N03	, Cn5, v032
	.byte	W03
	.byte		N16	, Gs4, v052
	.byte	W18
	.byte		N04	, Gn4
	.byte	W06
	.byte			Ds4
	.byte	W06
	.byte			Gn4
	.byte	W06
	.byte		N03	, As4
	.byte	W09
	.byte			As4, v032
	.byte	W03
	.byte		N06	, Ds5, v052
	.byte	W09
	.byte		N03	, Ds5, v032
	.byte	W03
	.byte	BEND	, c_v-32
	.byte		N06	, Gn5, v052
	.byte	W03
	.byte	BEND	, c_v
	.byte	W06
	.byte		N03	, Gn5, v032
	.byte	W03
	.byte		N06	, Ds5, v052
	.byte	W09
	.byte		N03	, Ds5, v032
	.byte	W03
	.byte		N06	, As4, v052
	.byte	W09
	.byte		N03	, As4, v032
	.byte	W03
	.byte		N06	, Gn4, v052
	.byte	W06
	.byte		N12	, Ds4
	.byte	W12
	.byte	VOICE	, 35
	.byte	VOL	, v027
	.byte	PAN	, c_v-10
	.byte	W03
	.byte	MOD	, 10
	.byte	LFOS	, 24
	.byte	LFODL	, 17
	.byte	W09
	.byte		N03	, Fn4, v056
	.byte	W04
	.byte		N01	, Fn4, v032
	.byte	W02
	.byte		N03	, Fn4, v056
	.byte	W04
	.byte		N01	, Fn4, v032
	.byte	W02
	.byte		N06	, Fn4, v056
	.byte	W06
	.byte			An4
	.byte	W06
	.byte		N03	, As4
	.byte	W04
	.byte		N01	, As4, v032
	.byte	W02
	.byte		N03	, Cn5, v056
	.byte	W04
	.byte		N01	, Cn5, v032
	.byte	W02
	.byte	BEND	, c_v-20
	.byte		N06	, Cs5, v056
	.byte	W03
	.byte	BEND	, c_v
	.byte	W03
	.byte		N06	, Cn5
	.byte	W09
	.byte		N03	, Cn5, v032
	.byte	W03
	.byte		N06	, As4, v056
	.byte	W09
	.byte		N03	, As4, v032
	.byte	W03
	.byte		N18	, Fn4, v056
	.byte	W18
	.byte	BEND	, c_v-22
	.byte		N06	
	.byte	W03
	.byte	BEND	, c_v
	.byte	W03
	.byte		N04	, Cn4
	.byte	W06
	.byte		N03	
	.byte	W06
	.byte			Fn4
	.byte	W09
	.byte			Fn4, v032
	.byte	W03
	.byte		N06	, An4, v056
	.byte	W09
	.byte		N03	, An4, v032
	.byte	W03
	.byte	BEND	, c_v-22
	.byte		N06	, Cn5, v056
	.byte	W03
	.byte	BEND	, c_v
	.byte	W06
	.byte		N03	, Cn5, v032
	.byte	W03
	.byte		N04	, An4, v056
	.byte	W09
	.byte		N03	, An4, v032
	.byte	W03
	.byte		N04	, Fn4, v056
	.byte	W09
	.byte		N03	, Fn4, v032
	.byte	W03
	.byte		N10	, Cn4, v056
	.byte	W13
	.byte		N04	, Cn4, v032
	.byte	W05
	.byte	W12
	.byte		N03	, Ds4, v056
	.byte	W04
	.byte		N01	, Ds4, v032
	.byte	W02
	.byte		N03	, Ds4, v056
	.byte	W04
	.byte		N01	, Ds4, v032
	.byte	W02
	.byte		N06	, Ds4, v056
	.byte	W06
	.byte			Gn4
	.byte	W06
	.byte		N03	, Gs4
	.byte	W06
	.byte	BEND	, c_v-22
	.byte		N04	, Ds4
	.byte	W01
	.byte	BEND	, c_v
	.byte	W08
	.byte		N03	, Ds4, v032
	.byte	W03
	.byte		N06	, Cn4, v056
	.byte	W09
	.byte		N03	, Cn4, v032
	.byte	W03
	.byte		N06	, Gs3, v056
	.byte	W09
	.byte		N03	, Gs3, v032
	.byte	W03
	.byte	BEND	, c_v-22
	.byte		N10	, Cn4, v056
	.byte	W03
	.byte	BEND	, c_v
	.byte	W09
	.byte		N04	, Gs3
	.byte	W06
	.byte		N06	, As3
	.byte	W06
	.byte			Cn4
	.byte	W06
	.byte		N03	, Dn4
	.byte	W06
	.byte	BEND	, c_v-22
	.byte		N04	, Fn4
	.byte	W01
	.byte	BEND	, c_v
	.byte	W08
	.byte		N03	, Fn4, v032
	.byte	W03
	.byte		N04	, Dn4, v056
	.byte	W09
	.byte		N03	, Dn4, v032
	.byte	W03
	.byte	BEND	, c_v-22
	.byte		N30	, As4, v056
	.byte	W03
	.byte	BEND	, c_v
	.byte	W48
	.byte	W03
	.byte	VOICE	, 23
	.byte	MOD	, 10
	.byte	LFOS	, 25
	.byte	LFODL	, 20
	.byte	PAN	, c_v+20
	.byte	VOL	, v064
	.byte		N96	, Fn1, v060
	.byte	W96
	.byte			Fs1
	.byte	W96
	.byte			Fn1
	.byte	W96
	.byte			Fs1
	.byte	W96
	.byte	VOICE	, 45
	.byte	W24
	.byte	PAN	, c_v
	.byte	VOL	, v046
	.byte		N03	, As1
	.byte	W04
	.byte			Fn2
	.byte	W04
	.byte			As2
	.byte	W04
	.byte			Ds3
	.byte	W04
	.byte			Fn3
	.byte	W04
	.byte			As3
	.byte	W04
	.byte	PAN	, c_v-20
	.byte	VOL	, v027
	.byte		N03	, As1
	.byte	W04
	.byte			Fn2
	.byte	W04
	.byte			As2
	.byte	W04
	.byte			Ds3
	.byte	W04
	.byte			Fn3
	.byte	W04
	.byte			As3
	.byte	W04
	.byte	PAN	, c_v+20
	.byte	VOL	, v013
	.byte		N03	, As1
	.byte	W04
	.byte			Fn2
	.byte	W04
	.byte			As2
	.byte	W04
	.byte			Ds3
	.byte	W04
	.byte			Fn3
	.byte	W04
	.byte			As3
	.byte	W04
	.byte	VOL	, v046
	.byte	PAN	, c_v
	.byte		N03	, Bn1
	.byte	W04
	.byte			Fs2
	.byte	W04
	.byte			Bn2
	.byte	W04
	.byte			En3
	.byte	W04
	.byte			Fs3
	.byte	W04
	.byte			Bn3
	.byte	W04
	.byte	PAN	, c_v+20
	.byte	VOL	, v032
	.byte		N03	, Bn1
	.byte	W04
	.byte			Fs2
	.byte	W04
	.byte			Bn2
	.byte	W04
	.byte			En3
	.byte	W04
	.byte			Fs3
	.byte	W04
	.byte			Bn3
	.byte	W04
	.byte	PAN	, c_v-20
	.byte	VOL	, v023
	.byte		N03	, Bn1
	.byte	W04
	.byte			Fs2
	.byte	W04
	.byte			Bn2
	.byte	W04
	.byte			En3
	.byte	W04
	.byte			Fs3
	.byte	W04
	.byte			Bn3
	.byte	W04
	.byte	PAN	, c_v+30
	.byte	VOL	, v013
	.byte		N03	, Bn1
	.byte	W04
	.byte			Fs2
	.byte	W04
	.byte			Bn2
	.byte	W04
	.byte			En3
	.byte	W04
	.byte			Fs3
	.byte	W04
	.byte			Bn3
	.byte	W04
	.byte	W24
	.byte	PAN	, c_v
	.byte	VOL	, v046
	.byte		N03	, As1
	.byte	W04
	.byte			Fn2
	.byte	W04
	.byte			As2
	.byte	W04
	.byte			Ds3
	.byte	W04
	.byte			Fn3
	.byte	W04
	.byte			As3
	.byte	W04
	.byte	PAN	, c_v-20
	.byte	VOL	, v027
	.byte		N03	, As1
	.byte	W04
	.byte			Fn2
	.byte	W04
	.byte			As2
	.byte	W04
	.byte			Ds3
	.byte	W04
	.byte			Fn3
	.byte	W04
	.byte			As3
	.byte	W04
	.byte	PAN	, c_v+20
	.byte	VOL	, v013
	.byte		N03	, As1
	.byte	W04
	.byte			Fn2
	.byte	W04
	.byte			As2
	.byte	W04
	.byte			Ds3
	.byte	W04
	.byte			Fn3
	.byte	W04
	.byte			As3
	.byte	W04
	.byte	W96
	.byte	GOTO	
		.word	mus_dark_mind_second_form_5_1
	.byte	W96
	.byte	FINE

	.align 2
	.global mus_dark_mind_second_form
mus_dark_mind_second_form:	@ 0x08D4A918
	.byte	5		@ trackCount
	.byte	0		@ blockCount
	.byte	128		@ priority
	.byte	128		@ reverb

	.word	voicegroup000		@ voicegroup/tone

	.word	mus_dark_mind_second_form_1		@ track
	.word	mus_dark_mind_second_form_2		@ track
	.word	mus_dark_mind_second_form_3		@ track
	.word	mus_dark_mind_second_form_4		@ track
	.word	mus_dark_mind_second_form_5		@ track
