	.include "MPlayDef.s"

	.section .rodata

	@********************** Track  1 **********************@

	.align 2
	.global mus_dark_mind_sky_1
mus_dark_mind_sky_1:	@ 0x08D4A934
	.byte	KEYSH	, 0
	.byte	TEMPO	, 71
	.byte	VOICE	, 67
	.byte	PAN	, c_v
	.byte	VOL	, v115
	.byte	BEND	, c_v
	.byte		N06	, As0, v112
	.byte		N06	, Gs1, v116
	.byte	W06
	.byte			Fs0, v072
	.byte	W06
	.byte			Fs0, v112
	.byte	W06
	.byte			As0
	.byte		N06	, Gs1, v100
	.byte	W06
	.byte			Fs0, v120
	.byte	W06
	.byte			As0
	.byte		N06	, Gs1, v100
	.byte	W06
	.byte			Fs0, v060
	.byte	W06
	.byte			Fs0, v120
	.byte		N06	, Gs1, v116
	.byte	W06
	.byte			Fs0, v112
	.byte	W06
	.byte			As0, v120
	.byte		N06	, Gs1, v092
	.byte	W06
	.byte			Fs0, v072
	.byte	W06
	.byte			Fs0, v112
	.byte	W06
	.byte		N04	, En0
	.byte	W04
	.byte			En0, v052
	.byte	W04
	.byte			En0, v032
	.byte	W04
	.byte		N06	, Fs0, v100
	.byte	W06
	.byte			Fs0, v120
	.byte	W06
mus_dark_mind_sky_1_6:
	.byte		N06	, As0, v112
	.byte		N06	, Gs1, v116
	.byte	W06
	.byte			Fs0, v072
	.byte	W06
	.byte			Fs0, v112
	.byte	W06
	.byte			As0
	.byte		N06	, Gs1, v100
	.byte	W06
	.byte			Fs0, v120
	.byte	W06
	.byte			As0
	.byte		N06	, Gs1, v100
	.byte	W06
	.byte			Fs0, v060
	.byte	W06
	.byte			Fs0, v120
	.byte		N06	, Gs1, v116
	.byte	W06
	.byte			Fs0, v112
	.byte	W06
	.byte		N03	, En0, v092
	.byte		N06	, As0, v120
	.byte		N06	, Gs1, v092
	.byte	W03
	.byte		N03	, En0, v100
	.byte	W03
	.byte		N06	
	.byte		N06	, Fs0, v072
	.byte	W06
	.byte			En0, v092
	.byte		N06	, Fs0, v112
	.byte	W06
	.byte			En0, v100
	.byte	W06
	.byte			En0, v092
	.byte	W06
	.byte			En0, v100
	.byte		N06	, Fs0
	.byte	W06
	.byte			En0, v108
	.byte		N06	, Fs0, v120
	.byte	W06
	.byte	PEND
mus_dark_mind_sky_1_7:
	.byte		N06	, Gs0, v092
	.byte		N06	, Gs1, v112
	.byte	W06
	.byte			Fs0, v120
	.byte	W06
	.byte			Fs0, v072
	.byte	W06
	.byte			En0, v092
	.byte		N06	, Gs0
	.byte	W06
	.byte			Fs0, v112
	.byte	W06
	.byte			As0, v092
	.byte		N06	, Gs1, v112
	.byte	W06
	.byte			Fs0
	.byte	W06
	.byte			Gs1
	.byte	W06
	.byte			Fs0, v072
	.byte	W06
	.byte			En0, v092
	.byte	W06
	.byte			Fs0, v112
	.byte	W06
	.byte			Fs0, v072
	.byte		N06	, Gs1, v112
	.byte	W06
	.byte			En0, v092
	.byte	W06
	.byte			Fs0, v072
	.byte	W06
	.byte			Fs0, v112
	.byte	W06
	.byte			En0, v060
	.byte	W06
mus_dark_mind_sky_1_1:
	.byte		N06	, Gs0, v092
	.byte		N06	, Gs1, v112
	.byte	W06
	.byte			Fs0, v120
	.byte	W06
	.byte			Fs0, v072
	.byte	W06
	.byte			En0, v092
	.byte		N06	, Gs0
	.byte	W06
	.byte			Fs0, v112
	.byte	W06
	.byte			As0, v092
	.byte		N06	, Gs1, v112
	.byte	W06
	.byte			Fs0
	.byte	W06
	.byte			Gs1
	.byte	W06
	.byte			Fs0, v072
	.byte	W06
	.byte			En0, v092
	.byte	W06
	.byte			Fs0, v112
	.byte	W06
	.byte			Fs0, v072
	.byte		N06	, Gs1, v112
	.byte	W06
	.byte			En0, v092
	.byte	W06
	.byte			Fs0, v072
	.byte	W06
	.byte			Fs0, v112
	.byte	W06
	.byte			En0, v060
	.byte	W06
	.byte	PEND
	.byte	PATT	
		.word	mus_dark_mind_sky_1_1
	.byte		N06	, Gs0, v092
	.byte		N06	, Gs1, v112
	.byte	W06
	.byte			Fs0, v120
	.byte	W06
	.byte			Fs0, v072
	.byte	W06
	.byte			En0, v092
	.byte		N06	, Gs0
	.byte	W06
	.byte			Fs0, v112
	.byte	W06
	.byte			As0, v092
	.byte		N06	, Gs1, v112
	.byte	W06
	.byte			Fs0
	.byte	W06
	.byte			Gs1
	.byte	W06
	.byte			Fs0, v072
	.byte	W06
	.byte			En0, v092
	.byte	W06
	.byte			Fs0, v112
	.byte	W06
	.byte			Fs0, v072
	.byte		N06	, Gs1, v112
	.byte	W06
	.byte			En0, v092
	.byte	W06
	.byte			Fs0, v072
	.byte	W06
	.byte			Fs0, v112
	.byte	W06
	.byte		N02	, Cn2, v100
	.byte	W02
	.byte		N02	
	.byte	W02
	.byte		N02	
	.byte	W02
	.byte	PATT	
		.word	mus_dark_mind_sky_1_1
	.byte	PATT	
		.word	mus_dark_mind_sky_1_1
	.byte	PATT	
		.word	mus_dark_mind_sky_1_1
	.byte		N06	, Gs0, v092
	.byte		N06	, Gs1, v112
	.byte	W06
	.byte			Fs0, v120
	.byte	W06
	.byte			Fs0, v072
	.byte	W06
	.byte			En0, v092
	.byte		N06	, Gs0
	.byte	W06
	.byte			Fs0, v112
	.byte	W06
	.byte			As0, v092
	.byte		N06	, Gs1, v112
	.byte	W06
	.byte			Fs0
	.byte	W06
	.byte			Gs1
	.byte	W06
	.byte			Fs0, v072
	.byte	W06
	.byte		N03	, En0, v092
	.byte	W03
	.byte			En0, v096
	.byte	W03
	.byte		N06	, En0, v100
	.byte	W06
	.byte			En0, v092
	.byte	W06
	.byte			En0, v100
	.byte	W06
	.byte			En0, v096
	.byte	W06
	.byte			En0, v100
	.byte	W06
	.byte			En0, v112
	.byte	W06
	.byte			Gs1
	.byte		N30	, Cs3, v040
	.byte	W06
	.byte		N06	, Fs0, v120
	.byte	W06
	.byte			Fs0, v072
	.byte	W06
	.byte			En0, v092
	.byte		N06	, Gs0
	.byte	W06
	.byte			Fs0, v112
	.byte	W06
	.byte			As0, v092
	.byte		N06	, Gs1, v112
	.byte	W06
	.byte			Fs0
	.byte	W06
	.byte			Gs1
	.byte	W06
	.byte			Fs0, v072
	.byte	W06
	.byte			En0, v092
	.byte	W06
	.byte			Fs0, v112
	.byte	W06
	.byte			Fs0, v072
	.byte		N06	, Gs1, v112
	.byte	W06
	.byte			En0, v092
	.byte	W06
	.byte			Fs0, v072
	.byte	W06
	.byte			Fs0, v112
	.byte	W06
	.byte			En0, v060
	.byte	W06
	.byte	PATT	
		.word	mus_dark_mind_sky_1_1
	.byte	PATT	
		.word	mus_dark_mind_sky_1_1
	.byte	PATT	
		.word	mus_dark_mind_sky_1_1
	.byte	PATT	
		.word	mus_dark_mind_sky_1_1
	.byte	PATT	
		.word	mus_dark_mind_sky_1_1
	.byte		N06	, Gs1, v112
	.byte	W06
	.byte			Fs0, v120
	.byte	W06
	.byte			Fs0, v072
	.byte	W06
	.byte			En0, v092
	.byte	W06
	.byte			Fs0, v112
	.byte	W06
	.byte			Gs1
	.byte	W06
	.byte			Fs0
	.byte	W06
	.byte			Gs1
	.byte	W06
	.byte			Fs0, v072
	.byte	W06
	.byte			En0, v092
	.byte	W06
	.byte			Fs0, v112
	.byte	W06
	.byte			Gs1
	.byte	W06
	.byte			En0, v092
	.byte	W06
	.byte			Fs0, v072
	.byte	W06
	.byte			Fs0, v112
	.byte	W06
	.byte			En0, v060
	.byte	W06
	.byte			En0, v092
	.byte	W06
	.byte			En0, v100
	.byte	W06
	.byte			Fs0, v072
	.byte	W06
	.byte			En0, v092
	.byte	W06
	.byte			Fs0, v112
	.byte	W06
	.byte			En0, v100
	.byte	W06
	.byte			Fs0, v112
	.byte	W06
	.byte			En0, v092
	.byte	W06
	.byte			Fs0, v100
	.byte	W06
	.byte			En0, v092
	.byte	W06
	.byte			En0, v096
	.byte	W06
	.byte			En0, v100
	.byte	W06
	.byte		N06	
	.byte	W06
	.byte			En0, v108
	.byte	W06
	.byte			En0, v112
	.byte	W06
	.byte			En0, v108
	.byte	W06
	.byte	PATT	
		.word	mus_dark_mind_sky_1_1
	.byte	PATT	
		.word	mus_dark_mind_sky_1_1
	.byte	PATT	
		.word	mus_dark_mind_sky_1_1
	.byte	PATT	
		.word	mus_dark_mind_sky_1_1
	.byte	PATT	
		.word	mus_dark_mind_sky_1_1
	.byte	PATT	
		.word	mus_dark_mind_sky_1_1
	.byte	PATT	
		.word	mus_dark_mind_sky_1_1
	.byte		N06	, Gs0, v092
	.byte		N06	, Gs1, v112
	.byte	W06
	.byte			Fs0, v120
	.byte	W06
	.byte			Fs0, v072
	.byte	W06
	.byte			En0, v092
	.byte		N06	, Gs0
	.byte	W06
	.byte			Fs0, v112
	.byte	W06
	.byte			As0, v092
	.byte		N06	, Gs1, v112
	.byte	W06
	.byte			Fs0
	.byte	W06
	.byte			Gs1
	.byte	W06
	.byte			Fs0, v072
	.byte	W06
	.byte		N03	, En0, v092
	.byte	W03
	.byte			En0, v096
	.byte	W03
	.byte		N06	, En0, v100
	.byte	W06
	.byte		N06	
	.byte	W06
	.byte			En0, v108
	.byte	W06
	.byte			En0, v112
	.byte	W06
	.byte		N06	
	.byte	W06
	.byte		N06	
	.byte	W06
mus_dark_mind_sky_1_2:
	.byte		N06	, Gs1, v112
	.byte	W06
	.byte			Fs0, v120
	.byte	W06
	.byte			Fs0, v072
	.byte	W06
	.byte			En0, v092
	.byte	W06
	.byte			Fs0, v112
	.byte	W06
	.byte			Gs1
	.byte	W06
	.byte		N06	
	.byte	W06
	.byte			Fs0
	.byte	W06
	.byte			Fs0, v072
	.byte	W06
	.byte			En0, v092
	.byte	W06
	.byte			Fs0, v112
	.byte	W06
	.byte			Gs1
	.byte	W06
	.byte			En0, v092
	.byte	W06
	.byte			Fs0, v072
	.byte	W06
	.byte			Fs0, v112
	.byte	W06
	.byte			En0, v060
	.byte	W06
	.byte	PEND
mus_dark_mind_sky_1_3:
	.byte		N06	, Gs1, v112
	.byte	W06
	.byte			Fs0, v120
	.byte	W06
	.byte			Fs0, v072
	.byte	W06
	.byte			En0, v092
	.byte	W06
	.byte			Fs0, v112
	.byte	W06
	.byte			Gs1
	.byte	W06
	.byte		N06	
	.byte	W06
	.byte			Fs0
	.byte	W06
	.byte			Fs0, v072
	.byte	W06
	.byte			En0, v092
	.byte	W06
	.byte			Fs0, v112
	.byte	W06
	.byte			Gs1
	.byte	W06
	.byte			En0, v092
	.byte	W06
	.byte			En0, v088
	.byte	W06
	.byte			Fs0, v112
	.byte	W06
	.byte			En0, v072
	.byte	W06
	.byte	PEND
	.byte	PATT	
		.word	mus_dark_mind_sky_1_2
	.byte	PATT	
		.word	mus_dark_mind_sky_1_3
mus_dark_mind_sky_1_4:
	.byte		N06	, Gs1, v112
	.byte	W06
	.byte			Cn2, v072
	.byte	W06
	.byte			En0, v080
	.byte	W06
	.byte			Gs1, v112
	.byte	W06
	.byte			Fs0, v092
	.byte	W06
	.byte			Gs1, v112
	.byte	W06
	.byte			En0, v080
	.byte	W06
	.byte			Gs1, v112
	.byte	W06
	.byte			Fs0, v092
	.byte	W06
	.byte			Gs1, v112
	.byte	W06
	.byte			En0, v080
	.byte	W06
	.byte			Cn2, v072
	.byte	W06
	.byte			Gs1, v112
	.byte	W06
	.byte			Cn2, v072
	.byte	W06
	.byte			En0, v080
	.byte	W06
	.byte			En0, v092
	.byte	W06
	.byte	PEND
mus_dark_mind_sky_1_5:
	.byte		N06	, Gs1, v112
	.byte	W06
	.byte			Cn2, v072
	.byte	W06
	.byte			En0, v080
	.byte	W06
	.byte			Gs1, v112
	.byte	W06
	.byte			Fs0, v092
	.byte	W06
	.byte			Gs1, v112
	.byte	W06
	.byte			En0, v080
	.byte	W06
	.byte			Gs1, v112
	.byte	W06
	.byte			Fs0, v092
	.byte	W06
	.byte			Gs1, v112
	.byte	W06
	.byte			En0, v080
	.byte	W06
	.byte			Cn2, v072
	.byte	W06
	.byte			Gs1, v112
	.byte	W06
	.byte			Cn2, v072
	.byte	W06
	.byte			En0, v080
	.byte	W06
	.byte			Gs0, v092
	.byte	W06
	.byte	PEND
	.byte	PATT	
		.word	mus_dark_mind_sky_1_4
	.byte	PATT	
		.word	mus_dark_mind_sky_1_5
	.byte	PATT	
		.word	mus_dark_mind_sky_1_6
	.byte	GOTO	
		.word	mus_dark_mind_sky_1_7
	.byte	W96
	.byte	FINE

	@********************** Track  2 **********************@

	.global mus_dark_mind_sky_2
mus_dark_mind_sky_2:	@ 0x08D4ACC1
	.byte	KEYSH	, 0
	.byte	VOICE	, 68
	.byte	VOL	, v078
	.byte	PAN	, c_v+20
	.byte	MOD	, 1
	.byte	BEND	, c_v
	.byte		N04	, Gn3, v120
	.byte	W06
	.byte		N10	, Bn2
	.byte	W12
	.byte			Cn3
	.byte	W12
	.byte			Cs3
	.byte	W12
	.byte			Dn3
	.byte	W12
	.byte			Fn3
	.byte	W12
	.byte		N04	, Dn3
	.byte	W06
	.byte		N06	, Cn3
	.byte	W06
	.byte			Cs3
	.byte	W06
	.byte			Dn3
	.byte	W06
	.byte		N04	, Fn3
	.byte	W06
mus_dark_mind_sky_2_1:
	.byte		N04	, Gn3, v120
	.byte	W06
	.byte		N10	, Bn2
	.byte	W12
	.byte			Cn3
	.byte	W12
	.byte			Cs3
	.byte	W12
	.byte			Dn3
	.byte	W12
	.byte			Fn3
	.byte	W12
	.byte		N04	, Dn3
	.byte	W06
	.byte		N06	, Cn3
	.byte	W06
	.byte			Cs3
	.byte	W06
	.byte			Dn3
	.byte	W06
	.byte		N04	, Fn3
	.byte	W06
	.byte	PEND
mus_dark_mind_sky_2_6:
	.byte	VOL	, v087
	.byte	PAN	, c_v
	.byte		N04	, Gn3, v120
	.byte	W06
	.byte		N10	, Bn2
	.byte	W12
	.byte			Cn3
	.byte	W12
	.byte			Cs3
	.byte	W12
	.byte			Dn3
	.byte	W12
	.byte			Fn3
	.byte	W12
	.byte		N04	, Dn3
	.byte	W06
	.byte		N06	, Cn3
	.byte	W06
	.byte			Cs3
	.byte	W06
	.byte			Dn3
	.byte	W06
	.byte		N04	, Fn3
	.byte	W06
	.byte	PATT	
		.word	mus_dark_mind_sky_2_1
	.byte	PATT	
		.word	mus_dark_mind_sky_2_1
	.byte	PATT	
		.word	mus_dark_mind_sky_2_1
	.byte	PATT	
		.word	mus_dark_mind_sky_2_1
	.byte	PATT	
		.word	mus_dark_mind_sky_2_1
	.byte	PATT	
		.word	mus_dark_mind_sky_2_1
	.byte	PATT	
		.word	mus_dark_mind_sky_2_1
	.byte		N03	, Gn2, v120
	.byte	W04
	.byte		N01	, Gn2, v080
	.byte	W02
	.byte		N10	, As2, v120
	.byte	W12
	.byte			Bn2
	.byte	W12
	.byte			Cn3
	.byte	W12
	.byte		N06	, Gn2
	.byte	W12
	.byte		N03	
	.byte	W04
	.byte		N01	, Gn2, v080
	.byte	W02
	.byte		N10	, As2, v120
	.byte	W12
	.byte			Bn2
	.byte	W12
	.byte		N09	, Cn3
	.byte	W12
mus_dark_mind_sky_2_2:
	.byte		N03	, Gn2, v120
	.byte	W06
	.byte		N10	, As2
	.byte	W12
	.byte			Bn2
	.byte	W12
	.byte			Cn3
	.byte	W12
	.byte		N06	, Gn2
	.byte	W12
	.byte		N03	
	.byte	W06
	.byte		N10	, As2
	.byte	W12
	.byte			Bn2
	.byte	W12
	.byte		N09	, Cn3
	.byte	W12
	.byte	PEND
	.byte	PATT	
		.word	mus_dark_mind_sky_2_2
	.byte	PATT	
		.word	mus_dark_mind_sky_2_2
	.byte	PATT	
		.word	mus_dark_mind_sky_2_2
	.byte	PATT	
		.word	mus_dark_mind_sky_2_2
	.byte	PATT	
		.word	mus_dark_mind_sky_2_2
	.byte	PATT	
		.word	mus_dark_mind_sky_2_2
	.byte	PATT	
		.word	mus_dark_mind_sky_2_1
	.byte	PATT	
		.word	mus_dark_mind_sky_2_1
	.byte	PATT	
		.word	mus_dark_mind_sky_2_1
	.byte	PATT	
		.word	mus_dark_mind_sky_2_1
	.byte	PATT	
		.word	mus_dark_mind_sky_2_1
	.byte	PATT	
		.word	mus_dark_mind_sky_2_1
	.byte	PATT	
		.word	mus_dark_mind_sky_2_1
	.byte	PATT	
		.word	mus_dark_mind_sky_2_1
mus_dark_mind_sky_2_3:
	.byte		N06	, Dn3, v120
	.byte	W06
	.byte		N01	, Dn2
	.byte	W06
	.byte		N01	
	.byte	W06
	.byte		N06	, Dn3
	.byte	W06
	.byte		N01	, Dn2
	.byte	W06
	.byte		N01	
	.byte	W06
	.byte		N06	, Dn3
	.byte	W06
	.byte		N01	, Dn2
	.byte	W06
	.byte		N01	
	.byte	W06
	.byte		N06	, Dn3
	.byte	W06
	.byte		N01	, Dn2
	.byte	W06
	.byte		N01	
	.byte	W06
	.byte		N06	, Dn3
	.byte	W06
	.byte		N01	, Dn2
	.byte	W06
	.byte		N06	, Dn3
	.byte	W06
	.byte			Cs3
	.byte	W06
	.byte	PEND
mus_dark_mind_sky_2_4:
	.byte		N06	, Cn3, v120
	.byte	W06
	.byte		N01	, Cn2
	.byte	W06
	.byte		N01	
	.byte	W06
	.byte		N06	, Cn3
	.byte	W06
	.byte		N01	, Cn2
	.byte	W06
	.byte		N01	
	.byte	W06
	.byte		N06	, Cn3
	.byte	W06
	.byte		N01	, Cn2
	.byte	W06
	.byte		N01	
	.byte	W06
	.byte		N06	, Cn3
	.byte	W06
	.byte		N01	, Cn2
	.byte	W06
	.byte		N01	
	.byte	W06
	.byte		N06	, Cn3
	.byte	W06
	.byte		N01	, Cn2
	.byte	W06
	.byte		N06	, Cn3
	.byte	W06
	.byte			Cs3
	.byte	W06
	.byte	PEND
	.byte	PATT	
		.word	mus_dark_mind_sky_2_3
	.byte	PATT	
		.word	mus_dark_mind_sky_2_4
	.byte		N04	, Dn3, v112
	.byte	W06
	.byte		N03	, Dn3, v100
	.byte	W06
	.byte		N03	
	.byte	W06
	.byte		N04	, Dn3, v060
	.byte	W06
	.byte		N03	, Dn3, v100
	.byte	W06
	.byte		N03	
	.byte	W06
	.byte		N04	, Dn3, v112
	.byte	W06
	.byte		N03	, Dn3, v100
	.byte	W06
	.byte		N03	
	.byte	W06
	.byte		N04	, Dn3, v112
	.byte	W06
	.byte		N03	, Dn3, v100
	.byte	W06
	.byte		N03	
	.byte	W06
	.byte		N04	, Dn3, v112
	.byte	W06
	.byte			Dn3, v100
	.byte	W06
	.byte		N04	
	.byte	W06
	.byte			Cs3
	.byte	W06
mus_dark_mind_sky_2_5:
	.byte		N04	, Cn3, v112
	.byte	W06
	.byte		N03	, Cn3, v100
	.byte	W06
	.byte		N03	
	.byte	W06
	.byte		N04	, Cn3, v112
	.byte	W06
	.byte		N03	, Cn3, v100
	.byte	W06
	.byte		N03	
	.byte	W06
	.byte		N04	, Cn3, v112
	.byte	W06
	.byte		N03	, Cn3, v100
	.byte	W06
	.byte		N03	
	.byte	W06
	.byte		N04	, Cn3, v112
	.byte	W06
	.byte		N03	, Cn3, v100
	.byte	W06
	.byte		N03	
	.byte	W06
	.byte		N04	, Cn3, v112
	.byte	W06
	.byte		N03	, Cn3, v100
	.byte	W06
	.byte		N04	
	.byte	W06
	.byte			Cs3
	.byte	W06
	.byte	PEND
	.byte			Dn3, v112
	.byte	W06
	.byte		N03	, Dn3, v100
	.byte	W06
	.byte		N03	
	.byte	W06
	.byte		N04	, Dn3, v112
	.byte	W06
	.byte		N03	, Dn3, v100
	.byte	W06
	.byte		N03	
	.byte	W06
	.byte		N04	, Dn3, v112
	.byte	W06
	.byte		N03	, Dn3, v100
	.byte	W06
	.byte		N03	
	.byte	W06
	.byte		N04	, Dn3, v112
	.byte	W06
	.byte		N03	, Dn3, v100
	.byte	W06
	.byte		N03	
	.byte	W06
	.byte		N04	, Dn3, v112
	.byte	W06
	.byte			Dn3, v100
	.byte	W06
	.byte		N04	
	.byte	W06
	.byte			Cs3
	.byte	W06
	.byte	PATT	
		.word	mus_dark_mind_sky_2_5
	.byte	VOICE	, 68
	.byte	VOL	, v082
	.byte	PAN	, c_v+20
	.byte	MOD	, 0
	.byte	BEND	, c_v
	.byte		N04	, Gn3, v120
	.byte	W06
	.byte		N10	, Bn2
	.byte	W12
	.byte			Cn3
	.byte	W12
	.byte			Cs3
	.byte	W12
	.byte			Dn3
	.byte	W12
	.byte			Fn3
	.byte	W12
	.byte		N04	, Dn3
	.byte	W06
	.byte		N06	, Cn3
	.byte	W06
	.byte			Cs3
	.byte	W06
	.byte			Dn3
	.byte	W06
	.byte		N04	, Fn3
	.byte	W04
	.byte	PAN	, c_v
	.byte	VOL	, v110
	.byte	W02
	.byte	GOTO	
		.word	mus_dark_mind_sky_2_6
	.byte	W96
	.byte	FINE

	@********************** Track  3 **********************@

	.global mus_dark_mind_sky_3
mus_dark_mind_sky_3:	@ 0x08D4AEFF
	.byte	KEYSH	, 0
	.byte	VOICE	, 68
	.byte	VOL	, v032
	.byte	PAN	, c_v-30
	.byte	MOD	, 2
	.byte	BEND	, c_v+10
	.byte	W04
	.byte		N04	, Gn3, v112
	.byte	W06
	.byte		N10	, Bn2
	.byte	W12
	.byte			Cn3
	.byte	W12
	.byte			Cs3
	.byte	W12
	.byte			Dn3
	.byte	W12
	.byte			Fn3
	.byte	W12
	.byte		N04	, Dn3
	.byte	W06
	.byte		N06	, Cn3
	.byte	W06
	.byte			Cs3
	.byte	W06
	.byte			Dn3
	.byte	W06
	.byte		N04	, Fn3
	.byte	W02
	.byte	W04
	.byte			Gn3
	.byte	W06
	.byte		N10	, Bn2
	.byte	W12
	.byte			Cn3
	.byte	W12
	.byte			Cs3
	.byte	W12
	.byte			Dn3
	.byte	W12
	.byte			Fn3
	.byte	W12
	.byte		N04	, Dn3
	.byte	W06
	.byte		N06	, Cn3
	.byte	W06
	.byte			Cs3
	.byte	W06
	.byte		N01	, Dn3
	.byte	W02
	.byte	VOICE	, 23
	.byte	PAN	, c_v
	.byte	VOL	, v050
	.byte		N02	, En3, v072
	.byte	W02
	.byte			Fn3, v076
	.byte	W02
	.byte			Fs3, v080
	.byte	W02
	.byte	VOICE	, 23
mus_dark_mind_sky_3_3:
	.byte	LFOS	, 24
	.byte	LFODL	, 25
	.byte	VOL	, v050
	.byte	PAN	, c_v
	.byte	BEND	, c_v
	.byte		N68	, Gn3, v072
	.byte	W06
	.byte	MOD	, 4
	.byte	W24
	.byte		8
	.byte	W18
	.byte		12
	.byte	W24
	.byte		4
	.byte		N12	
	.byte	W12
	.byte		N06	, Fs3
	.byte	W06
	.byte		N78	, Fn3
	.byte	W06
	.byte	W24
	.byte	MOD	, 8
	.byte	W24
	.byte		12
	.byte	W24
	.byte		4
	.byte		N12	
	.byte	W12
	.byte		N06	, Dn3
	.byte	W06
	.byte		N78	, En3
	.byte	W06
	.byte	W24
	.byte	MOD	, 8
	.byte	W24
	.byte		12
	.byte	W24
	.byte		4
	.byte		N12	
	.byte	W12
	.byte		N06	
	.byte	W06
	.byte		N96	, Fn3
	.byte	W06
	.byte	W24
	.byte	MOD	, 8
	.byte	W24
	.byte		12
	.byte	W24
	.byte		16
	.byte	W18
	.byte		N02	, En3
	.byte	W02
	.byte			Fn3
	.byte	W02
	.byte			Fs3
	.byte	W02
	.byte		N68	, Gn3
	.byte	W06
	.byte	MOD	, 4
	.byte	W24
	.byte		8
	.byte	W18
	.byte		12
	.byte	W24
	.byte		4
	.byte		N12	
	.byte	W12
	.byte		N06	, Fs3
	.byte	W06
	.byte		N78	, Fn3
	.byte	W06
	.byte	W24
	.byte	MOD	, 8
	.byte	W24
	.byte		12
	.byte	W24
	.byte		4
	.byte		N12	
	.byte	W12
	.byte		N06	, Dn3
	.byte	W06
	.byte			Gn3
	.byte	W06
	.byte	W06
	.byte		N90	, Dn4
	.byte	W18
	.byte	MOD	, 8
	.byte	W24
	.byte		12
	.byte	W24
	.byte		16
	.byte	W24
	.byte	LFODL	, 5
	.byte	MOD	, 10
	.byte		N24	, Cs4
	.byte	W24
	.byte	MOD	, 15
	.byte		N24	, Cn4, v060
	.byte	W24
	.byte	MOD	, 20
	.byte		N24	, Bn3, v052
	.byte	W24
	.byte	MOD	, 25
	.byte		N24	, As3, v040
	.byte	W24
	.byte	W96
	.byte	W96
	.byte	W96
	.byte	W96
	.byte	W96
	.byte	W96
	.byte	W96
	.byte	LFOS	, 45
	.byte	LFODL	, 12
	.byte	VOL	, v059
	.byte	BEND	, c_v
	.byte	W84
	.byte		N04	, En3, v060
	.byte	W04
	.byte			Fn3, v068
	.byte	W04
	.byte			Fs3, v072
	.byte	W04
	.byte	MOD	, 10
	.byte		N18	, Gn3
	.byte	W18
	.byte			Dn3
	.byte	W18
	.byte			Fs3
	.byte	W18
	.byte			Cs3
	.byte	W18
	.byte	BEND	, c_v-22
	.byte		N12	, Fn3
	.byte	W03
	.byte	BEND	, c_v
	.byte	W09
	.byte		N06	, Cn3
	.byte	W06
	.byte		N03	, Dn3, v060
	.byte	W03
	.byte			Ds3, v068
	.byte	W03
	.byte		N18	, En3, v072
	.byte	W18
	.byte			Bn2
	.byte	W18
	.byte	BEND	, c_v-22
	.byte		N18	, Ds3
	.byte	W03
	.byte	BEND	, c_v
	.byte	W15
	.byte		N18	, As2
	.byte	W18
	.byte		N12	, Dn3
	.byte	W12
	.byte		N10	, An2
	.byte	W12
	.byte	LFODL	, 5
	.byte		N04	, As2
	.byte	W06
	.byte			Gn2
	.byte	W06
	.byte			Cn3
	.byte	W06
	.byte			Gn2
	.byte	W12
	.byte		N04	
	.byte	W12
	.byte		N04	
	.byte	W06
	.byte			Fn2
	.byte	W06
	.byte			Fs2
	.byte	W06
	.byte			Gn2
	.byte	W06
	.byte			Fn2
	.byte	W12
	.byte		N06	, Cn3
	.byte	W06
	.byte			As2
	.byte	W06
	.byte		N03	, Cn3
	.byte	W03
	.byte			Cs3
	.byte	W03
	.byte		N12	, Dn3
	.byte	W12
	.byte		N06	, Fn3
	.byte	W06
	.byte			Dn3
	.byte	W12
	.byte			Cn3
	.byte	W06
	.byte			Cs3
	.byte	W06
	.byte		N24	, Dn3
	.byte	W12
	.byte	MOD	, 15
	.byte	W18
	.byte		N06	, Fn3
	.byte	W06
	.byte			Dn3
	.byte	W06
	.byte			Fn3
	.byte	W06
	.byte			Fs3
	.byte	W06
	.byte	MOD	, 10
	.byte	LFODL	, 13
	.byte		N18	, Gn3
	.byte	W18
	.byte			Fn3
	.byte	W18
	.byte			As3
	.byte	W18
	.byte			Gn3
	.byte	W18
	.byte		N04	, Fn3
	.byte	W06
	.byte			Fs3
	.byte	W06
	.byte			Gn3
	.byte	W06
	.byte			Fn3
	.byte	W06
	.byte			Gn3
	.byte	W06
	.byte			Fn3
	.byte	W12
	.byte		N04	
	.byte	W12
	.byte		N06	, Cn4
	.byte	W06
	.byte		N28	, As3
	.byte	W18
	.byte	MOD	, 15
	.byte	W12
	.byte		N03	, Cn4
	.byte	W03
	.byte			Cs4
	.byte	W03
	.byte		N04	, Dn4
	.byte	W06
	.byte			As3
	.byte	W06
	.byte			Cn4
	.byte	W06
	.byte			Dn4
	.byte	W06
	.byte	MOD	, 15
	.byte		N01	, Ds4, v060
	.byte	W01
	.byte			En4, v068
	.byte	W02
	.byte		N15	, Fn4, v072
	.byte	W15
	.byte		N18	, En4
	.byte	W18
	.byte		N12	, Cn4
	.byte	W18
	.byte		N01	, Cn4, v060
	.byte	W01
	.byte			Cs4, v068
	.byte	W02
	.byte		N15	, Dn4, v072
	.byte	W15
	.byte		N10	, Cn4
	.byte	W12
	.byte		N06	, As3
	.byte	W12
	.byte	BEND	, c_v-32
	.byte		N06	, Cn4
	.byte	W01
	.byte	BEND	, c_v
	.byte	W05
	.byte		N04	, As3
	.byte	W12
	.byte			Gn3
	.byte	W12
	.byte			Fn3
	.byte	W06
	.byte			Fs3
	.byte	W06
	.byte	MOD	, 5
	.byte		N52	, Gn3
	.byte	W18
	.byte	MOD	, 10
	.byte	W18
	.byte		15
	.byte	W18
	.byte	W96
	.byte	W96
	.byte	W96
	.byte	W96
mus_dark_mind_sky_3_1:
	.byte	PAN	, c_v+10
	.byte		N01	, Dn4, v080
	.byte	W06
	.byte			Dn3
	.byte	W06
	.byte	PAN	, c_v-10
	.byte		N01	, Dn3, v072
	.byte	W06
	.byte			Dn4, v080
	.byte	W06
	.byte	PAN	, c_v+10
	.byte		N01	, Dn3
	.byte	W06
	.byte			Dn3, v072
	.byte	W06
	.byte	PAN	, c_v-10
	.byte		N01	, Dn4, v080
	.byte	W06
	.byte			Dn3
	.byte	W06
	.byte	PAN	, c_v+10
	.byte		N01	, Dn3, v072
	.byte	W06
	.byte			Dn4, v080
	.byte	W06
	.byte	PAN	, c_v-10
	.byte		N01	, Dn3
	.byte	W06
	.byte			Dn3, v072
	.byte	W06
	.byte	PAN	, c_v+10
	.byte		N01	, Dn4, v080
	.byte	W06
	.byte			Dn3, v072
	.byte	W06
	.byte	PAN	, c_v-10
	.byte		N01	, Dn4, v080
	.byte	W06
	.byte			Cs4
	.byte	W06
	.byte	PEND
mus_dark_mind_sky_3_2:
	.byte	PAN	, c_v+10
	.byte		N01	, Cn4, v080
	.byte	W06
	.byte			Cn3
	.byte	W06
	.byte	PAN	, c_v-10
	.byte		N01	, Cn3, v072
	.byte	W06
	.byte			Cn4, v080
	.byte	W06
	.byte	PAN	, c_v+10
	.byte		N01	, Cn3
	.byte	W06
	.byte			Cn3, v072
	.byte	W06
	.byte	PAN	, c_v-10
	.byte		N01	, Cn4, v080
	.byte	W06
	.byte			Cn3
	.byte	W06
	.byte	PAN	, c_v+10
	.byte		N01	, Cn3, v072
	.byte	W06
	.byte			Cn4, v080
	.byte	W06
	.byte	PAN	, c_v-10
	.byte		N01	, Cn3
	.byte	W06
	.byte			Cn3, v072
	.byte	W06
	.byte	PAN	, c_v+10
	.byte		N01	, Cn4, v080
	.byte	W06
	.byte			Cn3, v072
	.byte	W06
	.byte	PAN	, c_v-10
	.byte		N01	, Cn4, v080
	.byte	W06
	.byte			Cs4
	.byte	W06
	.byte	PEND
	.byte	PATT	
		.word	mus_dark_mind_sky_3_1
	.byte	PATT	
		.word	mus_dark_mind_sky_3_2
	.byte	VOICE	, 68
	.byte	VOL	, v041
	.byte	PAN	, c_v-20
	.byte	MOD	, 2
	.byte	BEND	, c_v+11
	.byte	W04
	.byte		N04	, Gn3, v112
	.byte	W06
	.byte		N10	, Bn2
	.byte	W12
	.byte			Cn3
	.byte	W12
	.byte			Cs3
	.byte	W12
	.byte			Dn3
	.byte	W12
	.byte			Fn3
	.byte	W12
	.byte		N04	, Dn3
	.byte	W06
	.byte		N06	, Cn3
	.byte	W06
	.byte			Cs3
	.byte	W06
	.byte			Dn3
	.byte	W06
	.byte	VOICE	, 23
	.byte	PAN	, c_v
	.byte	VOL	, v046
	.byte	W02
	.byte	GOTO	
		.word	mus_dark_mind_sky_3_3
	.byte	W96
	.byte	FINE

	@********************** Track  4 **********************@

	.global mus_dark_mind_sky_4
mus_dark_mind_sky_4:	@ 0x08D4B1A6
	.byte	KEYSH	, 0
	.byte	W96
	.byte	W96
	.byte	VOICE	, 11
mus_dark_mind_sky_4_5:
	.byte	LFOS	, 24
	.byte	LFODL	, 25
	.byte	VOL	, v059
	.byte	PAN	, c_v+20
	.byte	BEND	, c_v
	.byte		N68	, Dn3, v072
	.byte	W06
	.byte	MOD	, 4
	.byte	W24
	.byte		8
	.byte	W18
	.byte		12
	.byte	W24
	.byte		4
	.byte		N12	
	.byte	W12
	.byte		N06	, Cs3
	.byte	W06
	.byte		N78	, Cn3
	.byte	W06
	.byte	W24
	.byte	MOD	, 8
	.byte	W24
	.byte		12
	.byte	W24
	.byte		4
	.byte		N12	
	.byte	W12
	.byte		N06	, An2
	.byte	W06
	.byte		N78	, Bn2
	.byte	W06
	.byte	W24
	.byte	MOD	, 8
	.byte	W24
	.byte		12
	.byte	W24
	.byte		4
	.byte		N12	
	.byte	W12
	.byte		N06	
	.byte	W06
	.byte		N96	, Cn3
	.byte	W06
	.byte	W24
	.byte	MOD	, 8
	.byte	W24
	.byte		12
	.byte	W24
	.byte		16
	.byte	W18
	.byte		N02	, Bn2
	.byte	W02
	.byte			Cn3
	.byte	W02
	.byte			Cs3
	.byte	W02
	.byte		N68	, Dn3
	.byte	W06
	.byte	MOD	, 4
	.byte	W24
	.byte		8
	.byte	W18
	.byte		12
	.byte	W24
	.byte		4
	.byte		N12	
	.byte	W12
	.byte		N06	, Cs3
	.byte	W06
	.byte		N78	, Cn3
	.byte	W06
	.byte	W24
	.byte	MOD	, 8
	.byte	W24
	.byte		12
	.byte	W24
	.byte		4
	.byte		N12	
	.byte	W12
	.byte		N06	, Gn2
	.byte	W06
	.byte			Dn3
	.byte	W06
	.byte	W06
	.byte		TIE	, An3
	.byte	W18
	.byte	MOD	, 8
	.byte	W24
	.byte		12
	.byte	W24
	.byte		16
	.byte	W24
	.byte		20
	.byte	W24
	.byte		24
	.byte	W24
	.byte		28
	.byte	W24
	.byte		32
	.byte	W12
	.byte		EOT	
	.byte	W12
	.byte	W96
	.byte	W96
	.byte	W96
	.byte	MOD	, 15
	.byte	LFOS	, 45
	.byte	LFODL	, 2
	.byte	W06
	.byte	VOL	, v050
	.byte	W90
mus_dark_mind_sky_4_1:
	.byte		N03	, Gn1, v092
	.byte	W06
	.byte		N10	, As1
	.byte	W12
	.byte			Bn1
	.byte	W12
	.byte			Cn2
	.byte	W12
	.byte		N06	, Gn1
	.byte	W12
	.byte		N03	
	.byte	W06
	.byte		N10	, As1
	.byte	W12
	.byte			Bn1
	.byte	W12
	.byte		N09	, Cn2
	.byte	W12
	.byte	PEND
	.byte	PATT	
		.word	mus_dark_mind_sky_4_1
	.byte	PATT	
		.word	mus_dark_mind_sky_4_1
	.byte		N03	, Gn2, v092
	.byte	W06
	.byte		N10	, As2
	.byte	W12
	.byte			Bn2
	.byte	W12
	.byte			Cn3
	.byte	W12
	.byte		N06	, Gn2
	.byte	W12
	.byte		N03	
	.byte	W06
	.byte		N10	, As2
	.byte	W12
	.byte			Bn2
	.byte	W12
	.byte		N09	, Cn3
	.byte	W12
mus_dark_mind_sky_4_2:
	.byte	PAN	, c_v+20
	.byte		N03	, Gn2, v072
	.byte	W06
	.byte			Dn2
	.byte	W06
	.byte			Dn2, v040
	.byte	W06
	.byte			Fn2, v072
	.byte	W06
	.byte			Fn2, v040
	.byte	W06
	.byte			Gn2, v072
	.byte	W06
	.byte			Gn2, v040
	.byte	W06
	.byte			Gn2, v072
	.byte	W06
	.byte			Gn2, v040
	.byte	W06
	.byte			Gn2, v072
	.byte	W06
	.byte			Dn2
	.byte	W06
	.byte			Dn2, v040
	.byte	W06
	.byte			Fn2, v072
	.byte	W06
	.byte			Fn2, v040
	.byte	W06
	.byte			Gn2, v072
	.byte	W06
	.byte			Gn2, v040
	.byte	W06
	.byte	PEND
mus_dark_mind_sky_4_3:
	.byte	PAN	, c_v-20
	.byte		N03	, Gn2, v072
	.byte	W06
	.byte			Dn2
	.byte	W06
	.byte			Dn2, v040
	.byte	W06
	.byte			Fn2, v072
	.byte	W06
	.byte			Fn2, v040
	.byte	W06
	.byte			Gn2, v072
	.byte	W06
	.byte			Gn2, v040
	.byte	W06
	.byte			Gn2, v072
	.byte	W06
	.byte			Gn2, v040
	.byte	W06
	.byte			Gn2, v072
	.byte	W06
	.byte			Dn2
	.byte	W06
	.byte			Dn2, v040
	.byte	W06
	.byte			Fn2, v072
	.byte	W06
	.byte			Fn2, v040
	.byte	W06
	.byte			Gn2, v072
	.byte	W06
	.byte			Gn2, v040
	.byte	W06
	.byte	PEND
	.byte	PATT	
		.word	mus_dark_mind_sky_4_2
	.byte	PATT	
		.word	mus_dark_mind_sky_4_3
	.byte	PATT	
		.word	mus_dark_mind_sky_4_2
	.byte	PATT	
		.word	mus_dark_mind_sky_4_3
	.byte	PATT	
		.word	mus_dark_mind_sky_4_2
	.byte	PATT	
		.word	mus_dark_mind_sky_4_3
	.byte	PAN	, c_v+20
	.byte		N03	, Dn4, v060
	.byte	W06
	.byte			Dn3
	.byte	W06
	.byte		N03	
	.byte	W06
	.byte			Dn4
	.byte	W06
	.byte			Dn3
	.byte	W06
	.byte		N03	
	.byte	W06
	.byte			Dn4
	.byte	W06
	.byte			Dn3
	.byte	W06
	.byte		N03	
	.byte	W06
	.byte			Dn4
	.byte	W06
	.byte			Dn3
	.byte	W06
	.byte		N03	
	.byte	W06
	.byte			Dn4
	.byte	W06
	.byte			Dn3
	.byte	W06
	.byte			Dn4
	.byte	W06
	.byte			Cs4
	.byte	W06
mus_dark_mind_sky_4_4:
	.byte		N03	, Cn4, v060
	.byte	W06
	.byte			Cn3
	.byte	W06
	.byte		N03	
	.byte	W06
	.byte			Cn4
	.byte	W06
	.byte			Cn3
	.byte	W06
	.byte		N03	
	.byte	W06
	.byte			Cn4
	.byte	W06
	.byte			Cn3
	.byte	W06
	.byte		N03	
	.byte	W06
	.byte			Cn4
	.byte	W06
	.byte			Cn3
	.byte	W06
	.byte		N03	
	.byte	W06
	.byte			Cn4
	.byte	W06
	.byte			Cn3
	.byte	W06
	.byte			Cn4
	.byte	W06
	.byte			Cs4
	.byte	W06
	.byte	PEND
	.byte			Dn4
	.byte	W06
	.byte			Dn3
	.byte	W06
	.byte		N03	
	.byte	W06
	.byte			Dn4
	.byte	W06
	.byte			Dn3
	.byte	W06
	.byte		N03	
	.byte	W06
	.byte			Dn4
	.byte	W06
	.byte			Dn3
	.byte	W06
	.byte		N03	
	.byte	W06
	.byte			Dn4
	.byte	W06
	.byte			Dn3
	.byte	W06
	.byte		N03	
	.byte	W06
	.byte			Dn4
	.byte	W06
	.byte			Dn3
	.byte	W06
	.byte			Dn4
	.byte	W06
	.byte			Cs4
	.byte	W06
	.byte	PATT	
		.word	mus_dark_mind_sky_4_4
	.byte	W96
	.byte	W96
	.byte	W96
	.byte	W96
	.byte	LFOS	, 24
	.byte	LFODL	, 25
	.byte	W03
	.byte	VOICE	, 11
	.byte	VOL	, v050
	.byte	W03
	.byte	PAN	, c_v+20
	.byte	BEND	, c_v
	.byte	W90
	.byte	GOTO	
		.word	mus_dark_mind_sky_4_5
	.byte	W96
	.byte	FINE

	@********************** Track  5 **********************@

	.global mus_dark_mind_sky_5
mus_dark_mind_sky_5:	@ 0x08D4B37C
	.byte	KEYSH	, 0
	.byte	VOICE	, 43
	.byte	VOL	, v064
	.byte	PAN	, c_v+10
	.byte	MOD	, 2
	.byte	BEND	, c_v
	.byte		N04	, Gn3, v092
	.byte	W06
	.byte		N10	, Bn2
	.byte	W12
	.byte			Cn3
	.byte	W12
	.byte			Cs3
	.byte	W12
	.byte			Dn3
	.byte	W12
	.byte			Fn3
	.byte	W12
	.byte		N04	, Dn3
	.byte	W06
	.byte		N06	, Cn3
	.byte	W06
	.byte			Cs3
	.byte	W06
	.byte			Dn3
	.byte	W06
	.byte		N04	, Fn3
	.byte	W06
	.byte			Gn3
	.byte	W06
	.byte		N10	, Bn2
	.byte	W12
	.byte			Cn3
	.byte	W12
	.byte			Cs3
	.byte	W12
	.byte			Dn3
	.byte	W12
	.byte			Fn3
	.byte	W12
	.byte		N04	, Dn3
	.byte	W06
	.byte		N06	, Cn3
	.byte	W06
	.byte			Cs3
	.byte	W06
	.byte			Dn3
	.byte	W06
	.byte		N04	, Fn3
	.byte	W06
mus_dark_mind_sky_5_3:
	.byte	VOL	, v036
	.byte	PAN	, c_v-20
	.byte		N04	, Gn3, v100
	.byte	W06
	.byte		N10	, Bn2
	.byte	W12
	.byte			Cn3, v092
	.byte	W12
	.byte			Cs3
	.byte	W12
	.byte			Dn3
	.byte	W12
	.byte			Fn3
	.byte	W12
	.byte		N04	, Dn3
	.byte	W06
	.byte		N06	, Cn3
	.byte	W06
	.byte			Cs3
	.byte	W06
	.byte			Dn3
	.byte	W06
	.byte		N04	, Fn3
	.byte	W06
mus_dark_mind_sky_5_1:
	.byte		N04	, Gn3, v100
	.byte	W06
	.byte		N10	, Bn2
	.byte	W12
	.byte			Cn3, v092
	.byte	W12
	.byte			Cs3
	.byte	W12
	.byte			Dn3
	.byte	W12
	.byte			Fn3
	.byte	W12
	.byte		N04	, Dn3
	.byte	W06
	.byte		N06	, Cn3
	.byte	W06
	.byte			Cs3
	.byte	W06
	.byte			Dn3
	.byte	W06
	.byte		N04	, Fn3
	.byte	W06
	.byte	PEND
	.byte	PATT	
		.word	mus_dark_mind_sky_5_1
	.byte	PATT	
		.word	mus_dark_mind_sky_5_1
	.byte	PATT	
		.word	mus_dark_mind_sky_5_1
	.byte	PATT	
		.word	mus_dark_mind_sky_5_1
	.byte	PATT	
		.word	mus_dark_mind_sky_5_1
	.byte	PATT	
		.word	mus_dark_mind_sky_5_1
	.byte	W96
	.byte	W96
	.byte	VOL	, v046
	.byte		N03	, Gn2, v092
	.byte	W06
	.byte		N10	, As2
	.byte	W12
	.byte			Bn2
	.byte	W12
	.byte			Cn3
	.byte	W12
	.byte		N06	, Gn2
	.byte	W12
	.byte		N03	
	.byte	W06
	.byte		N10	, As2
	.byte	W12
	.byte			Bn2
	.byte	W12
	.byte		N09	, Cn3
	.byte	W12
mus_dark_mind_sky_5_2:
	.byte		N03	, Gn2, v092
	.byte	W06
	.byte		N10	, As2
	.byte	W12
	.byte			Bn2
	.byte	W12
	.byte			Cn3
	.byte	W12
	.byte		N06	, Gn2
	.byte	W12
	.byte		N03	
	.byte	W06
	.byte		N10	, As2
	.byte	W12
	.byte			Bn2
	.byte	W12
	.byte		N09	, Cn3
	.byte	W12
	.byte	PEND
	.byte	PATT	
		.word	mus_dark_mind_sky_5_2
	.byte	PATT	
		.word	mus_dark_mind_sky_5_2
	.byte	PATT	
		.word	mus_dark_mind_sky_5_2
	.byte	PATT	
		.word	mus_dark_mind_sky_5_2
	.byte	VOL	, v036
	.byte	PAN	, c_v-20
	.byte		N04	, Gn3, v100
	.byte	W06
	.byte		N10	, Bn2
	.byte	W12
	.byte			Cn3, v092
	.byte	W12
	.byte			Cs3
	.byte	W12
	.byte			Dn3
	.byte	W12
	.byte			Fn3
	.byte	W12
	.byte		N04	, Dn3
	.byte	W06
	.byte		N06	, Cn3
	.byte	W06
	.byte			Cs3
	.byte	W06
	.byte			Dn3
	.byte	W06
	.byte		N04	, Fn3
	.byte	W06
	.byte	PATT	
		.word	mus_dark_mind_sky_5_1
	.byte	PATT	
		.word	mus_dark_mind_sky_5_1
	.byte	PATT	
		.word	mus_dark_mind_sky_5_1
	.byte	PATT	
		.word	mus_dark_mind_sky_5_1
	.byte	PATT	
		.word	mus_dark_mind_sky_5_1
	.byte	PATT	
		.word	mus_dark_mind_sky_5_1
	.byte	PATT	
		.word	mus_dark_mind_sky_5_1
	.byte	W96
	.byte	W96
	.byte	W96
	.byte	W96
	.byte	W96
	.byte	W96
	.byte	W96
	.byte	W96
	.byte	VOICE	, 43
	.byte	VOL	, v064
	.byte	PAN	, c_v
	.byte	MOD	, 4
	.byte	BEND	, c_v
	.byte		N01	, Fs3, v088
	.byte	W01
	.byte		N03	, Gn3, v092
	.byte	W05
	.byte		N10	, Bn2, v072
	.byte	W12
	.byte			Cn3
	.byte	W12
	.byte			Cs3, v080
	.byte	W12
	.byte			Dn3, v092
	.byte	W12
	.byte			Fn3, v072
	.byte	W12
	.byte		N04	, Dn3, v092
	.byte	W06
	.byte		N06	, Cn3
	.byte	W06
	.byte			Cs3
	.byte	W06
	.byte			Dn3
	.byte	W06
	.byte		N04	, Fn3
	.byte	W04
	.byte	MOD	, 3
	.byte	VOL	, v036
	.byte	PAN	, c_v-20
	.byte	W02
	.byte	GOTO	
		.word	mus_dark_mind_sky_5_3
	.byte	W96
	.byte	FINE

	@********************** Track  6 **********************@

	.global mus_dark_mind_sky_6
mus_dark_mind_sky_6:	@ 0x08D4B4ED
	.byte	KEYSH	, 0
	.byte	VOICE	, 39
	.byte	VOL	, v073
	.byte	PAN	, c_v
	.byte	MOD	, 1
	.byte	BEND	, c_v
	.byte	W96
	.byte	W84
	.byte		N04	, En3, v092
	.byte	W04
	.byte			Fn3, v100
	.byte	W04
	.byte			Fs3, v112
	.byte	W04
mus_dark_mind_sky_6_7:
	.byte	VOL	, v073
	.byte	PAN	, c_v-10
	.byte		N10	, Gn3, v120
	.byte	W12
	.byte		N06	, Fn3, v112
	.byte	W06
	.byte	PAN	, c_v+10
	.byte		N10	, Gn3, v092
	.byte	W12
	.byte		N06	, Fn3
	.byte	W06
	.byte	PAN	, c_v-10
	.byte		N10	, Gn3, v072
	.byte	W12
	.byte		N06	, Fn3
	.byte	W06
	.byte	PAN	, c_v+10
	.byte		N10	, Gn3, v052
	.byte	W12
	.byte		N06	, Fn3
	.byte	W06
	.byte	PAN	, c_v-10
	.byte		N10	, Gn3, v032
	.byte	W12
	.byte		N06	, Fn3
	.byte	W12
mus_dark_mind_sky_6_1:
	.byte	PAN	, c_v-10
	.byte		N10	, Gn3, v072
	.byte	W12
	.byte		N06	, Fn3
	.byte	W06
	.byte	PAN	, c_v+10
	.byte		N10	, Gn3, v060
	.byte	W12
	.byte		N06	, Fn3
	.byte	W06
	.byte	PAN	, c_v-10
	.byte		N10	, Gn3, v052
	.byte	W12
	.byte		N06	, Fn3
	.byte	W06
	.byte	PAN	, c_v+10
	.byte		N10	, Gn3, v040
	.byte	W12
	.byte		N06	, Fn3
	.byte	W06
	.byte	PAN	, c_v-10
	.byte		N10	, Gn3, v032
	.byte	W12
	.byte		N06	, Fn3
	.byte	W12
	.byte	PEND
mus_dark_mind_sky_6_2:
	.byte	PAN	, c_v-10
	.byte		N10	, Gn3, v112
	.byte	W12
	.byte		N06	, Fn3
	.byte	W06
	.byte	PAN	, c_v+10
	.byte		N10	, Gn3, v092
	.byte	W12
	.byte		N06	, Fn3
	.byte	W06
	.byte	PAN	, c_v-10
	.byte		N10	, Gn3, v072
	.byte	W12
	.byte		N06	, Fn3
	.byte	W06
	.byte	PAN	, c_v+10
	.byte		N10	, Gn3, v052
	.byte	W12
	.byte		N06	, Fn3
	.byte	W06
	.byte	PAN	, c_v-10
	.byte		N10	, Gn3, v032
	.byte	W12
	.byte		N06	, Fn3
	.byte	W12
	.byte	PEND
mus_dark_mind_sky_6_3:
	.byte	PAN	, c_v-10
	.byte		N10	, Gn3, v072
	.byte	W12
	.byte		N06	, Fn3
	.byte	W06
	.byte	PAN	, c_v+10
	.byte		N10	, Gn3, v060
	.byte	W12
	.byte		N06	, Fn3
	.byte	W06
	.byte	PAN	, c_v-10
	.byte		N10	, Gn3, v052
	.byte	W12
	.byte		N06	, Fn3
	.byte	W06
	.byte	PAN	, c_v+10
	.byte		N10	, Gn3, v040
	.byte	W12
	.byte		N06	, Fn3
	.byte	W06
	.byte	PAN	, c_v-10
	.byte		N10	, Gn3, v032
	.byte	W12
	.byte	PAN	, c_v
	.byte		N04	, En3, v092
	.byte	W04
	.byte			Fn3, v100
	.byte	W04
	.byte			Fs3, v112
	.byte	W04
	.byte	PEND
	.byte	PAN	, c_v-10
	.byte		N10	, Gn3, v120
	.byte	W12
	.byte		N06	, Fn3, v112
	.byte	W06
	.byte	PAN	, c_v+10
	.byte		N10	, Gn3, v092
	.byte	W12
	.byte		N06	, Fn3
	.byte	W06
	.byte	PAN	, c_v-10
	.byte		N10	, Gn3, v072
	.byte	W12
	.byte		N06	, Fn3
	.byte	W06
	.byte	PAN	, c_v+10
	.byte		N10	, Gn3, v052
	.byte	W12
	.byte		N06	, Fn3
	.byte	W06
	.byte	PAN	, c_v-10
	.byte		N10	, Gn3, v032
	.byte	W12
	.byte		N06	, Fn3
	.byte	W12
	.byte	PATT	
		.word	mus_dark_mind_sky_6_1
	.byte	PATT	
		.word	mus_dark_mind_sky_6_2
	.byte	PATT	
		.word	mus_dark_mind_sky_6_1
	.byte	W96
	.byte	W96
	.byte	W96
	.byte	W96
	.byte	W96
	.byte	W72
	.byte	PAN	, c_v
	.byte	W12
	.byte		N03	, Ds2, v072
	.byte	W03
	.byte			En2, v080
	.byte	W03
	.byte			Fn2, v092
	.byte	W03
	.byte			Fs2, v100
	.byte	W03
	.byte		N04	, Gn2, v120
	.byte	W06
	.byte		N09	, As2
	.byte	W09
	.byte		N02	, As2, v072
	.byte	W03
	.byte		N09	, Bn2, v120
	.byte	W09
	.byte		N02	, Bn2, v072
	.byte	W03
	.byte		N09	, Cn3, v120
	.byte	W09
	.byte		N02	, Cn3, v072
	.byte	W03
	.byte		N06	, Gn2, v120
	.byte	W09
	.byte		N02	, Gn2, v072
	.byte	W03
	.byte		N03	, Gn2, v120
	.byte	W06
	.byte		N09	, As2
	.byte	W09
	.byte		N02	, As2, v072
	.byte	W03
	.byte		N09	, Bn2, v120
	.byte	W09
	.byte		N02	, Bn2, v072
	.byte	W03
	.byte		N09	, Cn3, v120
	.byte	W09
	.byte		N02	, Cn3, v072
	.byte	W03
	.byte	VOL	, v078
	.byte	PAN	, c_v
	.byte		N03	, Gn3, v112
	.byte	W06
	.byte		N09	, As3
	.byte	W09
	.byte		N02	, As3, v060
	.byte	W03
	.byte		N09	, Bn3, v112
	.byte	W09
	.byte		N02	, Bn3, v060
	.byte	W03
	.byte		N09	, Cn4, v112
	.byte	W09
	.byte		N02	, Cn4, v060
	.byte	W03
	.byte		N06	, Gn3, v112
	.byte	W09
	.byte		N02	, Gn3, v060
	.byte	W03
	.byte		N03	, Gn3, v112
	.byte	W06
	.byte		N09	, As3
	.byte	W09
	.byte		N02	, As3, v060
	.byte	W03
	.byte		N09	, Bn3, v112
	.byte	W09
	.byte		N02	, Bn3, v060
	.byte	W03
	.byte		N09	, Cn4, v112
	.byte	W09
	.byte		N02	, Cn4, v060
	.byte	W03
	.byte	PATT	
		.word	mus_dark_mind_sky_6_2
	.byte	PATT	
		.word	mus_dark_mind_sky_6_1
	.byte	PATT	
		.word	mus_dark_mind_sky_6_2
	.byte	PATT	
		.word	mus_dark_mind_sky_6_3
	.byte	PATT	
		.word	mus_dark_mind_sky_6_2
	.byte	PATT	
		.word	mus_dark_mind_sky_6_1
	.byte	PATT	
		.word	mus_dark_mind_sky_6_2
	.byte	PATT	
		.word	mus_dark_mind_sky_6_1
mus_dark_mind_sky_6_4:
	.byte	PAN	, c_v-20
	.byte		N06	, Dn3, v080
	.byte	W06
	.byte		N04	, Dn2, v060
	.byte	W06
	.byte			Dn2, v040
	.byte	W06
	.byte	PAN	, c_v+20
	.byte		N06	, Dn3, v080
	.byte	W06
	.byte		N04	, Dn2, v060
	.byte	W06
	.byte			Dn2, v040
	.byte	W06
	.byte	PAN	, c_v-20
	.byte		N06	, Dn3, v080
	.byte	W06
	.byte		N04	, Dn2, v060
	.byte	W06
	.byte			Dn2, v040
	.byte	W06
	.byte	PAN	, c_v+20
	.byte		N06	, Dn3, v080
	.byte	W06
	.byte		N04	, Dn2, v060
	.byte	W06
	.byte			Dn2, v040
	.byte	W06
	.byte	PAN	, c_v-20
	.byte		N06	, Dn3, v080
	.byte	W06
	.byte		N04	, Dn2, v060
	.byte	W06
	.byte	PAN	, c_v+20
	.byte		N06	, Dn3, v080
	.byte	W06
	.byte	PAN	, c_v-20
	.byte		N06	, Cs3, v092
	.byte	W06
	.byte	PEND
mus_dark_mind_sky_6_5:
	.byte	PAN	, c_v-20
	.byte		N06	, Cn3, v080
	.byte	W06
	.byte		N04	, Cn2, v060
	.byte	W06
	.byte			Cn2, v040
	.byte	W06
	.byte	PAN	, c_v+20
	.byte		N06	, Cn3, v080
	.byte	W06
	.byte		N04	, Cn2, v060
	.byte	W06
	.byte			Cn2, v040
	.byte	W06
	.byte	PAN	, c_v-20
	.byte		N06	, Cn3, v080
	.byte	W06
	.byte		N04	, Cn2, v060
	.byte	W06
	.byte			Cn2, v040
	.byte	W06
	.byte	PAN	, c_v+20
	.byte		N06	, Cn3, v080
	.byte	W06
	.byte		N04	, Cn2, v060
	.byte	W06
	.byte			Cn2, v040
	.byte	W06
	.byte	PAN	, c_v-20
	.byte		N06	, Cn3, v080
	.byte	W06
	.byte		N04	, Cn2, v060
	.byte	W06
	.byte	PAN	, c_v+20
	.byte		N06	, Cn3, v080
	.byte	W06
	.byte	PAN	, c_v-20
	.byte		N06	, Cs3, v092
	.byte	W06
	.byte	PEND
	.byte	PATT	
		.word	mus_dark_mind_sky_6_4
	.byte	PATT	
		.word	mus_dark_mind_sky_6_5
mus_dark_mind_sky_6_6:
	.byte	PAN	, c_v-20
	.byte		N06	, Dn4, v080
	.byte	W06
	.byte		N04	, Dn3, v060
	.byte	W06
	.byte			Dn3, v040
	.byte	W06
	.byte	PAN	, c_v+20
	.byte		N06	, Dn4, v080
	.byte	W06
	.byte		N04	, Dn3, v060
	.byte	W06
	.byte			Dn3, v040
	.byte	W06
	.byte	PAN	, c_v-20
	.byte		N06	, Dn4, v080
	.byte	W06
	.byte		N04	, Dn3, v060
	.byte	W06
	.byte			Dn3, v040
	.byte	W06
	.byte	PAN	, c_v+20
	.byte		N06	, Dn4, v080
	.byte	W06
	.byte		N04	, Dn3, v060
	.byte	W06
	.byte			Dn3, v040
	.byte	W06
	.byte	PAN	, c_v-20
	.byte		N06	, Dn4, v080
	.byte	W06
	.byte		N04	, Dn3, v060
	.byte	W06
	.byte	PAN	, c_v+20
	.byte		N06	, Dn4, v080
	.byte	W06
	.byte	PAN	, c_v-20
	.byte		N06	, Cs4, v092
	.byte	W06
	.byte	PEND
	.byte	PAN	, c_v-20
	.byte		N06	, Cn4, v080
	.byte	W06
	.byte		N04	, Cn3, v060
	.byte	W06
	.byte			Cn3, v040
	.byte	W06
	.byte	PAN	, c_v+20
	.byte		N06	, Cn4, v080
	.byte	W06
	.byte		N04	, Cn3, v060
	.byte	W06
	.byte			Cn3, v040
	.byte	W06
	.byte	PAN	, c_v-20
	.byte		N06	, Cn4, v080
	.byte	W06
	.byte		N04	, Cn3, v060
	.byte	W06
	.byte			Cn3, v040
	.byte	W06
	.byte	PAN	, c_v+20
	.byte		N06	, Cn4, v080
	.byte	W06
	.byte		N04	, Cn3, v060
	.byte	W06
	.byte			Cn3, v040
	.byte	W06
	.byte	PAN	, c_v-20
	.byte		N06	, Cn4, v080
	.byte	W06
	.byte		N04	, Cn3, v060
	.byte	W06
	.byte	PAN	, c_v+20
	.byte		N06	, Cn4, v080
	.byte	W06
	.byte	PAN	, c_v-20
	.byte		N06	, Cs4, v092
	.byte	W06
	.byte	PATT	
		.word	mus_dark_mind_sky_6_6
	.byte	PAN	, c_v-20
	.byte		N06	, Cn4, v080
	.byte	W06
	.byte		N04	, Cn3, v060
	.byte	W06
	.byte			Cn3, v040
	.byte	W06
	.byte	PAN	, c_v+20
	.byte		N06	, Cn4, v080
	.byte	W06
	.byte		N04	, Cn3, v060
	.byte	W06
	.byte			Cn3, v040
	.byte	W06
	.byte	PAN	, c_v-20
	.byte		N06	, Cn4, v080
	.byte	W06
	.byte		N04	, Cn3, v060
	.byte	W06
	.byte			Cn3, v040
	.byte	W06
	.byte	PAN	, c_v+20
	.byte		N06	, Cn4, v080
	.byte	W06
	.byte		N04	, Cn3, v060
	.byte	W06
	.byte			Cn3, v040
	.byte	W06
	.byte	PAN	, c_v-20
	.byte		N06	, Cn4, v080
	.byte	W06
	.byte		N04	, Cn3, v060
	.byte	W06
	.byte	PAN	, c_v+20
	.byte		N06	, Cn4, v080
	.byte	W06
	.byte	PAN	, c_v
	.byte		N03	, Cn3
	.byte	W03
	.byte			Cs3, v092
	.byte	W03
	.byte	VOL	, v073
	.byte	PAN	, c_v-10
	.byte	W96
	.byte	GOTO	
		.word	mus_dark_mind_sky_6_7
	.byte	W96
	.byte	FINE

	.align 2
	.global mus_dark_mind_sky
mus_dark_mind_sky:	@ 0x08D4B858
	.byte	6		@ trackCount
	.byte	0		@ blockCount
	.byte	128		@ priority
	.byte	128		@ reverb

	.word	voicegroup000		@ voicegroup/tone

	.word	mus_dark_mind_sky_1		@ track
	.word	mus_dark_mind_sky_2		@ track
	.word	mus_dark_mind_sky_3		@ track
	.word	mus_dark_mind_sky_4		@ track
	.word	mus_dark_mind_sky_5		@ track
	.word	mus_dark_mind_sky_6		@ track
