	.include "MPlayDef.s"

	.section .rodata

	@********************** Track  1 **********************@

	.align 2
	.global mus_mustard_mountain_1
mus_mustard_mountain_1:	@ 0x08D42F68
	.byte	KEYSH	, 0
	.byte	TEMPO	, 69
	.byte	VOICE	, 67
	.byte	VOL	, v103
	.byte	PAN	, c_v
	.byte	BEND	, c_v
	.byte		N11	, Gs1, v120
	.byte		N36	, Cs3, v040
	.byte	W12
	.byte		N12	, Bn1, v060
	.byte	W12
	.byte			As1, v040
	.byte	W12
	.byte			An0, v100
	.byte		N06	, Bn1, v060
	.byte	W06
	.byte		N06	
	.byte	W06
	.byte		N12	, Gs1, v120
	.byte	W12
	.byte			Bn1, v060
	.byte	W12
	.byte			As1, v040
	.byte	W12
	.byte			An0, v100
	.byte	W12
mus_mustard_mountain_1_1:
	.byte		N12	, Gs1, v120
	.byte	W12
	.byte			Bn1, v060
	.byte	W12
	.byte			As1, v052
	.byte	W12
	.byte		N06	, Bn1, v060
	.byte	W06
	.byte		N06	
	.byte	W06
	.byte		N12	, Gs1, v120
	.byte	W12
	.byte			Bn1, v060
	.byte	W12
	.byte			As1, v052
	.byte	W12
	.byte			An0, v100
	.byte	W12
	.byte	PEND
	.byte		N11	, Gs1, v120
	.byte		N36	, Cs3, v040
	.byte	W12
	.byte		N12	, Bn1, v060
	.byte	W12
	.byte			As1, v040
	.byte	W12
	.byte			An0, v100
	.byte		N06	, Bn1, v060
	.byte	W06
	.byte		N06	
	.byte	W06
	.byte		N12	, Gs1, v120
	.byte	W12
	.byte			Bn1, v060
	.byte	W12
	.byte			As1, v040
	.byte	W12
	.byte			An0, v100
	.byte	W12
	.byte	PATT	
		.word	mus_mustard_mountain_1_1
mus_mustard_mountain_1_6:
	.byte		N48	, Cs1, v040
	.byte		N11	, Gs1, v120
	.byte	W12
	.byte		N12	, Bn1, v060
	.byte	W12
	.byte			As1, v040
	.byte	W12
	.byte		N06	, Bn1, v060
	.byte	W06
	.byte		N06	
	.byte	W06
	.byte		N12	, Gs1, v120
	.byte	W12
	.byte			Bn1, v040
	.byte	W12
	.byte			As1, v052
	.byte	W12
	.byte			An0, v100
	.byte	W12
mus_mustard_mountain_1_3:
	.byte		N11	, Gs1, v120
	.byte	W12
	.byte		N12	, Bn1, v060
	.byte	W12
	.byte			As1, v052
	.byte	W12
	.byte		N06	, Bn1, v060
	.byte	W06
	.byte		N06	
	.byte	W06
	.byte		N12	, Gs1, v120
	.byte	W12
	.byte			Bn1, v040
	.byte	W12
	.byte			As1
	.byte	W12
	.byte			An0, v100
	.byte	W12
	.byte	PEND
mus_mustard_mountain_1_2:
	.byte		N11	, Gs1, v120
	.byte	W12
	.byte		N12	, Bn1, v060
	.byte	W12
	.byte			As1, v040
	.byte	W12
	.byte		N06	, Bn1, v060
	.byte	W06
	.byte		N06	
	.byte	W06
	.byte		N12	, Gs1, v120
	.byte	W12
	.byte			Bn1, v040
	.byte	W12
	.byte			As1
	.byte	W12
	.byte			An0, v100
	.byte	W12
	.byte	PEND
	.byte	PATT	
		.word	mus_mustard_mountain_1_2
	.byte	PATT	
		.word	mus_mustard_mountain_1_2
	.byte	PATT	
		.word	mus_mustard_mountain_1_2
	.byte	PATT	
		.word	mus_mustard_mountain_1_2
	.byte		N11	, Gs1, v120
	.byte	W12
	.byte		N12	, Bn1, v060
	.byte	W12
	.byte			As1, v040
	.byte	W12
	.byte		N06	, Bn1, v060
	.byte	W06
	.byte		N06	
	.byte	W06
	.byte		N12	, Gs1, v120
	.byte	W12
	.byte			Bn1, v040
	.byte	W12
	.byte			As1, v052
	.byte	W12
	.byte		N06	
	.byte	W06
	.byte		N06	
	.byte	W06
	.byte		N48	, Cs1, v040
	.byte		N11	, Gs1, v120
	.byte	W12
	.byte		N12	, Bn1, v060
	.byte	W12
	.byte			As1, v040
	.byte	W12
	.byte		N06	, Bn1, v060
	.byte	W06
	.byte		N06	
	.byte	W06
	.byte		N12	, Gs1, v120
	.byte	W12
	.byte			Bn1, v040
	.byte	W12
	.byte			As1, v052
	.byte	W12
	.byte			An0, v100
	.byte	W12
	.byte	PATT	
		.word	mus_mustard_mountain_1_3
	.byte	PATT	
		.word	mus_mustard_mountain_1_2
	.byte	PATT	
		.word	mus_mustard_mountain_1_2
	.byte	PATT	
		.word	mus_mustard_mountain_1_2
	.byte	PATT	
		.word	mus_mustard_mountain_1_2
	.byte	PATT	
		.word	mus_mustard_mountain_1_2
	.byte		N11	, Gs1, v120
	.byte	W12
	.byte		N12	, Bn1, v060
	.byte	W12
	.byte			As1, v040
	.byte	W12
	.byte		N06	, Bn1, v060
	.byte	W06
	.byte		N06	
	.byte	W06
	.byte		N08	, Cn3, v052
	.byte	W08
	.byte			Cn3, v056
	.byte	W08
	.byte			Cn3, v060
	.byte	W08
	.byte			Cn3, v072
	.byte	W08
	.byte			Cn3, v080
	.byte	W08
	.byte			Cn3, v092
	.byte	W08
mus_mustard_mountain_1_4:
	.byte		N48	, Cs1, v036
	.byte		N12	, Gs1, v100
	.byte	W24
	.byte		N08	, Bn1, v060
	.byte	W08
	.byte			Bn1, v040
	.byte	W08
	.byte			Bn1, v060
	.byte	W08
	.byte		N12	, Gs1, v052
	.byte	W36
	.byte		N08	, Bn1
	.byte	W12
	.byte	PEND
mus_mustard_mountain_1_5:
	.byte		N12	, Gs1, v100
	.byte	W24
	.byte		N08	, Bn1, v060
	.byte	W08
	.byte			Bn1, v052
	.byte	W08
	.byte			Bn1, v060
	.byte	W08
	.byte		N12	, Gs1, v100
	.byte	W24
	.byte		N08	, Bn1, v060
	.byte	W08
	.byte			Bn1, v052
	.byte	W08
	.byte			Bn1, v060
	.byte	W08
	.byte	PEND
	.byte	PATT	
		.word	mus_mustard_mountain_1_4
	.byte	PATT	
		.word	mus_mustard_mountain_1_5
	.byte	PATT	
		.word	mus_mustard_mountain_1_4
	.byte	PATT	
		.word	mus_mustard_mountain_1_5
	.byte	PATT	
		.word	mus_mustard_mountain_1_4
	.byte	PATT	
		.word	mus_mustard_mountain_1_5
	.byte		N42	, Cs1, v036
	.byte		N11	, Gs1, v120
	.byte	W12
	.byte		N12	, Bn1, v060
	.byte	W12
	.byte			As1, v040
	.byte	W12
	.byte			An0, v100
	.byte		N06	, Bn1, v060
	.byte	W06
	.byte		N06	
	.byte	W06
	.byte		N12	, Gs1, v120
	.byte	W12
	.byte			Bn1, v060
	.byte	W12
	.byte			As1, v040
	.byte	W12
	.byte			An0, v100
	.byte	W12
	.byte	PATT	
		.word	mus_mustard_mountain_1_1
	.byte	VOICE	, 67
	.byte	VOL	, v103
	.byte	PAN	, c_v
	.byte	BEND	, c_v
	.byte		N11	, Gs1, v120
	.byte	W12
	.byte		N12	, Bn1, v060
	.byte	W12
	.byte			As1, v040
	.byte	W12
	.byte			An0, v100
	.byte		N06	, Bn1, v060
	.byte	W06
	.byte		N06	
	.byte	W06
	.byte		N12	, Gs1, v120
	.byte	W12
	.byte			Bn1, v060
	.byte	W12
	.byte			As1, v040
	.byte	W12
	.byte			An0, v100
	.byte	W12
	.byte	PATT	
		.word	mus_mustard_mountain_1_1
	.byte	GOTO	
		.word	mus_mustard_mountain_1_6
	.byte	W96
	.byte	FINE

	@********************** Track  2 **********************@

	.global mus_mustard_mountain_2
mus_mustard_mountain_2:	@ 0x08D43180
	.byte	KEYSH	, 0
	.byte	VOICE	, 110
	.byte	PAN	, c_v
	.byte	MOD	, 0
	.byte	VOL	, v088
	.byte		N11	, Gs2, v120
	.byte	W12
	.byte		N09	, Ds4, v092
	.byte	W24
	.byte		N12	, Ds3, v112
	.byte	W12
	.byte			Gs2, v120
	.byte	W12
	.byte		N09	, Ds4, v092
	.byte	W24
	.byte		N12	, Ds3, v112
	.byte	W12
mus_mustard_mountain_2_1:
	.byte		N11	, Gs2, v120
	.byte	W12
	.byte		N09	, Ds4, v092
	.byte	W24
	.byte		N12	, Ds3, v112
	.byte	W12
	.byte			Gs2, v120
	.byte	W12
	.byte		N09	, Ds4, v092
	.byte	W24
	.byte		N12	, Ds3, v112
	.byte	W12
	.byte	PEND
	.byte	PATT	
		.word	mus_mustard_mountain_2_1
	.byte	PATT	
		.word	mus_mustard_mountain_2_1
mus_mustard_mountain_2_6:
	.byte		N11	, Gs2, v120
	.byte	W12
	.byte		N09	, Ds4, v092
	.byte	W24
	.byte		N12	, Ds3, v112
	.byte	W12
	.byte			Gs2, v120
	.byte	W12
	.byte		N09	, Ds4, v092
	.byte	W24
	.byte		N12	, Ds3, v112
	.byte	W12
	.byte	PATT	
		.word	mus_mustard_mountain_2_1
	.byte	PATT	
		.word	mus_mustard_mountain_2_1
	.byte	PATT	
		.word	mus_mustard_mountain_2_1
	.byte	PATT	
		.word	mus_mustard_mountain_2_1
	.byte	PATT	
		.word	mus_mustard_mountain_2_1
	.byte	PATT	
		.word	mus_mustard_mountain_2_1
	.byte	PATT	
		.word	mus_mustard_mountain_2_1
mus_mustard_mountain_2_2:
	.byte		N11	, Gs2, v112
	.byte	W12
	.byte		N09	, Ds4, v080
	.byte	W24
	.byte		N12	, Ds3, v100
	.byte	W12
	.byte			Gs2, v112
	.byte	W12
	.byte		N09	, Ds4, v080
	.byte	W24
	.byte		N12	, Ds3, v100
	.byte	W12
	.byte	PEND
	.byte	PATT	
		.word	mus_mustard_mountain_2_2
	.byte	PATT	
		.word	mus_mustard_mountain_2_2
	.byte	PATT	
		.word	mus_mustard_mountain_2_2
	.byte	PATT	
		.word	mus_mustard_mountain_2_2
	.byte	PATT	
		.word	mus_mustard_mountain_2_2
	.byte	PATT	
		.word	mus_mustard_mountain_2_1
	.byte	PATT	
		.word	mus_mustard_mountain_2_1
mus_mustard_mountain_2_3:
	.byte		N21	, Gs2, v120
	.byte	W24
	.byte		N08	, Gs3, v100
	.byte	W08
	.byte			Ds3, v112
	.byte	W08
	.byte			Gs3, v100
	.byte	W08
	.byte		N12	
	.byte	W12
	.byte		N18	, Gs2, v120
	.byte	W24
	.byte		N12	, Gs2, v112
	.byte	W12
	.byte	PEND
mus_mustard_mountain_2_4:
	.byte		N21	, Fs2, v120
	.byte	W24
	.byte		N08	, Fs3, v100
	.byte	W08
	.byte			Fs2, v112
	.byte	W08
	.byte			Fs3, v100
	.byte	W08
	.byte		N21	, Fn2, v120
	.byte	W24
	.byte			Fs2
	.byte	W24
	.byte	PEND
	.byte	PATT	
		.word	mus_mustard_mountain_2_3
	.byte	PATT	
		.word	mus_mustard_mountain_2_4
	.byte	PATT	
		.word	mus_mustard_mountain_2_3
	.byte	PATT	
		.word	mus_mustard_mountain_2_4
	.byte	PATT	
		.word	mus_mustard_mountain_2_3
	.byte	PATT	
		.word	mus_mustard_mountain_2_4
mus_mustard_mountain_2_5:
	.byte		N11	, Cs2, v120
	.byte	W12
	.byte		N09	, Gs3, v092
	.byte	W24
	.byte		N12	, Gs2, v112
	.byte	W12
	.byte			Cs2, v120
	.byte	W12
	.byte		N09	, Gs3, v092
	.byte	W24
	.byte		N12	, Gs2, v112
	.byte	W12
	.byte	PEND
	.byte	PATT	
		.word	mus_mustard_mountain_2_5
	.byte	PATT	
		.word	mus_mustard_mountain_2_1
	.byte	PATT	
		.word	mus_mustard_mountain_2_1
	.byte	GOTO	
		.word	mus_mustard_mountain_2_6
	.byte	W96
	.byte	FINE

	@********************** Track  3 **********************@

	.global mus_mustard_mountain_3
mus_mustard_mountain_3:	@ 0x08D432B2
	.byte	KEYSH	, 0
	.byte	VOICE	, 11
	.byte	MOD	, 7
	.byte	LFOS	, 28
	.byte	LFODL	, 24
	.byte	VOL	, v054
	.byte	PAN	, c_v+10
	.byte	W96
	.byte	W72
	.byte	BEND	, c_v
	.byte	W24
	.byte	W96
	.byte	W96
mus_mustard_mountain_3_5:
	.byte		N36	, Gs2, v072
	.byte	W36
	.byte		N48	, Bn2
	.byte	W48
	.byte		N06	, Fs2
	.byte	W06
	.byte			Gn2
	.byte	W06
	.byte		N24	, Gs2
	.byte	W24
	.byte		N12	, Bn2
	.byte	W12
	.byte		N24	, Cs3
	.byte	W24
	.byte			Dn3
	.byte	W24
	.byte		N06	, Fs3
	.byte	W06
	.byte			Gn3
	.byte	W06
	.byte	BEND	, c_v-32
	.byte		N16	, Gs3
	.byte	W03
	.byte	BEND	, c_v
	.byte	W13
	.byte		N16	, Ds3
	.byte	W16
	.byte			Fs3
	.byte	W16
	.byte			Cs3
	.byte	W16
	.byte			Fn3
	.byte	W16
	.byte		N10	, Cn3
	.byte	W10
	.byte		N03	, Dn3
	.byte	W03
	.byte			Ds3
	.byte	W03
	.byte		N16	, En3
	.byte	W16
	.byte			Bn2
	.byte	W16
	.byte			Ds3
	.byte	W16
	.byte			As2
	.byte	W16
	.byte			Dn3
	.byte	W16
	.byte			An2
	.byte	W16
	.byte		TIE	, Gs2
	.byte	W36
	.byte	MOD	, 6
	.byte	W36
	.byte		9
	.byte	W24
mus_mustard_mountain_3_1:
	.byte	W12
	.byte	MOD	, 12
	.byte	W12
	.byte	VOL	, v067
	.byte	W12
	.byte	MOD	, 15
	.byte	W36
	.byte	VOL	, v066
	.byte	W06
	.byte		v063
	.byte	W06
	.byte		v060
	.byte	W06
	.byte		v057
	.byte	W06
	.byte	PEND
mus_mustard_mountain_3_2:
	.byte	VOL	, v053
	.byte	W06
	.byte		v051
	.byte	W06
	.byte		v048
	.byte	W06
	.byte		v044
	.byte	W06
	.byte		v042
	.byte	W06
	.byte		v038
	.byte	W06
	.byte		v036
	.byte	W06
	.byte		v032
	.byte	W06
	.byte		v029
	.byte	W06
	.byte		v026
	.byte	W06
	.byte		v023
	.byte	W06
	.byte		v020
	.byte	W06
	.byte	PEND
	.byte		EOT	, Gs2
	.byte	VOL	, v017
	.byte	W24
	.byte	MOD	, 5
	.byte	VOL	, v058
	.byte	W96
	.byte	PAN	, c_v+20
	.byte		N36	, Gs2, v060
	.byte	W36
	.byte		N48	, Bn2
	.byte	W48
	.byte		N06	, Fs2
	.byte	W06
	.byte			Gn2
	.byte	W06
	.byte		N24	, Gs2
	.byte	W24
	.byte		N12	, Bn2
	.byte	W12
	.byte		N24	, Cs3
	.byte	W24
	.byte			Dn3
	.byte	W24
	.byte		N06	, Fs3
	.byte	W06
	.byte			Gn3
	.byte	W06
	.byte	BEND	, c_v-32
	.byte		N16	, Gs3
	.byte	W03
	.byte	BEND	, c_v
	.byte	W13
	.byte		N16	, Ds3
	.byte	W16
	.byte			Fs3
	.byte	W16
	.byte			Cs3
	.byte	W16
	.byte			Fn3
	.byte	W16
	.byte		N10	, Cn3
	.byte	W10
	.byte		N03	, Dn3
	.byte	W03
	.byte			Ds3
	.byte	W03
	.byte		N16	, En3
	.byte	W16
	.byte			Bn2
	.byte	W16
	.byte			Ds3
	.byte	W16
	.byte			As2
	.byte	W16
	.byte			Dn3
	.byte	W16
	.byte			An2
	.byte	W16
	.byte		TIE	, Gs2
	.byte	W36
	.byte	MOD	, 6
	.byte	W36
	.byte		9
	.byte	W24
	.byte	PATT	
		.word	mus_mustard_mountain_3_1
	.byte	PATT	
		.word	mus_mustard_mountain_3_2
	.byte		EOT	, Gs2
	.byte	VOL	, v017
	.byte	W24
	.byte	VOICE	, 113
	.byte	MOD	, 5
	.byte	VOL	, v048
	.byte	W96
	.byte	PAN	, c_v+10
	.byte		N44	, Gs2, v112
	.byte	W48
	.byte		N32	, Ds2
	.byte	W36
	.byte		N04	
	.byte	W06
	.byte			Fn2
	.byte	W06
mus_mustard_mountain_3_3:
	.byte		N44	, Fs2, v112
	.byte	W48
	.byte		N13	, Fn2
	.byte	W16
	.byte			Ds2
	.byte	W16
	.byte			Cs2
	.byte	W16
	.byte	PEND
mus_mustard_mountain_3_4:
	.byte		N48	, Gs2, v112
	.byte	W48
	.byte		N22	, Ds2
	.byte	W24
	.byte			Fn2
	.byte	W24
	.byte	PEND
	.byte		N30	, Fs2
	.byte	W32
	.byte		N06	, Fn2
	.byte	W08
	.byte			Fs2
	.byte	W08
	.byte		N24	, Cs2
	.byte	W24
	.byte		N21	, Fs2, v092
	.byte	W24
	.byte		N44	, Gs2, v112
	.byte	W48
	.byte		N32	, Ds2
	.byte	W36
	.byte		N04	
	.byte	W06
	.byte			Fn2
	.byte	W06
	.byte	PATT	
		.word	mus_mustard_mountain_3_3
	.byte	PATT	
		.word	mus_mustard_mountain_3_4
	.byte		N30	, Fs2, v112
	.byte	W32
	.byte		N06	, Fn2
	.byte	W08
	.byte			Fs2
	.byte	W08
	.byte		N22	, Cs2
	.byte	W24
	.byte		N21	, Fs2
	.byte	W24
	.byte	W96
	.byte	W96
	.byte	VOICE	, 11
	.byte	W06
	.byte	VOL	, v058
	.byte	W06
	.byte	LFODL	, 24
	.byte	LFOS	, 28
	.byte	PAN	, c_v+10
	.byte	W06
	.byte	MOD	, 7
	.byte	W06
	.byte	BEND	, c_v
	.byte	W72
	.byte	W96
	.byte	GOTO	
		.word	mus_mustard_mountain_3_5
	.byte	W96
	.byte	FINE

	@********************** Track  4 **********************@

	.global mus_mustard_mountain_4
mus_mustard_mountain_4:	@ 0x08D4341E
	.byte	KEYSH	, 0
	.byte	VOICE	, 11
	.byte	MOD	, 7
	.byte	LFOS	, 28
	.byte	LFODL	, 24
	.byte	VOL	, v058
	.byte	PAN	, c_v-20
	.byte	W96
	.byte	W72
	.byte	BEND	, c_v
	.byte	W24
	.byte	W96
	.byte	W96
mus_mustard_mountain_4_1:
	.byte		N36	, Ds2, v072
	.byte	W36
	.byte		N54	, Fs2
	.byte	W60
	.byte		N24	, Ds2
	.byte	W24
	.byte		N12	, Fs2
	.byte	W12
	.byte		N24	, Gs2
	.byte	W24
	.byte			An2
	.byte	W24
	.byte		N06	, Ds3
	.byte	W06
	.byte			As2
	.byte	W06
	.byte	BEND	, c_v-32
	.byte		N16	, Ds3
	.byte	W03
	.byte	BEND	, c_v
	.byte	W13
	.byte		N16	, As2
	.byte	W16
	.byte			Cs3
	.byte	W16
	.byte			Gs2
	.byte	W16
	.byte			Cn3
	.byte	W16
	.byte		N10	, Gn2
	.byte	W10
	.byte		N03	, An2
	.byte	W03
	.byte			As2
	.byte	W03
	.byte		N16	, Bn2
	.byte	W16
	.byte			Fs2
	.byte	W16
	.byte			As2
	.byte	W16
	.byte			Ds2
	.byte	W16
	.byte			An2
	.byte	W16
	.byte			En2
	.byte	W16
	.byte		TIE	, Ds2
	.byte	W36
	.byte	MOD	, 6
	.byte	W36
	.byte		9
	.byte	W24
	.byte	W12
	.byte		12
	.byte	W12
	.byte	VOL	, v067
	.byte	W12
	.byte	MOD	, 15
	.byte	W30
	.byte	VOL	, v066
	.byte	W06
	.byte		v064
	.byte	W06
	.byte		v061
	.byte	W06
	.byte		v058
	.byte	W06
	.byte		v055
	.byte	W06
	.byte		v052
	.byte	W06
	.byte		v049
	.byte	W06
	.byte		v046
	.byte	W06
	.byte		v043
	.byte	W06
	.byte		v040
	.byte	W06
	.byte		v037
	.byte	W06
	.byte		v035
	.byte	W06
	.byte		v032
	.byte	W06
	.byte		v029
	.byte	W06
	.byte		v026
	.byte	W06
	.byte		v023
	.byte	W06
	.byte		v020
	.byte	W06
	.byte		EOT	
	.byte	VOL	, v017
	.byte	W24
	.byte	MOD	, 5
	.byte	VOL	, v033
	.byte	W96
	.byte	PAN	, c_v-10
	.byte		N36	, Ds3, v076
	.byte	W36
	.byte		N54	, Fs3
	.byte	W60
	.byte		N24	, Ds3
	.byte	W24
	.byte		N12	, Fs3
	.byte	W12
	.byte		N24	, Gs3
	.byte	W24
	.byte			An3
	.byte	W24
	.byte		N06	, Ds4
	.byte	W06
	.byte			As3
	.byte	W06
	.byte	BEND	, c_v-32
	.byte		N16	, Ds4
	.byte	W03
	.byte	BEND	, c_v
	.byte	W13
	.byte		N16	, As3
	.byte	W16
	.byte			Cs4
	.byte	W16
	.byte			Gs3
	.byte	W16
	.byte			Cn4
	.byte	W16
	.byte		N10	, Gn3
	.byte	W10
	.byte		N03	, An3
	.byte	W03
	.byte			As3
	.byte	W03
	.byte		N16	, Bn3
	.byte	W16
	.byte			Fs3
	.byte	W16
	.byte			As3
	.byte	W16
	.byte			Ds3
	.byte	W16
	.byte			An3
	.byte	W16
	.byte			En3
	.byte	W16
	.byte		TIE	, Ds3
	.byte	W36
	.byte	MOD	, 6
	.byte	W36
	.byte		9
	.byte	W24
	.byte	W12
	.byte		12
	.byte	W12
	.byte	VOL	, v033
	.byte	W12
	.byte	MOD	, 15
	.byte	W30
	.byte	VOL	, v032
	.byte	W06
	.byte		v032
	.byte	W06
	.byte		v031
	.byte	W06
	.byte		v029
	.byte	W06
	.byte		v028
	.byte	W06
	.byte		v026
	.byte	W06
	.byte		v026
	.byte	W06
	.byte		v024
	.byte	W06
	.byte		v023
	.byte	W06
	.byte		v022
	.byte	W06
	.byte		v021
	.byte	W06
	.byte		v020
	.byte	W06
	.byte		v018
	.byte	W06
	.byte		v017
	.byte	W06
	.byte		v016
	.byte	W06
	.byte		v015
	.byte	W06
	.byte		v014
	.byte	W06
	.byte		EOT	
	.byte	VOL	, v012
	.byte	W24
	.byte	VOICE	, 114
	.byte	MOD	, 5
	.byte	VOL	, v054
	.byte	W96
	.byte	PAN	, c_v-20
	.byte		N44	, Ds2, v112
	.byte	W48
	.byte		N32	, As1
	.byte	W36
	.byte		N04	
	.byte	W06
	.byte			Cn2
	.byte	W06
	.byte		N44	, Cs2
	.byte	W48
	.byte		N13	, Cn2
	.byte	W16
	.byte			As1
	.byte	W16
	.byte			Gs1
	.byte	W16
	.byte		N48	, Ds2
	.byte	W48
	.byte		N22	, As1
	.byte	W24
	.byte			Cn2, v068
	.byte	W24
	.byte		N30	, Cs2, v112
	.byte	W32
	.byte		N06	, Cn2
	.byte	W08
	.byte			Cs2
	.byte	W08
	.byte		N22	, Gs1
	.byte	W24
	.byte		N21	, Cs2
	.byte	W24
	.byte		N44	, Cs3, v072
	.byte	W48
	.byte		N32	, Gs2
	.byte	W36
	.byte		N04	
	.byte	W06
	.byte			As2
	.byte	W06
	.byte		N44	, Bn2
	.byte	W48
	.byte		N13	, As2
	.byte	W16
	.byte			Gs2
	.byte	W16
	.byte			Fs2
	.byte	W16
	.byte		N48	, Cs3
	.byte	W48
	.byte		N22	, Gs2
	.byte	W24
	.byte			As2
	.byte	W24
	.byte		N30	, Bn2
	.byte	W32
	.byte		N06	, As2
	.byte	W08
	.byte			Bn2
	.byte	W08
	.byte		N22	, Fs2
	.byte	W24
	.byte		N21	, Bn2, v060
	.byte	W24
	.byte	W96
	.byte	W96
	.byte	VOICE	, 11
	.byte	W06
	.byte	PAN	, c_v-20
	.byte	VOL	, v058
	.byte	W06
	.byte	MOD	, 7
	.byte	LFOS	, 28
	.byte	LFODL	, 24
	.byte	W06
	.byte	BEND	, c_v
	.byte	W78
	.byte	W96
	.byte	GOTO	
		.word	mus_mustard_mountain_4_1
	.byte	W96
	.byte	FINE

	@********************** Track  5 **********************@

	.global mus_mustard_mountain_5
mus_mustard_mountain_5:	@ 0x08D435A2
	.byte	KEYSH	, 0
	.byte	VOICE	, 109
	.byte	MOD	, 0
	.byte	VOL	, v075
	.byte	PAN	, c_v-10
	.byte	BEND	, c_v
	.byte		N12	, An2, v120
	.byte	W12
	.byte		N18	, En3, v100
	.byte	W24
	.byte		N12	, An2, v120
	.byte	W12
	.byte		N12	
	.byte	W12
	.byte		N18	, En3, v100
	.byte	W24
	.byte		N12	, An2, v120
	.byte	W12
mus_mustard_mountain_5_1:
	.byte		N12	, An2, v120
	.byte	W12
	.byte		N18	, En3, v100
	.byte	W24
	.byte		N12	, An2, v120
	.byte	W12
	.byte		N12	
	.byte	W12
	.byte		N18	, En3, v100
	.byte	W24
	.byte		N12	, An2, v120
	.byte	W12
	.byte	PEND
	.byte	PATT	
		.word	mus_mustard_mountain_5_1
	.byte	PATT	
		.word	mus_mustard_mountain_5_1
mus_mustard_mountain_5_7:
	.byte	PAN	, c_v-20
	.byte		N12	, En3, v092
	.byte	W12
	.byte		N18	, An2, v080
	.byte	W24
	.byte		N12	, An2, v092
	.byte	W12
	.byte		N12	
	.byte	W12
	.byte		N18	, An2, v080
	.byte	W24
	.byte		N10	, En3, v092
	.byte	W12
mus_mustard_mountain_5_2:
	.byte		N12	, En3, v092
	.byte	W12
	.byte		N18	, An2, v080
	.byte	W24
	.byte		N12	, An2, v092
	.byte	W12
	.byte		N12	
	.byte	W12
	.byte		N18	, An2, v080
	.byte	W24
	.byte		N10	, En3, v092
	.byte	W12
	.byte	PEND
	.byte	PATT	
		.word	mus_mustard_mountain_5_2
	.byte	PATT	
		.word	mus_mustard_mountain_5_2
	.byte	PATT	
		.word	mus_mustard_mountain_5_2
	.byte	PATT	
		.word	mus_mustard_mountain_5_2
mus_mustard_mountain_5_3:
	.byte		N12	, En3, v116
	.byte	W12
	.byte		N18	, An2, v108
	.byte	W24
	.byte		N12	, An2, v116
	.byte	W12
	.byte		N12	
	.byte	W12
	.byte		N18	, An2, v108
	.byte	W24
	.byte		N10	, En3, v116
	.byte	W12
	.byte	PEND
	.byte	PATT	
		.word	mus_mustard_mountain_5_3
	.byte	PAN	, c_v-20
	.byte		N12	, En3, v092
	.byte	W12
	.byte		N18	, An2, v080
	.byte	W24
	.byte		N12	, An2, v092
	.byte	W12
	.byte		N12	
	.byte	W12
	.byte		N18	, An2, v080
	.byte	W24
	.byte		N10	, En3, v092
	.byte	W12
	.byte	PATT	
		.word	mus_mustard_mountain_5_2
	.byte	PATT	
		.word	mus_mustard_mountain_5_2
	.byte	PATT	
		.word	mus_mustard_mountain_5_2
	.byte	PATT	
		.word	mus_mustard_mountain_5_2
	.byte	PATT	
		.word	mus_mustard_mountain_5_2
	.byte	PATT	
		.word	mus_mustard_mountain_5_3
	.byte	PATT	
		.word	mus_mustard_mountain_5_3
mus_mustard_mountain_5_4:
	.byte		N21	, An2, v112
	.byte	W24
	.byte		N08	, An3, v080
	.byte	W08
	.byte			En3, v092
	.byte	W08
	.byte			An3, v080
	.byte	W08
	.byte		N12	
	.byte	W12
	.byte			En3, v092
	.byte	W12
	.byte			An2
	.byte	W12
	.byte			An3, v080
	.byte	W12
	.byte	PEND
mus_mustard_mountain_5_5:
	.byte		N21	, Gn2, v112
	.byte	W24
	.byte		N08	, Gn3, v080
	.byte	W08
	.byte			Dn3, v092
	.byte	W08
	.byte			Gn3
	.byte	W08
	.byte			Fs3, v080
	.byte	W08
	.byte			Cs3, v092
	.byte	W08
	.byte			Fs3, v080
	.byte	W08
	.byte			Gn3
	.byte	W08
	.byte			Dn3, v092
	.byte	W08
	.byte			Gn3, v080
	.byte	W08
	.byte	PEND
	.byte	PATT	
		.word	mus_mustard_mountain_5_4
	.byte	PATT	
		.word	mus_mustard_mountain_5_5
	.byte	PATT	
		.word	mus_mustard_mountain_5_4
	.byte	PATT	
		.word	mus_mustard_mountain_5_5
	.byte	PATT	
		.word	mus_mustard_mountain_5_4
	.byte	PATT	
		.word	mus_mustard_mountain_5_5
mus_mustard_mountain_5_6:
	.byte		N12	, An2, v108
	.byte	W12
	.byte		N18	, En3, v088
	.byte	W24
	.byte		N12	, An2, v108
	.byte	W12
	.byte		N12	
	.byte	W12
	.byte		N18	, En3, v088
	.byte	W24
	.byte		N12	, An2, v108
	.byte	W12
	.byte	PEND
	.byte	PATT	
		.word	mus_mustard_mountain_5_6
	.byte	PATT	
		.word	mus_mustard_mountain_5_1
	.byte	PATT	
		.word	mus_mustard_mountain_5_1
	.byte	GOTO	
		.word	mus_mustard_mountain_5_7
	.byte	W96
	.byte	FINE

	@********************** Track  6 **********************@

	.global mus_mustard_mountain_6
mus_mustard_mountain_6:	@ 0x08D43702
	.byte	KEYSH	, 0
	.byte	VOICE	, 105
	.byte	MOD	, 5
	.byte	LFOS	, 25
	.byte	LFODL	, 22
	.byte	VOL	, v075
	.byte	PAN	, c_v-20
	.byte	BEND	, c_v
	.byte		N11	, Ds3, v060
	.byte	W12
	.byte		N12	, Gs3, v072
	.byte	W24
	.byte		N06	, Gs3, v060
	.byte	W06
	.byte			Gs3, v072
	.byte	W06
	.byte		N12	, Ds3, v060
	.byte	W12
	.byte			Gs3, v072
	.byte	W24
	.byte			Gs3, v060
	.byte	W12
mus_mustard_mountain_6_1:
	.byte		N11	, Ds3, v060
	.byte	W12
	.byte		N12	, Gs3, v072
	.byte	W24
	.byte			Gs3, v060
	.byte	W12
	.byte			Ds3
	.byte	W12
	.byte			Gs3, v072
	.byte	W24
	.byte			Gs3, v060
	.byte	W12
	.byte	PEND
mus_mustard_mountain_6_2:
	.byte		N11	, Ds3, v060
	.byte	W12
	.byte		N12	, Gs3, v072
	.byte	W24
	.byte		N06	, Gs3, v060
	.byte	W06
	.byte			Gs3, v072
	.byte	W06
	.byte		N12	, Ds3, v060
	.byte	W12
	.byte			Gs3, v072
	.byte	W24
	.byte			Gs3, v060
	.byte	W12
	.byte	PEND
	.byte	PATT	
		.word	mus_mustard_mountain_6_1
mus_mustard_mountain_6_3:
	.byte	W96
	.byte	W96
	.byte	W96
	.byte	W96
	.byte	W96
	.byte	W96
	.byte	PATT	
		.word	mus_mustard_mountain_6_2
	.byte	PATT	
		.word	mus_mustard_mountain_6_1
	.byte	W96
	.byte	W96
	.byte	W96
	.byte	W96
	.byte	W96
	.byte	W96
	.byte	PATT	
		.word	mus_mustard_mountain_6_2
	.byte	PATT	
		.word	mus_mustard_mountain_6_1
	.byte	W96
	.byte	W96
	.byte	W96
	.byte	W96
	.byte	W96
	.byte	W96
	.byte	W96
	.byte	VOICE	, 111
	.byte	W96
	.byte	PAN	, c_v-60
	.byte		N08	, Gs3, v040
	.byte	W08
	.byte			Ds3
	.byte	W08
	.byte	PAN	, c_v-30
	.byte		N08	, Cs3
	.byte	W08
	.byte			Ds3, v036
	.byte	W08
	.byte	PAN	, c_v
	.byte		N08	, Gs3
	.byte	W08
	.byte			Cs4, v032
	.byte	W08
	.byte	PAN	, c_v+30
	.byte		N08	, Ds4
	.byte	W08
	.byte			Gs4
	.byte	W08
	.byte	PAN	, c_v+60
	.byte		N08	, Ds4, v028
	.byte	W08
	.byte			Cs4
	.byte	W08
	.byte	PAN	, c_v+30
	.byte		N08	, Gs3
	.byte	W08
	.byte			Ds3, v024
	.byte	W08
	.byte	PAN	, c_v
	.byte		N08	, Cs3
	.byte	W08
	.byte			Ds3, v020
	.byte	W08
	.byte	PAN	, c_v-30
	.byte		N08	, Gs3
	.byte	W08
	.byte			Cs4
	.byte	W08
	.byte	PAN	, c_v-60
	.byte		N08	, Ds4, v016
	.byte	W08
	.byte			Gs4
	.byte	W08
	.byte	PAN	, c_v-30
	.byte		N08	, Ds4
	.byte	W08
	.byte			Cs4, v012
	.byte	W08
	.byte	PAN	, c_v
	.byte		N08	, Gs3
	.byte	W08
	.byte			Ds3, v008
	.byte	W08
	.byte	PAN	, c_v+30
	.byte		N08	, Cs3
	.byte	W08
	.byte		N04	, Ds3
	.byte	W06
	.byte	VOICE	, 105
	.byte	PAN	, c_v-20
	.byte	W02
	.byte	PATT	
		.word	mus_mustard_mountain_6_2
	.byte	PATT	
		.word	mus_mustard_mountain_6_1
	.byte	GOTO	
		.word	mus_mustard_mountain_6_3
	.byte	W96
	.byte	FINE

	@********************** Track  7 **********************@

	.global mus_mustard_mountain_7
mus_mustard_mountain_7:	@ 0x08D437FC
	.byte	KEYSH	, 0
	.byte	VOICE	, 105
	.byte	MOD	, 5
	.byte	LFOS	, 25
	.byte	LFODL	, 22
	.byte	VOL	, v084
	.byte	PAN	, c_v+20
	.byte	BEND	, c_v
	.byte		N11	, Gs3, v060
	.byte	W12
	.byte		N12	, Ds4, v072
	.byte	W24
	.byte		N06	, Ds4, v060
	.byte	W06
	.byte			Ds4, v072
	.byte	W06
	.byte		N12	, Gs3, v060
	.byte	W12
	.byte			Ds4, v072
	.byte	W24
	.byte			Ds4, v060
	.byte	W12
mus_mustard_mountain_7_1:
	.byte		N11	, Gs3, v060
	.byte	W12
	.byte		N12	, Ds4, v072
	.byte	W24
	.byte			Ds4, v060
	.byte	W12
	.byte			Gs3
	.byte	W12
	.byte			Ds4, v072
	.byte	W24
	.byte			Ds4, v060
	.byte	W12
	.byte	PEND
mus_mustard_mountain_7_4:
	.byte		N11	, Gs3, v060
	.byte	W12
	.byte		N12	, Ds4, v072
	.byte	W24
	.byte		N06	, Ds4, v060
	.byte	W06
	.byte			Ds4, v072
	.byte	W06
	.byte		N12	, Gs3, v060
	.byte	W12
	.byte			Ds4, v072
	.byte	W24
	.byte			Ds4, v060
	.byte	W12
	.byte	PEND
	.byte	PATT	
		.word	mus_mustard_mountain_7_1
mus_mustard_mountain_7_5:
	.byte	W96
	.byte	W96
	.byte	W96
	.byte	W96
	.byte	W96
	.byte	W96
mus_mustard_mountain_7_2:
	.byte		N11	, Gs3, v060
	.byte	W12
	.byte		N12	, Ds4
	.byte	W24
	.byte		N06	, Ds4, v068
	.byte	W06
	.byte		N06	
	.byte	W06
	.byte		N12	, Gs3, v072
	.byte	W12
	.byte			Ds4, v076
	.byte	W24
	.byte		N12	
	.byte	W12
	.byte	PEND
mus_mustard_mountain_7_3:
	.byte		N11	, Gs3, v080
	.byte	W12
	.byte		N12	, Ds4
	.byte	W24
	.byte			Ds4, v088
	.byte	W12
	.byte			Gs3
	.byte	W12
	.byte			Ds4, v092
	.byte	W24
	.byte		N12	
	.byte	W12
	.byte	PEND
	.byte	W96
	.byte	W96
	.byte	W96
	.byte	W96
	.byte	W96
	.byte	W96
	.byte	PATT	
		.word	mus_mustard_mountain_7_2
	.byte	PATT	
		.word	mus_mustard_mountain_7_3
	.byte	W96
	.byte	W96
	.byte	W96
	.byte	W96
	.byte	W96
	.byte	W96
	.byte	W96
	.byte	W96
	.byte		N11	, Cs3, v072
	.byte	W12
	.byte		N12	, Gs3, v080
	.byte	W24
	.byte		N06	, Gs3, v072
	.byte	W06
	.byte			Gs3, v080
	.byte	W06
	.byte		N12	, Cs3, v072
	.byte	W12
	.byte			Gs3, v080
	.byte	W24
	.byte			Gs3, v072
	.byte	W12
	.byte		N11	, Cs3
	.byte	W12
	.byte		N12	, Gs3, v080
	.byte	W24
	.byte			Gs3, v072
	.byte	W12
	.byte			Cs3
	.byte	W12
	.byte			Gs3, v080
	.byte	W24
	.byte			Gs3, v072
	.byte	W12
	.byte	PATT	
		.word	mus_mustard_mountain_7_4
	.byte	PATT	
		.word	mus_mustard_mountain_7_1
	.byte	GOTO	
		.word	mus_mustard_mountain_7_5
	.byte	W96
	.byte	FINE

	.align 2
	.global mus_mustard_mountain
mus_mustard_mountain:	@ 0x08D438DC
	.byte	7		@ trackCount
	.byte	0		@ blockCount
	.byte	128		@ priority
	.byte	128		@ reverb

	.word	voicegroup000		@ voicegroup/tone

	.word	mus_mustard_mountain_1		@ track
	.word	mus_mustard_mountain_2		@ track
	.word	mus_mustard_mountain_3		@ track
	.word	mus_mustard_mountain_4		@ track
	.word	mus_mustard_mountain_5		@ track
	.word	mus_mustard_mountain_6		@ track
	.word	mus_mustard_mountain_7		@ track
