	.include "MPlayDef.s"

	.section .rodata

	@********************** Track  1 **********************@

	.align 2
	.global mus_speed_eaters_1
mus_speed_eaters_1:	@ 0x08D4F450
	.byte	KEYSH	, 0
	.byte	TEMPO	, 55
	.byte	VOICE	, 67
	.byte	VOL	, v101
	.byte	PAN	, c_v
	.byte	BEND	, c_v
	.byte		N06	, Gs1, v112
	.byte	W06
	.byte			Cn2, v080
	.byte	W06
	.byte			An1, v060
	.byte	W06
	.byte			Gs1, v112
	.byte	W06
	.byte			En1, v036
	.byte	W06
	.byte			An1, v060
	.byte	W06
	.byte		N06	
	.byte	W06
	.byte			Gs1, v112
	.byte	W06
	.byte			Cn2, v080
	.byte	W06
	.byte			An1, v060
	.byte	W06
	.byte		N06	
	.byte	W06
	.byte			Gs1, v112
	.byte	W06
	.byte			En1, v036
	.byte	W06
	.byte			Cn1, v080
	.byte	W06
	.byte			Bn0, v088
	.byte	W06
	.byte			An0, v092
	.byte	W06
mus_speed_eaters_1_3:
	.byte		N01	, Bn1, v080
	.byte	W01
	.byte		N05	, Bn1, v092
	.byte	W05
	.byte		N12	, Bn0
	.byte	W12
	.byte			An0
	.byte	W12
	.byte			Bn1, v072
	.byte	W12
	.byte		N06	, Bn1, v080
	.byte	W06
	.byte		N12	, Dn2, v052
	.byte	W06
	.byte		N06	, Fs1, v040
	.byte	W06
	.byte			En1, v032
	.byte	W06
	.byte			En1, v040
	.byte		N06	, Fs1, v052
	.byte	W06
	.byte		N04	
	.byte		N12	, Dn2
	.byte	W04
	.byte		N04	, Fs1, v040
	.byte	W04
	.byte			Fs1, v052
	.byte	W04
	.byte		N12	, An0, v100
	.byte		N06	, En1, v032
	.byte	W06
	.byte			En1, v040
	.byte	W06
	.byte	PEND
mus_speed_eaters_1_4:
	.byte		N06	, Gs1, v112
	.byte	W06
	.byte			As1, v052
	.byte	W06
	.byte			Cn2, v072
	.byte	W06
	.byte			Fs0, v092
	.byte	W06
	.byte			As1, v072
	.byte	W06
	.byte			Fs0, v080
	.byte	W06
	.byte			Cn2, v072
	.byte	W06
	.byte			As1, v052
	.byte	W06
	.byte			Fs0, v092
	.byte	W06
	.byte			As1, v052
	.byte	W06
	.byte			Cn2, v072
	.byte	W06
	.byte			Gs1, v112
	.byte	W06
	.byte			As1, v072
	.byte	W06
	.byte			Fs0, v092
	.byte	W06
	.byte			Cn2, v072
	.byte	W06
	.byte			As1, v060
	.byte	W06
mus_speed_eaters_1_1:
	.byte		N06	, Gs1, v112
	.byte	W06
	.byte			As1, v052
	.byte	W06
	.byte			Cn2, v072
	.byte	W06
	.byte			Fs0, v092
	.byte	W06
	.byte			As1, v072
	.byte	W06
	.byte			Fs0, v080
	.byte	W06
	.byte			Cn2, v072
	.byte	W06
	.byte			As1, v052
	.byte	W06
	.byte			Fs0, v092
	.byte	W06
	.byte			As1, v052
	.byte	W06
	.byte			Cn2, v072
	.byte	W06
	.byte			Gs1, v112
	.byte	W06
	.byte			As1, v072
	.byte	W06
	.byte			Fs0, v092
	.byte	W06
	.byte			Cn2, v072
	.byte	W06
	.byte			As1, v060
	.byte	W06
	.byte	PEND
	.byte	PATT	
		.word	mus_speed_eaters_1_1
mus_speed_eaters_1_2:
	.byte		N06	, Gs1, v112
	.byte	W06
	.byte			As1, v052
	.byte	W06
	.byte			Cn2, v072
	.byte	W06
	.byte			Fs0, v092
	.byte	W06
	.byte			As1, v072
	.byte	W06
	.byte			Fs0, v080
	.byte	W06
	.byte			Cn2, v072
	.byte	W06
	.byte			As1, v052
	.byte	W06
	.byte			Fs0, v092
	.byte	W06
	.byte			As1, v052
	.byte	W06
	.byte			As1, v072
	.byte	W06
	.byte			Fs0, v100
	.byte	W06
	.byte			As1, v072
	.byte	W06
	.byte		N06	
	.byte	W06
	.byte		N06	
	.byte	W06
	.byte			Cn2, v060
	.byte	W06
	.byte	PEND
	.byte	PATT	
		.word	mus_speed_eaters_1_1
	.byte	PATT	
		.word	mus_speed_eaters_1_1
	.byte	PATT	
		.word	mus_speed_eaters_1_1
	.byte	PATT	
		.word	mus_speed_eaters_1_2
	.byte	PATT	
		.word	mus_speed_eaters_1_1
	.byte	PATT	
		.word	mus_speed_eaters_1_1
	.byte	PATT	
		.word	mus_speed_eaters_1_1
	.byte	PATT	
		.word	mus_speed_eaters_1_2
	.byte	PATT	
		.word	mus_speed_eaters_1_1
	.byte	PATT	
		.word	mus_speed_eaters_1_1
	.byte		N06	, Gs1, v112
	.byte	W06
	.byte			As1, v052
	.byte	W06
	.byte			Cn2, v072
	.byte	W06
	.byte			Fs0, v092
	.byte	W06
	.byte			As1, v072
	.byte	W06
	.byte			Fs0, v080
	.byte	W06
	.byte			Cn2, v072
	.byte	W06
	.byte			As1, v052
	.byte	W06
	.byte			Fs0, v092
	.byte	W06
	.byte			As1, v052
	.byte	W06
	.byte			Cn2, v072
	.byte	W06
	.byte			Gs1, v112
	.byte	W06
	.byte			As1, v072
	.byte	W06
	.byte			As1, v092
	.byte	W06
	.byte			Cn2, v072
	.byte	W06
	.byte			Gs1, v112
	.byte	W06
	.byte	VOL	, v110
	.byte		N06	, En1, v052
	.byte	W06
	.byte			Fs1, v040
	.byte	W06
	.byte			Cn2, v052
	.byte	W06
	.byte			Fs1, v032
	.byte	W06
	.byte			Fs1, v040
	.byte	W06
	.byte		N06	
	.byte	W06
	.byte			Cn2
	.byte	W06
	.byte			Fs1
	.byte	W06
	.byte			Ds1, v048
	.byte		N06	, Gs1, v112
	.byte	W06
	.byte		N12	, Fs1, v040
	.byte	W06
	.byte		N06	, Cn2
	.byte	W06
	.byte			Fs1
	.byte	W06
	.byte			Fs1, v052
	.byte	W12
	.byte		N11	, Gn0, v100
	.byte		N11	, Bn0, v072
	.byte	W11
	.byte	VOL	, v096
	.byte	W01
	.byte		N06	, Gs1, v100
	.byte		N24	, Cs3, v032
	.byte	W06
	.byte		N06	, Cn2, v080
	.byte	W06
	.byte			An1, v060
	.byte	W06
	.byte			Gs1, v100
	.byte	W06
	.byte			En1, v036
	.byte	W06
	.byte			An1, v060
	.byte	W06
	.byte		N06	
	.byte	W06
	.byte		N24	, Cs1, v020
	.byte		N06	, Gs1, v100
	.byte	W06
	.byte			Cn2, v080
	.byte	W06
	.byte			An1, v060
	.byte	W06
	.byte		N06	
	.byte	W06
	.byte			Gs1, v100
	.byte		N24	, Cs3, v032
	.byte	W06
	.byte		N06	, En1, v036
	.byte	W06
	.byte			Cn1, v080
	.byte	W06
	.byte			Bn0, v088
	.byte	W06
	.byte			An0, v092
	.byte	W06
	.byte	PATT	
		.word	mus_speed_eaters_1_3
	.byte	GOTO	
		.word	mus_speed_eaters_1_4
	.byte	W96
	.byte	FINE

	@********************** Track  2 **********************@

	.global mus_speed_eaters_2
mus_speed_eaters_2:	@ 0x08D4F63C
	.byte	KEYSH	, 0
	.byte	VOICE	, 1
	.byte	VOL	, v073
	.byte	PAN	, c_v
	.byte	MOD	, 0
	.byte	BEND	, c_v
	.byte		N06	, As3, v116
	.byte	W06
	.byte			Fn4
	.byte	W06
	.byte		N03	, As3
	.byte	W06
	.byte		N12	, An3
	.byte	W12
	.byte		N06	, Fn4
	.byte	W06
	.byte		N03	, An3
	.byte	W06
	.byte		N12	, Gn3
	.byte	W12
	.byte		N06	, Fn4
	.byte	W06
	.byte		N03	, Gn3
	.byte	W06
	.byte		N12	, Fn3
	.byte	W12
	.byte		N06	, Fn4
	.byte	W06
	.byte			Gn4
	.byte	W06
	.byte			Fn4
	.byte	W06
mus_speed_eaters_2_6:
	.byte		N06	, Dn4, v116
	.byte	W06
	.byte			Cn4
	.byte	W12
	.byte		N04	, As3
	.byte	W12
	.byte			Fn3
	.byte	W12
	.byte		N04	
	.byte	W54
	.byte	PEND
mus_speed_eaters_2_7:
	.byte	VOL	, v064
	.byte		N04	, Fn3, v112
	.byte	W12
	.byte		N12	, Fn3, v100
	.byte	W18
	.byte		N06	, Bn3, v092
	.byte	W06
	.byte			Cn4
	.byte	W06
	.byte		N04	, Fn4
	.byte	W12
	.byte		N03	, Cn4
	.byte	W12
	.byte		N06	, An3, v100
	.byte	W12
	.byte			Fn3, v112
	.byte	W06
	.byte			An3
	.byte	W12
mus_speed_eaters_2_1:
	.byte		N04	, Gn3, v112
	.byte	W12
	.byte		N12	, Gn3, v100
	.byte	W18
	.byte		N06	, Cs4, v092
	.byte	W06
	.byte			Dn4
	.byte	W06
	.byte		N04	, Gn4
	.byte	W12
	.byte		N03	, Dn4
	.byte	W12
	.byte		N06	, As3, v100
	.byte	W12
	.byte			Gn3, v112
	.byte	W12
	.byte		N03	, As3
	.byte	W06
	.byte	PEND
mus_speed_eaters_2_2:
	.byte		N04	, Gn3, v112
	.byte	W12
	.byte		N12	
	.byte	W12
	.byte		N06	, Dn4, v100
	.byte	W06
	.byte			Gn4, v092
	.byte	W06
	.byte			Gn3, v100
	.byte	W06
	.byte		N04	, Cn4, v092
	.byte	W12
	.byte		N06	, Cn4, v100
	.byte	W06
	.byte		N04	, Gn4, v080
	.byte	W12
	.byte		N12	, En3, v112
	.byte	W12
	.byte		N06	, Cn4
	.byte	W12
	.byte	PEND
mus_speed_eaters_2_3:
	.byte		N06	, Fn3, v112
	.byte	W12
	.byte		N12	
	.byte	W18
	.byte		N06	, Bn3
	.byte	W06
	.byte			Cn4
	.byte	W06
	.byte			Dn4
	.byte	W12
	.byte		N06	
	.byte	W06
	.byte			An3
	.byte	W12
	.byte		N12	, Fs3
	.byte	W12
	.byte		N06	, An3
	.byte	W12
	.byte	PEND
mus_speed_eaters_2_4:
	.byte		N04	, Gn3, v112
	.byte	W12
	.byte		N12	
	.byte	W18
	.byte		N06	, Dn4, v092
	.byte	W06
	.byte			Gn3, v100
	.byte	W06
	.byte		N04	, Cn4, v092
	.byte	W12
	.byte		N06	, Cn4, v100
	.byte	W06
	.byte			Gn3, v080
	.byte	W12
	.byte		N12	, En3, v112
	.byte	W12
	.byte		N06	, Cn4
	.byte	W12
	.byte	PEND
mus_speed_eaters_2_5:
	.byte		N04	, Fn3, v112
	.byte	W12
	.byte		N12	
	.byte	W12
	.byte		N06	, Cn4, v100
	.byte	W06
	.byte			Fn4, v092
	.byte	W06
	.byte			Fn3, v100
	.byte	W06
	.byte		N04	, Dn3, v092
	.byte	W12
	.byte		N06	, Dn3, v100
	.byte	W06
	.byte		N04	, Fs3, v080
	.byte	W12
	.byte		N12	, An3, v112
	.byte	W12
	.byte		N06	, Dn4
	.byte	W12
	.byte	PEND
	.byte		N04	, As2
	.byte	W12
	.byte		N12	
	.byte	W18
	.byte		N06	, En3, v092
	.byte	W06
	.byte			Fn3, v100
	.byte	W06
	.byte		N04	, As3, v092
	.byte	W12
	.byte		N06	, Fn3, v100
	.byte	W06
	.byte		N04	, Dn3, v080
	.byte	W12
	.byte		N12	, As2, v112
	.byte	W12
	.byte		N06	, Fn3
	.byte	W12
	.byte		N04	, As2
	.byte	W12
	.byte		N12	
	.byte	W18
	.byte		N06	, En3, v092
	.byte	W06
	.byte			Fn3, v100
	.byte	W06
	.byte		N04	, Cn3, v092
	.byte	W12
	.byte		N06	, Cn3, v100
	.byte	W06
	.byte		N12	, En3, v080
	.byte	W12
	.byte			Gn3, v112
	.byte	W12
	.byte			Cn4
	.byte	W12
	.byte		N04	, Fn3
	.byte	W12
	.byte		N12	, Fn3, v100
	.byte	W18
	.byte		N06	, Bn3, v092
	.byte	W06
	.byte			Cn4
	.byte	W06
	.byte		N04	, Fn4
	.byte	W12
	.byte		N03	, Cn4
	.byte	W12
	.byte		N06	, An3, v100
	.byte	W12
	.byte			Fn3, v112
	.byte	W06
	.byte			An3
	.byte	W12
	.byte	PATT	
		.word	mus_speed_eaters_2_1
	.byte	PATT	
		.word	mus_speed_eaters_2_2
	.byte	PATT	
		.word	mus_speed_eaters_2_3
	.byte	PATT	
		.word	mus_speed_eaters_2_4
	.byte	PATT	
		.word	mus_speed_eaters_2_5
	.byte		N04	, As2, v112
	.byte	W12
	.byte		N12	
	.byte	W18
	.byte		N06	, En3, v092
	.byte	W06
	.byte			Fn3, v100
	.byte	W06
	.byte		N04	, Cn3, v092
	.byte	W12
	.byte		N06	, Cn3, v100
	.byte	W06
	.byte		N12	, En3, v080
	.byte	W12
	.byte			Gn3, v112
	.byte	W12
	.byte		N06	, Cn4
	.byte	W06
	.byte			Fn3
	.byte	W06
	.byte	W96
	.byte			As3, v116
	.byte	W06
	.byte			Fn4
	.byte	W06
	.byte		N03	, As3
	.byte	W06
	.byte		N12	, An3
	.byte	W12
	.byte		N06	, Fn4
	.byte	W06
	.byte		N03	, An3
	.byte	W06
	.byte		N12	, Gn3
	.byte	W12
	.byte		N06	, Fn4
	.byte	W06
	.byte		N03	, Gn3
	.byte	W06
	.byte		N12	, Fn3
	.byte	W12
	.byte		N06	, Fn4
	.byte	W06
	.byte			Gn4
	.byte	W06
	.byte			Fn4
	.byte	W06
	.byte	PATT	
		.word	mus_speed_eaters_2_6
	.byte	GOTO	
		.word	mus_speed_eaters_2_7
	.byte	W96
	.byte	FINE

	@********************** Track  3 **********************@

	.global mus_speed_eaters_3
mus_speed_eaters_3:	@ 0x08D4F7FC
	.byte	KEYSH	, 0
	.byte	VOICE	, 73
	.byte	MOD	, 0
	.byte	VOL	, v082
	.byte	PAN	, c_v
	.byte	BEND	, c_v
	.byte		N06	, Dn3, v052
	.byte	W06
	.byte			En3
	.byte	W06
	.byte			Fn3
	.byte	W06
	.byte		N12	, Cn3
	.byte	W12
	.byte		N06	, En3
	.byte	W06
	.byte			Fn3
	.byte	W06
	.byte		N12	, As2
	.byte	W12
	.byte		N06	, En3
	.byte	W06
	.byte			Fn3
	.byte	W06
	.byte		N12	, An2
	.byte	W12
	.byte		N06	, Fn2
	.byte	W06
	.byte			Gn2
	.byte	W06
	.byte			An2
	.byte	W06
mus_speed_eaters_3_2:
	.byte		N06	, As2, v060
	.byte	W06
	.byte			An2
	.byte	W12
	.byte			Gn2
	.byte	W12
	.byte			Fn2, v068
	.byte	W12
	.byte			Fn2, v072
	.byte	W54
	.byte	PEND
mus_speed_eaters_3_3:
	.byte	W03
	.byte	VOL	, v082
	.byte	W09
	.byte		N09	, An2, v052
	.byte	W12
	.byte		N09	
	.byte	W12
	.byte		N06	, As2
	.byte	W12
	.byte		N04	, Cn3, v060
	.byte	W04
	.byte			Cn3, v052
	.byte	W04
	.byte			Cn3, v040
	.byte	W04
	.byte			Cn3, v032
	.byte	W06
	.byte		N06	, As2, v052
	.byte	W12
	.byte		N04	, An2, v060
	.byte	W04
	.byte			An2, v052
	.byte	W04
	.byte			An2, v040
	.byte	W04
	.byte			An2, v032
	.byte	W06
mus_speed_eaters_3_1:
	.byte		N12	, Gn2, v052
	.byte	W12
	.byte		N12	
	.byte	W12
	.byte		N06	
	.byte	W06
	.byte			Fs2
	.byte	W06
	.byte			Gn2
	.byte	W06
	.byte			Dn3
	.byte	W12
	.byte			Dn3, v032
	.byte	W12
	.byte			Dn3, v020
	.byte	W12
	.byte			Dn3, v012
	.byte	W18
	.byte	PEND
	.byte	W12
	.byte			As2, v052
	.byte	W12
	.byte			Cn3
	.byte	W06
	.byte		N18	, Dn3
	.byte	W18
	.byte		N04	, Cn3, v060
	.byte	W04
	.byte			Cn3, v052
	.byte	W04
	.byte			Cn3, v040
	.byte	W04
	.byte			Cn3, v032
	.byte	W06
	.byte		N18	, As2, v052
	.byte	W18
	.byte		N06	, Gn2
	.byte	W12
	.byte		N12	, An2
	.byte	W12
	.byte		N06	, As2
	.byte	W06
	.byte		N04	, Cn3, v060
	.byte	W04
	.byte			Cn3, v052
	.byte	W04
	.byte			Cn3, v040
	.byte	W04
	.byte			Cn3, v036
	.byte	W04
	.byte			Cn3, v032
	.byte	W04
	.byte			Cn3, v028
	.byte	W04
	.byte			Cn3, v020
	.byte	W04
	.byte			Cn3, v012
	.byte	W14
	.byte		N12	, Fs2, v052
	.byte	W12
	.byte		N06	, Gn2
	.byte	W06
	.byte		N04	, An2
	.byte	W04
	.byte			An2, v040
	.byte	W04
	.byte			An2, v032
	.byte	W04
	.byte			An2, v020
	.byte	W06
	.byte	VOL	, v073
	.byte	W12
	.byte		N12	, Dn3, v052
	.byte	W12
	.byte		N06	
	.byte	W06
	.byte			En3
	.byte	W06
	.byte			Fn3
	.byte	W06
	.byte		N04	, En3, v060
	.byte	W04
	.byte			En3, v052
	.byte	W04
	.byte			En3, v040
	.byte	W04
	.byte			En3, v032
	.byte	W04
	.byte			En3, v020
	.byte	W08
	.byte			Dn3, v060
	.byte	W04
	.byte			Dn3, v052
	.byte	W04
	.byte			Dn3, v048
	.byte	W04
	.byte			Dn3, v040
	.byte	W04
	.byte			Dn3, v036
	.byte	W04
	.byte			Dn3, v032
	.byte	W04
	.byte			Dn3, v020
	.byte	W06
	.byte	W12
	.byte		N06	, Cn3, v052
	.byte	W12
	.byte		N06	
	.byte	W06
	.byte			Dn3
	.byte	W06
	.byte			En3
	.byte	W06
	.byte			Dn3
	.byte	W12
	.byte			Cn3
	.byte	W12
	.byte			An2
	.byte	W12
	.byte		N04	, Cn3, v060
	.byte	W04
	.byte			Cn3, v048
	.byte	W04
	.byte			Cn3, v036
	.byte	W04
	.byte			Cn3, v028
	.byte	W06
	.byte		N12	, As2, v052
	.byte	W12
	.byte		N06	, Fn2
	.byte	W12
	.byte		N12	
	.byte	W12
	.byte		N06	, Dn2
	.byte	W06
	.byte		N04	, Fn2, v060
	.byte	W04
	.byte			Fn2, v052
	.byte	W04
	.byte			Fn2, v048
	.byte	W04
	.byte			Fn2, v040
	.byte	W04
	.byte			Fn2, v036
	.byte	W04
	.byte			Fn2, v032
	.byte	W04
	.byte			Fn2, v028
	.byte	W04
	.byte			Fn2, v020
	.byte	W04
	.byte			Fn2, v016
	.byte	W04
	.byte			Fn2, v012
	.byte	W04
	.byte			Fn2, v008
	.byte	W04
	.byte		N04	
	.byte	W10
	.byte	W12
	.byte		N12	, Dn2, v052
	.byte	W12
	.byte		N06	
	.byte	W06
	.byte			Fn2
	.byte	W06
	.byte			Dn3
	.byte	W06
	.byte			Cn3
	.byte	W12
	.byte			As2
	.byte	W12
	.byte			An2
	.byte	W12
	.byte		N04	, Gn2, v060
	.byte	W04
	.byte			Gn2, v040
	.byte	W04
	.byte			Gn2, v032
	.byte	W04
	.byte			Gn2, v020
	.byte	W06
	.byte	W03
	.byte	VOL	, v082
	.byte	W09
	.byte		N12	, An2, v052
	.byte	W12
	.byte		N12	
	.byte	W12
	.byte		N06	, As2
	.byte	W12
	.byte		N04	, Cn3, v060
	.byte	W04
	.byte			Cn3, v052
	.byte	W04
	.byte			Cn3, v040
	.byte	W04
	.byte			Cn3, v028
	.byte	W06
	.byte		N06	, As2, v052
	.byte	W12
	.byte		N04	, An2, v060
	.byte	W04
	.byte			An2, v052
	.byte	W04
	.byte			An2, v040
	.byte	W04
	.byte			An2, v032
	.byte	W06
	.byte	PATT	
		.word	mus_speed_eaters_3_1
	.byte	W12
	.byte		N06	, As2, v052
	.byte	W12
	.byte			Cn3
	.byte	W06
	.byte		N18	, Dn3
	.byte	W18
	.byte		N12	, En3, v060
	.byte	W12
	.byte			Dn3
	.byte	W12
	.byte			Cn3, v052
	.byte	W12
	.byte		N06	, As2
	.byte	W12
	.byte		N12	, An2
	.byte	W12
	.byte		N06	, As2
	.byte	W06
	.byte		N04	, Cn3, v060
	.byte	W04
	.byte			Cn3, v052
	.byte	W04
	.byte			Cn3, v048
	.byte	W04
	.byte			Cn3, v040
	.byte	W04
	.byte			Cn3, v036
	.byte	W04
	.byte			Cn3, v032
	.byte	W04
	.byte			Cn3, v020
	.byte	W04
	.byte			Cn3, v016
	.byte	W14
	.byte		N12	, Dn3, v052
	.byte	W12
	.byte		N06	, An2
	.byte	W06
	.byte		N04	, Cn3
	.byte	W04
	.byte			Cn3, v040
	.byte	W04
	.byte			Cn3, v032
	.byte	W04
	.byte			Cn3, v020
	.byte	W06
	.byte	VOL	, v073
	.byte	W12
	.byte		N06	, As2, v060
	.byte	W12
	.byte		N06	
	.byte	W06
	.byte			An2
	.byte	W06
	.byte			Gn2
	.byte	W06
	.byte		N04	, En2
	.byte	W04
	.byte			En2, v052
	.byte	W04
	.byte			En2, v040
	.byte	W04
	.byte			En2, v032
	.byte	W04
	.byte		N02	, En2, v020
	.byte	W08
	.byte		N04	, Fn2, v060
	.byte	W12
	.byte			Gn2
	.byte	W04
	.byte			Gn2, v040
	.byte	W04
	.byte			Gn2, v032
	.byte	W04
	.byte		N02	, Gn2, v020
	.byte	W04
	.byte			Gn2, v012
	.byte	W02
	.byte	W12
	.byte		N06	, An2, v060
	.byte	W12
	.byte		N06	
	.byte	W06
	.byte			Gs2
	.byte	W06
	.byte			An2
	.byte	W06
	.byte		N04	, Dn3
	.byte	W04
	.byte			Dn3, v052
	.byte	W04
	.byte			Dn3, v040
	.byte	W04
	.byte			Dn3, v032
	.byte	W04
	.byte		N02	, Dn3, v020
	.byte	W08
	.byte		N04	, An2, v060
	.byte	W12
	.byte			Fs2
	.byte	W04
	.byte			Fs2, v052
	.byte	W04
	.byte			Fs2, v040
	.byte	W04
	.byte		N02	, Fs2, v032
	.byte	W04
	.byte			Fs2, v020
	.byte	W02
	.byte	W12
	.byte		N06	, As2, v060
	.byte	W12
	.byte		N06	
	.byte	W06
	.byte			An2
	.byte	W06
	.byte			Gn2
	.byte	W06
	.byte		N04	, En2
	.byte	W04
	.byte			En2, v040
	.byte	W04
	.byte			En2, v032
	.byte	W04
	.byte			En2, v020
	.byte	W04
	.byte		N02	, En2, v012
	.byte	W08
	.byte		N04	, Fn2, v060
	.byte	W12
	.byte			Gn2
	.byte	W12
	.byte			Fn2
	.byte	W06
	.byte	W96
	.byte	VOL	, v000
	.byte		N06	, Dn3, v052
	.byte	W06
	.byte			En3
	.byte	W06
	.byte			Fn3
	.byte	W06
	.byte		N12	, Cn3
	.byte	W12
	.byte		N06	, En3
	.byte	W06
	.byte			Fn3
	.byte	W06
	.byte		N12	, As2
	.byte	W12
	.byte		N06	, En3
	.byte	W06
	.byte			Fn3
	.byte	W06
	.byte		N12	, An2
	.byte	W12
	.byte	VOL	, v073
	.byte		N06	, Fn2
	.byte	W06
	.byte			Gn2
	.byte	W06
	.byte			An2
	.byte	W06
	.byte	PATT	
		.word	mus_speed_eaters_3_2
	.byte	GOTO	
		.word	mus_speed_eaters_3_3
	.byte	W96
	.byte	FINE

	@********************** Track  4 **********************@

	.global mus_speed_eaters_4
mus_speed_eaters_4:	@ 0x08D4FA95
	.byte	KEYSH	, 0
	.byte	VOICE	, 24
	.byte	LFOS	, 28
	.byte	LFODL	, 24
	.byte	MOD	, 1
	.byte	PAN	, c_v
	.byte	VOL	, v064
	.byte	BEND	, c_v
	.byte		N15	, As3, v052
	.byte		N15	, Dn4
	.byte	W18
	.byte		N21	, An3
	.byte		N21	, Cn4
	.byte	W24
	.byte			Gn3
	.byte		N21	, As3
	.byte	W24
	.byte		N24	, Fn3
	.byte		N24	, An3
	.byte	W30
	.byte		N04	, As3
	.byte		N04	, Dn4
	.byte	W06
	.byte		N06	, An3
	.byte		N06	, Cn4
	.byte	W12
	.byte			Gn3
	.byte		N06	, As3
	.byte	W12
	.byte			Fn3, v068
	.byte		N06	, An3
	.byte	W12
	.byte		N04	, Fn3
	.byte		N04	, An3
	.byte	W54
	.byte	VOICE	, 31
mus_speed_eaters_4_2:
	.byte	MOD	, 1
	.byte	PAN	, c_v-20
	.byte	VOL	, v046
	.byte	BEND	, c_v
	.byte	W01
	.byte		N05	, Cn4, v040
	.byte	W05
	.byte		N06	, An4
	.byte	W12
	.byte			Fn4
	.byte	W12
	.byte			Cn4
	.byte	W12
	.byte			An4
	.byte	W12
	.byte			Fn4
	.byte	W12
	.byte			Cn4
	.byte	W06
	.byte			Fn4
	.byte	W06
	.byte		N06	
	.byte	W06
	.byte			An4
	.byte	W12
mus_speed_eaters_4_1:
	.byte	W06
	.byte		N06	, As4, v040
	.byte	W12
	.byte			Gn4
	.byte	W12
	.byte			Dn4
	.byte	W12
	.byte			Gn4
	.byte	W12
	.byte			As3
	.byte	W12
	.byte			Dn4
	.byte	W06
	.byte			Gn4
	.byte	W06
	.byte		N06	
	.byte	W06
	.byte			As4
	.byte	W12
	.byte	PEND
	.byte	W06
	.byte			Gn4
	.byte	W12
	.byte			Dn4
	.byte	W12
	.byte			As3
	.byte	W12
	.byte			Dn4
	.byte	W12
	.byte			En4
	.byte	W12
	.byte			Cn4
	.byte	W06
	.byte			En4
	.byte	W12
	.byte			Gn4
	.byte	W12
	.byte	W06
	.byte			An4
	.byte	W12
	.byte			Fn4
	.byte	W12
	.byte			Cn4
	.byte	W12
	.byte			Fn4
	.byte	W12
	.byte			Dn4
	.byte	W12
	.byte			An3
	.byte	W06
	.byte			Dn4
	.byte	W12
	.byte			Fs4
	.byte	W12
	.byte	VOICE	, 73
	.byte	VOL	, v055
	.byte	PAN	, c_v+10
	.byte	W12
	.byte		N12	, As2, v052
	.byte	W12
	.byte		N06	
	.byte	W06
	.byte			Cn3
	.byte	W06
	.byte			Dn3
	.byte	W06
	.byte		N04	, Cn3, v060
	.byte	W04
	.byte			Cn3, v040
	.byte	W04
	.byte			Cn3, v032
	.byte	W04
	.byte			Cn3, v020
	.byte	W04
	.byte			Cn3, v012
	.byte	W08
	.byte			As2, v060
	.byte	W04
	.byte			As2, v040
	.byte	W04
	.byte			As2, v032
	.byte	W04
	.byte			As2, v020
	.byte	W04
	.byte			As2, v012
	.byte	W14
	.byte	W12
	.byte		N06	, An2, v052
	.byte	W12
	.byte		N06	
	.byte	W06
	.byte			As2
	.byte	W06
	.byte			Cn3
	.byte	W06
	.byte			An2
	.byte	W12
	.byte		N06	
	.byte	W12
	.byte			Fs2
	.byte	W12
	.byte		N04	, An2, v060
	.byte	W04
	.byte			An2, v040
	.byte	W04
	.byte			An2, v032
	.byte	W04
	.byte			An2, v020
	.byte	W06
	.byte		N12	, Fn2, v052
	.byte	W12
	.byte		N06	, Dn2
	.byte	W12
	.byte		N12	
	.byte	W12
	.byte		N06	, As1
	.byte	W06
	.byte		N04	, Dn2, v060
	.byte	W04
	.byte			Dn2, v040
	.byte	W04
	.byte			Dn2, v036
	.byte	W04
	.byte			Dn2, v032
	.byte	W04
	.byte			Dn2, v028
	.byte	W04
	.byte			Dn2, v020
	.byte	W04
	.byte			Dn2, v016
	.byte	W30
	.byte	W12
	.byte		N12	, As1, v052
	.byte	W12
	.byte		N06	
	.byte	W06
	.byte			Dn2
	.byte	W06
	.byte			As2
	.byte	W06
	.byte			An2
	.byte	W12
	.byte			Gn2
	.byte	W12
	.byte			Fn2
	.byte	W12
	.byte		N04	, En2, v060
	.byte	W04
	.byte			En2, v040
	.byte	W04
	.byte			En2, v032
	.byte	W04
	.byte			En2, v020
	.byte	W06
	.byte	VOICE	, 31
	.byte	MOD	, 1
	.byte	PAN	, c_v-20
	.byte	VOL	, v046
	.byte	BEND	, c_v
	.byte		N06	, Cn4, v040
	.byte	W06
	.byte			An4
	.byte	W12
	.byte			Fn4
	.byte	W12
	.byte			Cn4
	.byte	W12
	.byte			An4
	.byte	W12
	.byte			Fn4
	.byte	W12
	.byte			Cn4
	.byte	W06
	.byte			Fn4
	.byte	W06
	.byte		N06	
	.byte	W06
	.byte			An4
	.byte	W12
	.byte	PATT	
		.word	mus_speed_eaters_4_1
	.byte	VOICE	, 73
	.byte	PAN	, c_v+10
	.byte	VOL	, v055
	.byte	W12
	.byte		N06	, Fn2, v052
	.byte	W12
	.byte			An2
	.byte	W06
	.byte		N18	, As2
	.byte	W18
	.byte		N12	, Cn3, v060
	.byte	W12
	.byte			As2
	.byte	W12
	.byte			An2, v052
	.byte	W12
	.byte		N06	, Gn2
	.byte	W12
	.byte		N12	, Fn2
	.byte	W12
	.byte		N06	, Gn2
	.byte	W06
	.byte		N04	, An2, v060
	.byte	W04
	.byte			An2, v040
	.byte	W04
	.byte			An2, v032
	.byte	W04
	.byte			An2, v028
	.byte	W04
	.byte			An2, v020
	.byte	W04
	.byte			An2, v012
	.byte	W22
	.byte		N12	, An2, v052
	.byte	W12
	.byte		N06	, Fs2
	.byte	W06
	.byte		N18	, An2
	.byte	W18
	.byte	VOL	, v055
	.byte	W12
	.byte		N06	, Gn2, v060
	.byte	W12
	.byte		N06	
	.byte	W06
	.byte			Fn2
	.byte	W06
	.byte			En2
	.byte	W06
	.byte		N04	, Cn2
	.byte	W24
	.byte			Dn2
	.byte	W12
	.byte			En2
	.byte	W04
	.byte			En2, v040
	.byte	W14
	.byte	W12
	.byte		N06	, Fn2, v060
	.byte	W12
	.byte		N06	
	.byte	W06
	.byte			En2
	.byte	W06
	.byte			Fn2
	.byte	W06
	.byte		N04	, An2
	.byte	W04
	.byte			An2, v052
	.byte	W04
	.byte			An2, v040
	.byte	W16
	.byte			Fs2, v060
	.byte	W12
	.byte			Dn2
	.byte	W04
	.byte			Dn2, v052
	.byte	W04
	.byte			Dn2, v040
	.byte	W10
	.byte	W12
	.byte		N06	, Gn2, v060
	.byte	W12
	.byte		N06	
	.byte	W06
	.byte			Fn2
	.byte	W06
	.byte			En2
	.byte	W06
	.byte		N04	, Cn2
	.byte	W04
	.byte			Cn2, v040
	.byte	W20
	.byte			Dn2, v060
	.byte	W12
	.byte			En2
	.byte	W12
	.byte			Cn2
	.byte	W06
	.byte	W48
	.byte	VOICE	, 31
	.byte	MOD	, 1
	.byte	PAN	, c_v-20
	.byte	VOL	, v036
	.byte	BEND	, c_v
	.byte	W48
	.byte	VOICE	, 24
	.byte	MOD	, 1
	.byte	PAN	, c_v+10
	.byte	VOL	, v064
	.byte	BEND	, c_v
	.byte		N15	, As3, v040
	.byte		N15	, Dn4
	.byte	W18
	.byte		N21	, An3
	.byte		N21	, Cn4
	.byte	W24
	.byte			Fn3
	.byte		N21	, As3
	.byte	W24
	.byte		N24	, Fn3
	.byte		N24	, An3
	.byte	W30
	.byte	PAN	, c_v
	.byte		N04	, As3, v052
	.byte		N04	, Dn4
	.byte	W06
	.byte		N06	, An3
	.byte		N06	, Cn4
	.byte	W12
	.byte			Gn3
	.byte		N06	, As3
	.byte	W12
	.byte			Fn3, v068
	.byte		N06	, An3
	.byte	W12
	.byte		N04	, Fn3
	.byte		N04	, An3
	.byte	W30
	.byte	VOICE	, 31
	.byte	W06
	.byte	PAN	, c_v-20
	.byte	VOL	, v046
	.byte	W18
	.byte	GOTO	
		.word	mus_speed_eaters_4_2
	.byte	W96
	.byte	FINE

	@********************** Track  5 **********************@

	.global mus_speed_eaters_5
mus_speed_eaters_5:	@ 0x08D4FCBF
	.byte	KEYSH	, 0
	.byte	MOD	, 1
	.byte	W96
	.byte	W96
	.byte	VOICE	, 31
mus_speed_eaters_5_4:
	.byte	PAN	, c_v+20
	.byte	VOL	, v055
	.byte	BEND	, c_v
	.byte	W01
	.byte		N05	, An3, v040
	.byte	W05
	.byte		N06	, Fn4
	.byte	W12
	.byte			Cn4
	.byte	W12
	.byte			An3
	.byte	W12
	.byte			Fn4
	.byte	W12
	.byte			Cn4
	.byte	W12
	.byte			An3
	.byte	W06
	.byte			Cn4
	.byte	W06
	.byte		N06	
	.byte	W06
	.byte			Fn4
	.byte	W12
mus_speed_eaters_5_1:
	.byte	W06
	.byte		N06	, Gn4, v040
	.byte	W12
	.byte			Dn4
	.byte	W12
	.byte			As3
	.byte	W12
	.byte			Dn4
	.byte	W12
	.byte			Gn3
	.byte	W12
	.byte			As3
	.byte	W06
	.byte			Dn4
	.byte	W06
	.byte		N06	
	.byte	W06
	.byte			Gn4
	.byte	W12
	.byte	PEND
mus_speed_eaters_5_2:
	.byte	W06
	.byte		N06	, Dn4, v040
	.byte	W12
	.byte			As3
	.byte	W12
	.byte			Gn3
	.byte	W12
	.byte			As3
	.byte	W12
	.byte			Cn4
	.byte	W12
	.byte			Gn3
	.byte	W06
	.byte			Cn4
	.byte	W12
	.byte			En4
	.byte	W12
	.byte	PEND
mus_speed_eaters_5_3:
	.byte	W06
	.byte		N06	, Fn4, v040
	.byte	W12
	.byte			Cn4
	.byte	W12
	.byte			An3
	.byte	W12
	.byte			Cn4
	.byte	W12
	.byte			An3
	.byte	W12
	.byte			Fs3
	.byte	W06
	.byte			An3
	.byte	W12
	.byte			Dn4
	.byte	W12
	.byte	PEND
	.byte	VOICE	, 125
	.byte	PAN	, c_v+20
	.byte	VOL	, v018
	.byte	BEND	, c_v
	.byte		N40	, As2, v056
	.byte	W03
	.byte	VOL	, v023
	.byte	W03
	.byte		v029
	.byte	W03
	.byte		v035
	.byte	W03
	.byte		v040
	.byte	W30
	.byte		N22	, Cn3
	.byte	W24
	.byte		N28	, As2
	.byte	W30
	.byte	VOL	, v018
	.byte		N40	, An2
	.byte	W03
	.byte	VOL	, v025
	.byte	W03
	.byte		v032
	.byte	W36
	.byte		N22	, Fs2
	.byte	W24
	.byte		N28	, An2
	.byte	W30
	.byte	VOL	, v018
	.byte		N92	, As2
	.byte	W03
	.byte	VOL	, v023
	.byte	W03
	.byte		v028
	.byte	W03
	.byte		v033
	.byte	W03
	.byte		v037
	.byte	W03
	.byte		v042
	.byte	W03
	.byte		v046
	.byte	W18
	.byte		v046
	.byte	W03
	.byte		v045
	.byte	W03
	.byte		v044
	.byte	W03
	.byte		v043
	.byte	W03
	.byte		v042
	.byte	W03
	.byte		v041
	.byte	W03
	.byte		v040
	.byte	W03
	.byte		v039
	.byte	W03
	.byte		v038
	.byte	W03
	.byte		v037
	.byte	W03
	.byte		v035
	.byte	W03
	.byte		v035
	.byte	W03
	.byte		v034
	.byte	W03
	.byte		v033
	.byte	W03
	.byte		v032
	.byte	W03
	.byte		v031
	.byte	W03
	.byte		v030
	.byte	W03
	.byte		v029
	.byte	W03
	.byte		v028
	.byte	W03
	.byte		v027
	.byte	W03
	.byte		N42	, As3
	.byte	W03
	.byte	VOL	, v029
	.byte	W03
	.byte		v032
	.byte	W03
	.byte		v035
	.byte	W03
	.byte		v037
	.byte	W03
	.byte		v040
	.byte	W03
	.byte		v043
	.byte	W03
	.byte		v046
	.byte	W21
	.byte		N06	, An3
	.byte	W12
	.byte			Gn3
	.byte	W12
	.byte			Fn3
	.byte	W12
	.byte		N18	, En3
	.byte	W18
	.byte	VOICE	, 31
	.byte	PAN	, c_v+20
	.byte	VOL	, v046
	.byte	BEND	, c_v
	.byte		N06	, An3, v040
	.byte	W06
	.byte			Fn4
	.byte	W12
	.byte			Cn4
	.byte	W12
	.byte			An3
	.byte	W12
	.byte			Fn4
	.byte	W12
	.byte			Cn4
	.byte	W12
	.byte			An3
	.byte	W06
	.byte			Cn4
	.byte	W06
	.byte		N06	
	.byte	W06
	.byte			Fn4
	.byte	W12
	.byte	PATT	
		.word	mus_speed_eaters_5_1
	.byte	PATT	
		.word	mus_speed_eaters_5_2
	.byte	PATT	
		.word	mus_speed_eaters_5_3
	.byte	VOICE	, 125
	.byte	VOL	, v027
	.byte	W12
	.byte		N06	, Gn3, v060
	.byte	W12
	.byte		N06	
	.byte	W06
	.byte			Fn3
	.byte	W06
	.byte			En3
	.byte	W06
	.byte		N22	, Cn3
	.byte	W24
	.byte		N06	, Dn3
	.byte	W12
	.byte		N21	, En3
	.byte	W18
	.byte	W12
	.byte		N06	, Fn3
	.byte	W12
	.byte		N06	
	.byte	W06
	.byte			En3
	.byte	W06
	.byte			Fn3
	.byte	W06
	.byte		N22	, An3
	.byte	W24
	.byte		N06	, Fs3
	.byte	W12
	.byte		N21	, Dn3
	.byte	W18
	.byte	W12
	.byte		N06	, Gn3
	.byte	W12
	.byte		N06	
	.byte	W06
	.byte			Fn3
	.byte	W06
	.byte			En3
	.byte	W06
	.byte		N22	, Cn3
	.byte	W24
	.byte		N06	, Dn3
	.byte	W12
	.byte			En3
	.byte	W12
	.byte		N04	, Fn3
	.byte	W06
	.byte	W48
	.byte	VOICE	, 31
	.byte	PAN	, c_v+20
	.byte	VOL	, v046
	.byte	BEND	, c_v
	.byte	W48
	.byte	VOICE	, 24
	.byte	MOD	, 1
	.byte	PAN	, c_v-10
	.byte	VOL	, v064
	.byte	BEND	, c_v
	.byte		N15	, Fn3, v040
	.byte	W18
	.byte		N21	
	.byte	W24
	.byte			Dn3
	.byte	W24
	.byte		N24	, Cn3
	.byte	W30
	.byte	W72
	.byte	VOICE	, 31
	.byte	W06
	.byte	PAN	, c_v+20
	.byte	VOL	, v055
	.byte	BEND	, c_v
	.byte	W18
	.byte	GOTO	
		.word	mus_speed_eaters_5_4
	.byte	W96
	.byte	FINE

	@********************** Track  6 **********************@

	.global mus_speed_eaters_6
mus_speed_eaters_6:	@ 0x08D4FE42
	.byte	KEYSH	, 0
	.byte	VOICE	, 73
	.byte	MOD	, 0
	.byte	VOL	, v032
	.byte	PAN	, c_v-20
	.byte	BEND	, c_v+8
	.byte	W04
	.byte		N06	, Dn3, v052
	.byte	W06
	.byte			En3
	.byte	W06
	.byte			Fn3
	.byte	W06
	.byte		N12	, Cn3
	.byte	W12
	.byte		N06	, En3
	.byte	W06
	.byte			Fn3
	.byte	W06
	.byte		N12	, As2
	.byte	W12
	.byte		N06	, En3
	.byte	W06
	.byte			Fn3
	.byte	W06
	.byte		N12	, An2
	.byte	W12
	.byte		N06	, Fn2
	.byte	W06
	.byte			Gn2
	.byte	W06
	.byte			An2
	.byte	W02
mus_speed_eaters_6_2:
	.byte	W04
	.byte		N06	, As2, v052
	.byte	W06
	.byte			An2
	.byte	W12
	.byte			Gn2
	.byte	W12
	.byte			Fn2, v060
	.byte	W12
	.byte		N03	
	.byte	W48
	.byte	W02
	.byte	PEND
mus_speed_eaters_6_3:
	.byte	W15
	.byte	VOL	, v018
	.byte	W09
	.byte		N10	, An2, v052
	.byte	W12
	.byte		N10	
	.byte	W12
	.byte		N06	, As2
	.byte	W12
	.byte		N04	, Cn3, v060
	.byte	W04
	.byte			Cn3, v052
	.byte	W04
	.byte			Cn3, v040
	.byte	W04
	.byte			Cn3, v032
	.byte	W06
	.byte		N06	, As2, v052
	.byte	W12
	.byte		N04	, An2, v060
	.byte	W04
	.byte			An2, v052
	.byte	W02
mus_speed_eaters_6_1:
	.byte	W02
	.byte		N04	, An2, v040
	.byte	W04
	.byte			An2, v032
	.byte	W06
	.byte		N12	, Gn2, v052
	.byte	W12
	.byte		N12	
	.byte	W12
	.byte		N06	
	.byte	W06
	.byte			Fs2
	.byte	W06
	.byte			Gn2
	.byte	W06
	.byte			Dn3
	.byte	W12
	.byte			Dn3, v032
	.byte	W12
	.byte			Dn3, v020
	.byte	W12
	.byte			Dn3, v012
	.byte	W06
	.byte	PEND
	.byte	W24
	.byte			As2, v052
	.byte	W12
	.byte			Cn3
	.byte	W06
	.byte		N18	, Dn3
	.byte	W18
	.byte		N04	, Cn3, v060
	.byte	W04
	.byte			Cn3, v052
	.byte	W04
	.byte			Cn3, v040
	.byte	W04
	.byte			Cn3, v032
	.byte	W06
	.byte		N18	, As2, v052
	.byte	W18
	.byte		N06	, Gn2
	.byte	W12
	.byte		N12	, An2
	.byte	W12
	.byte		N06	, As2
	.byte	W06
	.byte		N04	, Cn3, v060
	.byte	W04
	.byte			Cn3, v052
	.byte	W04
	.byte			Cn3, v040
	.byte	W04
	.byte			Cn3, v036
	.byte	W04
	.byte			Cn3, v032
	.byte	W04
	.byte			Cn3, v028
	.byte	W04
	.byte			Cn3, v020
	.byte	W04
	.byte			Cn3, v012
	.byte	W14
	.byte		N12	, Fs2, v052
	.byte	W12
	.byte		N06	, Gn2
	.byte	W06
	.byte		N04	, An2
	.byte	W04
	.byte			An2, v040
	.byte	W02
	.byte	W02
	.byte			An2, v032
	.byte	W04
	.byte			An2, v020
	.byte	W18
	.byte		N12	, Dn3, v052
	.byte	W12
	.byte		N06	
	.byte	W06
	.byte			En3
	.byte	W06
	.byte			Fn3
	.byte	W06
	.byte		N04	, En3, v060
	.byte	W04
	.byte			En3, v052
	.byte	W04
	.byte			En3, v040
	.byte	W04
	.byte			En3, v032
	.byte	W04
	.byte			En3, v020
	.byte	W08
	.byte			Dn3, v060
	.byte	W04
	.byte			Dn3, v052
	.byte	W04
	.byte			Dn3, v040
	.byte	W04
	.byte			Dn3, v032
	.byte	W04
	.byte			Dn3, v020
	.byte	W02
	.byte	W24
	.byte		N06	, Cn3, v052
	.byte	W12
	.byte		N06	
	.byte	W06
	.byte			Dn3
	.byte	W06
	.byte			En3
	.byte	W06
	.byte			Dn3
	.byte	W12
	.byte			Cn3
	.byte	W12
	.byte			An2
	.byte	W12
	.byte		N04	, Cn3, v060
	.byte	W04
	.byte			Cn3, v048
	.byte	W02
	.byte	W02
	.byte			Cn3, v036
	.byte	W04
	.byte			Cn3, v028
	.byte	W06
	.byte		N12	, As2, v052
	.byte	W12
	.byte		N06	, Fn2
	.byte	W12
	.byte		N12	
	.byte	W12
	.byte		N06	, Dn2
	.byte	W06
	.byte		N04	, Fn2, v060
	.byte	W04
	.byte			Fn2, v052
	.byte	W04
	.byte			Fn2, v040
	.byte	W04
	.byte			Fn2, v036
	.byte	W04
	.byte			Fn2, v032
	.byte	W04
	.byte			Fn2, v028
	.byte	W04
	.byte			Fn2, v020
	.byte	W04
	.byte			Fn2, v016
	.byte	W04
	.byte			Fn2, v012
	.byte	W04
	.byte			Fn2, v008
	.byte	W06
	.byte	W24
	.byte		N12	, Dn2, v052
	.byte	W12
	.byte		N06	
	.byte	W06
	.byte			Fn2
	.byte	W06
	.byte			Dn3
	.byte	W06
	.byte			Cn3
	.byte	W12
	.byte			As2
	.byte	W12
	.byte			An2
	.byte	W12
	.byte		N04	, Gn2, v060
	.byte	W04
	.byte			Gn2, v040
	.byte	W02
	.byte	W02
	.byte			Gn2, v032
	.byte	W04
	.byte			Gn2, v020
	.byte	W18
	.byte		N12	, An2, v052
	.byte	W12
	.byte		N12	
	.byte	W12
	.byte		N06	, As2
	.byte	W12
	.byte		N04	, Cn3, v060
	.byte	W04
	.byte			Cn3, v052
	.byte	W04
	.byte			Cn3, v040
	.byte	W04
	.byte			Cn3, v028
	.byte	W06
	.byte		N06	, As2, v052
	.byte	W12
	.byte		N04	, An2, v060
	.byte	W04
	.byte			An2, v052
	.byte	W02
	.byte	PATT	
		.word	mus_speed_eaters_6_1
	.byte	W24
	.byte		N06	, As2, v052
	.byte	W12
	.byte			Cn3
	.byte	W06
	.byte		N18	, Dn3
	.byte	W18
	.byte		N12	, En3, v060
	.byte	W12
	.byte			Dn3
	.byte	W12
	.byte			Cn3, v052
	.byte	W12
	.byte		N06	, As2
	.byte	W12
	.byte		N12	, An2
	.byte	W12
	.byte		N06	, As2
	.byte	W06
	.byte		N04	, Cn3, v060
	.byte	W04
	.byte			Cn3, v052
	.byte	W04
	.byte			Cn3, v048
	.byte	W04
	.byte			Cn3, v040
	.byte	W04
	.byte			Cn3, v036
	.byte	W04
	.byte			Cn3, v032
	.byte	W04
	.byte			Cn3, v020
	.byte	W04
	.byte			Cn3, v016
	.byte	W14
	.byte		N12	, Dn3, v052
	.byte	W12
	.byte		N06	, An2
	.byte	W06
	.byte		N04	, Cn3
	.byte	W04
	.byte			Cn3, v040
	.byte	W02
	.byte	W02
	.byte			Cn3, v032
	.byte	W04
	.byte			Cn3, v020
	.byte	W18
	.byte		N06	, As2, v060
	.byte	W12
	.byte		N06	
	.byte	W06
	.byte			An2
	.byte	W06
	.byte			Gn2
	.byte	W06
	.byte		N04	, En2
	.byte	W04
	.byte			En2, v052
	.byte	W04
	.byte			En2, v040
	.byte	W04
	.byte			En2, v032
	.byte	W04
	.byte		N02	, En2, v020
	.byte	W08
	.byte		N04	, Fn2, v060
	.byte	W12
	.byte			Gn2
	.byte	W04
	.byte			Gn2, v040
	.byte	W02
	.byte	W02
	.byte			Gn2, v032
	.byte	W04
	.byte		N02	, Gn2, v020
	.byte	W04
	.byte			Gn2, v012
	.byte	W14
	.byte		N06	, An2, v060
	.byte	W12
	.byte		N06	
	.byte	W06
	.byte			Gs2
	.byte	W06
	.byte			An2
	.byte	W06
	.byte		N04	, Dn3
	.byte	W04
	.byte			Dn3, v052
	.byte	W04
	.byte			Dn3, v040
	.byte	W04
	.byte			Dn3, v032
	.byte	W04
	.byte		N02	, Dn3, v020
	.byte	W08
	.byte		N04	, An2, v060
	.byte	W12
	.byte			Fs2
	.byte	W04
	.byte			Fs2, v052
	.byte	W02
	.byte	W02
	.byte			Fs2, v040
	.byte	W04
	.byte		N02	, Fs2, v032
	.byte	W04
	.byte			Fs2, v020
	.byte	W14
	.byte		N06	, As2, v060
	.byte	W12
	.byte		N06	
	.byte	W06
	.byte			An2
	.byte	W06
	.byte			Gn2
	.byte	W06
	.byte		N04	, En2
	.byte	W04
	.byte			En2, v040
	.byte	W04
	.byte			En2, v032
	.byte	W04
	.byte			En2, v020
	.byte	W04
	.byte		N02	, En2, v012
	.byte	W08
	.byte		N04	, Fn2, v060
	.byte	W12
	.byte			Gn2
	.byte	W06
	.byte	W96
	.byte	VOICE	, 73
	.byte	MOD	, 0
	.byte	VOL	, v004
	.byte	PAN	, c_v-20
	.byte	BEND	, c_v+8
	.byte	W04
	.byte		N06	, Dn3, v052
	.byte	W06
	.byte			En3
	.byte	W06
	.byte			Fn3
	.byte	W06
	.byte		N12	, Cn3
	.byte	W12
	.byte		N06	, En3
	.byte	W06
	.byte			Fn3
	.byte	W06
	.byte		N12	, As2
	.byte	W12
	.byte		N06	, En3
	.byte	W06
	.byte			Fn3
	.byte	W06
	.byte		N12	, An2
	.byte	W12
	.byte	VOL	, v032
	.byte		N06	, Fn2
	.byte	W06
	.byte			Gn2
	.byte	W06
	.byte			An2
	.byte	W02
	.byte	PATT	
		.word	mus_speed_eaters_6_2
	.byte	GOTO	
		.word	mus_speed_eaters_6_3
	.byte	W96
	.byte	FINE

	.align 2
	.global mus_speed_eaters
mus_speed_eaters:	@ 0x08D500D0
	.byte	6		@ trackCount
	.byte	0		@ blockCount
	.byte	128		@ priority
	.byte	128		@ reverb

	.word	voicegroup000		@ voicegroup/tone

	.word	mus_speed_eaters_1		@ track
	.word	mus_speed_eaters_2		@ track
	.word	mus_speed_eaters_3		@ track
	.word	mus_speed_eaters_4		@ track
	.word	mus_speed_eaters_5		@ track
	.word	mus_speed_eaters_6		@ track
