	.include "MPlayDef.s"

	.section .rodata

	@********************** Track  1 **********************@

	.align 2
	.global mus_candy_constellation_1
mus_candy_constellation_1:	@ 0x08D45EF0
	.byte	KEYSH	, 0
	.byte	TEMPO	, 63
	.byte	VOICE	, 67
	.byte	VOL	, v115
	.byte	PAN	, c_v
	.byte	BEND	, c_v
	.byte		N42	, Cs1, v032
	.byte	W48
	.byte			Cs3, v020
	.byte	W48
	.byte			Cs1, v040
	.byte	W24
	.byte	TEMPO	, 64
	.byte	W24
	.byte	TEMPO	, 64
	.byte			Cs3
	.byte	W12
	.byte	TEMPO	, 65
	.byte	W18
	.byte	TEMPO	, 65
	.byte	W12
	.byte	TEMPO	, 66
	.byte	W06
	.byte	TEMPO	, 66
	.byte	W72
	.byte		N06	, Ds0, v080
	.byte	W06
	.byte			Ds0, v092
	.byte	W06
	.byte		N12	, An0, v112
	.byte	W12
mus_candy_constellation_1_8:
	.byte		N06	, Gs1, v112
	.byte		N30	, Cs3, v040
	.byte	W06
	.byte		N06	, Fs0, v092
	.byte	W06
	.byte			Fs0, v112
	.byte	W06
	.byte			Ds0, v072
	.byte	W06
	.byte			Fs0, v100
	.byte	W06
	.byte			Fs0, v112
	.byte	W06
	.byte			As0
	.byte		N06	, Gs1, v100
	.byte	W06
	.byte			Fs0, v072
	.byte	W06
	.byte			Fs0, v112
	.byte	W06
	.byte			En1, v072
	.byte	W06
	.byte			Fs0, v100
	.byte	W06
	.byte			Gs1, v112
	.byte	W06
	.byte			Ds0, v072
	.byte	W06
	.byte			Fs0, v092
	.byte	W06
	.byte			As0, v072
	.byte	W06
	.byte			Fs0, v100
	.byte	W06
mus_candy_constellation_1_3:
	.byte		N06	, En1, v060
	.byte		N06	, Gs1, v112
	.byte	W06
	.byte			Fs0, v092
	.byte	W06
	.byte			Fs0, v112
	.byte	W06
	.byte			Ds0, v072
	.byte	W06
	.byte			Fs0, v100
	.byte	W06
	.byte			Fs0, v112
	.byte	W06
	.byte			Gs1, v100
	.byte		N06	, Cn2, v092
	.byte	W06
	.byte			Fs0, v072
	.byte	W06
	.byte			Fs0, v112
	.byte	W06
	.byte			En1, v072
	.byte	W06
	.byte			Fs0, v100
	.byte	W06
	.byte			Gs1, v112
	.byte	W06
	.byte			Ds0, v072
	.byte	W06
	.byte			Fs0, v092
	.byte	W06
	.byte			As0, v072
	.byte	W06
	.byte			Fs0, v100
	.byte	W06
	.byte	PEND
mus_candy_constellation_1_4:
	.byte		N06	, En1, v060
	.byte		N06	, Gs1, v112
	.byte	W06
	.byte			Fs0, v092
	.byte	W06
	.byte			Fs0, v112
	.byte	W06
	.byte			Ds0, v072
	.byte	W06
	.byte			Fs0, v100
	.byte	W06
	.byte			Fs0, v112
	.byte	W06
	.byte			Fs0, v092
	.byte		N06	, Gs1, v100
	.byte	W06
	.byte			Fs0, v072
	.byte	W06
	.byte			Fs0, v112
	.byte	W06
	.byte			En1, v072
	.byte	W06
	.byte			Fs0, v100
	.byte	W06
	.byte			Gs1, v112
	.byte	W06
	.byte			Ds0, v072
	.byte	W06
	.byte			Fs0, v092
	.byte	W06
	.byte			As0, v072
	.byte	W06
	.byte			Fs0, v100
	.byte	W06
	.byte	PEND
mus_candy_constellation_1_2:
	.byte		N06	, En1, v060
	.byte		N06	, Gs1, v112
	.byte	W06
	.byte			Fs0, v092
	.byte	W06
	.byte			Fs0, v112
	.byte	W06
	.byte			Ds0, v072
	.byte	W06
	.byte			Fs0, v100
	.byte	W06
	.byte			Fs0, v112
	.byte	W06
	.byte			Gs0, v100
	.byte		N06	, Gs1
	.byte	W06
	.byte			Fs0, v072
	.byte	W06
	.byte			Fs0, v112
	.byte	W06
	.byte			En1, v072
	.byte	W06
	.byte			Fs0, v100
	.byte	W06
	.byte			Gs1, v112
	.byte	W06
	.byte			Ds0, v072
	.byte	W06
	.byte			Fs0, v092
	.byte	W06
	.byte			As0, v072
	.byte	W06
	.byte			Fs0, v100
	.byte	W06
	.byte	PEND
mus_candy_constellation_1_5:
	.byte		N06	, Gs1, v112
	.byte		N30	, Cs3, v032
	.byte	W06
	.byte		N06	, Fs0, v092
	.byte	W06
	.byte			Fs0, v112
	.byte	W06
	.byte			Ds0, v072
	.byte	W06
	.byte			Fs0, v100
	.byte	W06
	.byte			Fs0, v112
	.byte	W06
	.byte			As0
	.byte		N06	, Gs1, v100
	.byte	W06
	.byte			Fs0, v072
	.byte	W06
	.byte			Fs0, v112
	.byte	W06
	.byte			En1, v072
	.byte	W06
	.byte			Fs0, v100
	.byte	W06
	.byte			Gs1, v112
	.byte	W06
	.byte			Ds0, v072
	.byte	W06
	.byte			Fs0, v092
	.byte	W06
	.byte			Gs0, v072
	.byte	W06
	.byte			Fs0, v100
	.byte	W06
	.byte	PEND
mus_candy_constellation_1_1:
	.byte		N06	, En1, v060
	.byte		N06	, Gs1, v112
	.byte	W06
	.byte			Fs0, v092
	.byte	W06
	.byte			Fs0, v112
	.byte	W06
	.byte			Ds0, v072
	.byte	W06
	.byte			Fs0, v100
	.byte	W06
	.byte			Fs0, v112
	.byte	W06
	.byte		N06	
	.byte		N06	, Gs1, v100
	.byte	W06
	.byte			Fs0, v072
	.byte	W06
	.byte			Fs0, v112
	.byte	W06
	.byte			En1, v072
	.byte	W06
	.byte			Fs0, v100
	.byte	W06
	.byte			Gs1, v112
	.byte	W06
	.byte			Ds0, v072
	.byte	W06
	.byte			Fs0, v092
	.byte	W06
	.byte			As0, v072
	.byte	W06
	.byte			Fs0, v100
	.byte	W06
	.byte	PEND
	.byte	PATT	
		.word	mus_candy_constellation_1_1
	.byte	PATT	
		.word	mus_candy_constellation_1_2
	.byte		N06	, Gs1, v112
	.byte		N30	, Cs3, v040
	.byte	W06
	.byte		N06	, Fs0, v092
	.byte	W06
	.byte			Fs0, v112
	.byte	W06
	.byte			Ds0, v072
	.byte	W06
	.byte			Fs0, v100
	.byte	W06
	.byte			Fs0, v112
	.byte	W06
	.byte			As0
	.byte		N06	, Gs1, v100
	.byte	W06
	.byte			Fs0, v072
	.byte	W06
	.byte			Fs0, v112
	.byte	W06
	.byte			En1, v072
	.byte	W06
	.byte			Fs0, v100
	.byte	W06
	.byte			Gs1, v112
	.byte	W06
	.byte			Ds0, v072
	.byte	W06
	.byte			Fs0, v092
	.byte	W06
	.byte			As0, v072
	.byte	W06
	.byte			Fs0, v100
	.byte	W06
	.byte	PATT	
		.word	mus_candy_constellation_1_3
	.byte	PATT	
		.word	mus_candy_constellation_1_4
	.byte	PATT	
		.word	mus_candy_constellation_1_2
	.byte	PATT	
		.word	mus_candy_constellation_1_5
	.byte	PATT	
		.word	mus_candy_constellation_1_1
	.byte	PATT	
		.word	mus_candy_constellation_1_1
	.byte		N06	, En1, v060
	.byte		N06	, Gs1, v112
	.byte	W06
	.byte			Fs0, v092
	.byte	W06
	.byte			Fs0, v112
	.byte	W06
	.byte			Ds0, v072
	.byte	W06
	.byte			Fs0, v100
	.byte	W06
	.byte			Fs0, v112
	.byte	W06
	.byte			As0
	.byte		N06	, Gs1, v100
	.byte	W06
	.byte			Fs0, v072
	.byte	W06
	.byte			Fs0, v112
	.byte	W06
	.byte			Ds0, v072
	.byte	W06
	.byte			Ds0, v080
	.byte	W06
	.byte			Gs1, v112
	.byte	W06
	.byte			Ds0, v072
	.byte	W06
	.byte			Fs0, v092
	.byte	W06
	.byte			Ds0, v080
	.byte	W06
	.byte		N06	
	.byte	W06
	.byte			Gs1, v112
	.byte		N30	, Cs3, v032
	.byte	W06
	.byte		N06	, Fs0, v092
	.byte	W06
	.byte			Fs0, v112
	.byte	W06
	.byte			Ds0, v072
	.byte	W06
	.byte			Fs0, v100
	.byte	W06
	.byte			Fs0, v112
	.byte	W06
	.byte			Gs1, v100
	.byte		N06	, Cs2, v032
	.byte	W06
	.byte			Fs0, v072
	.byte	W06
	.byte			Fs0, v112
	.byte	W06
	.byte			En1, v072
	.byte	W06
	.byte			Fs0, v100
	.byte	W06
	.byte			Gs1, v112
	.byte	W06
	.byte			Ds0, v072
	.byte	W06
	.byte			Fs0, v092
	.byte	W06
	.byte			As0, v072
	.byte	W06
	.byte			Fs0, v100
	.byte	W06
	.byte	PATT	
		.word	mus_candy_constellation_1_1
	.byte	PATT	
		.word	mus_candy_constellation_1_1
	.byte		N06	, En1, v060
	.byte		N06	, Gs1, v112
	.byte	W06
	.byte			Fs0, v092
	.byte	W06
	.byte			Fs0, v112
	.byte	W06
	.byte			Ds0, v072
	.byte	W06
	.byte			Fs0, v100
	.byte	W06
	.byte			Fs0, v112
	.byte	W06
	.byte			As0
	.byte		N06	, Gs1, v100
	.byte	W06
	.byte			Fs0, v072
	.byte	W06
	.byte			Fs0, v112
	.byte	W06
	.byte			En1, v072
	.byte	W06
	.byte			Fs0, v100
	.byte	W06
	.byte			Gs1, v112
	.byte	W06
	.byte			Ds0, v072
	.byte	W06
	.byte			Fs0, v092
	.byte	W06
	.byte			As0, v072
	.byte	W06
	.byte			Fs0, v100
	.byte	W06
	.byte			Gs1, v112
	.byte		N30	, Cs3, v032
	.byte	W06
	.byte		N06	, Fs0, v092
	.byte	W06
	.byte			Fs0, v112
	.byte	W06
	.byte			Ds0, v072
	.byte	W06
	.byte			Fs0, v100
	.byte	W06
	.byte			Fs0, v112
	.byte	W06
	.byte			As0
	.byte		N06	, Gs1, v100
	.byte	W06
	.byte			Fs0, v072
	.byte	W06
	.byte			Fs0, v112
	.byte	W06
	.byte			En1, v072
	.byte	W06
	.byte			Fs0, v100
	.byte	W06
	.byte			Gs1, v112
	.byte	W06
	.byte			Ds0, v072
	.byte	W06
	.byte			Fs0, v092
	.byte	W06
	.byte			As0, v072
	.byte	W06
	.byte			Fs0, v100
	.byte	W06
	.byte			En1, v060
	.byte		N06	, Gs1, v112
	.byte	W06
	.byte			Fs0, v092
	.byte	W06
	.byte			Fs0, v112
	.byte	W06
	.byte			Ds0, v072
	.byte	W06
	.byte			Fs0, v100
	.byte	W06
	.byte			Fs0, v112
	.byte	W06
	.byte			Dn1, v052
	.byte		N06	, Gs1, v100
	.byte	W06
	.byte			Fs0, v072
	.byte	W06
	.byte			Fs0, v112
	.byte	W06
	.byte			En1, v072
	.byte	W06
	.byte			Fs0, v100
	.byte	W06
	.byte			Gs1, v112
	.byte	W06
	.byte			Ds0, v072
	.byte	W06
	.byte			Fs0, v092
	.byte	W06
	.byte			As0, v072
	.byte	W06
	.byte			Fs0, v100
	.byte	W06
	.byte			En1, v060
	.byte		N06	, Gs1, v112
	.byte	W06
	.byte			Fs0, v092
	.byte	W06
	.byte			Fs0, v112
	.byte	W06
	.byte			Ds0, v072
	.byte	W06
	.byte			Fs0, v100
	.byte	W06
	.byte			Fs0, v072
	.byte	W06
	.byte			Fs0, v112
	.byte		N06	, Gs1, v100
	.byte	W06
	.byte			Fs0, v072
	.byte	W06
	.byte			Fs0, v112
	.byte	W06
	.byte			En1, v072
	.byte	W06
	.byte			Fs0, v100
	.byte	W06
	.byte			Gs1, v112
	.byte	W06
	.byte			Ds0, v072
	.byte	W06
	.byte			Fs0, v092
	.byte	W06
	.byte			As0, v072
	.byte	W06
	.byte			Fs0, v100
	.byte	W06
	.byte			En1, v060
	.byte		N06	, Gs1, v112
	.byte	W06
	.byte			Fs0, v092
	.byte	W06
	.byte			Fs0, v112
	.byte	W06
	.byte			Ds0, v072
	.byte	W06
	.byte			Fs0, v100
	.byte	W06
	.byte			Fs0, v112
	.byte	W06
	.byte			As0
	.byte		N06	, Gs1, v100
	.byte	W06
	.byte			Fs0, v072
	.byte	W06
	.byte			Fs0, v112
	.byte	W06
	.byte			En1, v072
	.byte	W06
	.byte			Fs0, v100
	.byte	W06
	.byte			Gs1, v112
	.byte	W06
	.byte			Ds0, v072
	.byte	W06
	.byte			Ds0, v060
	.byte	W06
	.byte			Ds0, v072
	.byte	W06
	.byte			Ds0, v080
	.byte	W06
	.byte			Gs1, v112
	.byte		N30	, Cs3, v040
	.byte	W06
	.byte		N06	, Fs0, v092
	.byte	W06
	.byte		N12	, Dn3, v032
	.byte	W06
	.byte		N06	, Ds0, v072
	.byte	W06
	.byte			Fs0, v100
	.byte	W06
	.byte			Fs0, v112
	.byte	W06
	.byte			Gs1, v100
	.byte		N12	, Dn3, v040
	.byte	W06
	.byte		N06	, Fs0, v072
	.byte	W06
	.byte			Fs0, v112
	.byte	W06
	.byte			En1, v072
	.byte	W06
	.byte		N12	, Dn3, v032
	.byte	W06
	.byte		N06	, Gs1, v112
	.byte	W06
	.byte			Ds0, v072
	.byte	W06
	.byte			Fs0, v092
	.byte	W06
	.byte		N12	, Dn3, v040
	.byte	W06
	.byte		N06	, Fs0, v100
	.byte	W06
mus_candy_constellation_1_6:
	.byte		N06	, Gs1, v112
	.byte	W06
	.byte			Fs0, v092
	.byte	W06
	.byte		N12	, Dn3, v020
	.byte	W06
	.byte		N06	, Ds0, v072
	.byte	W06
	.byte			Fs0, v100
	.byte	W06
	.byte			Fs0, v112
	.byte	W06
	.byte			Gs1, v100
	.byte		N12	, Dn3, v032
	.byte	W06
	.byte		N06	, Fs0, v072
	.byte	W06
	.byte			Fs0, v112
	.byte	W06
	.byte			En1, v072
	.byte	W06
	.byte		N12	, Dn3, v020
	.byte	W06
	.byte		N06	, Gs1, v112
	.byte	W06
	.byte			Ds0, v072
	.byte	W06
	.byte			Fs0, v092
	.byte	W06
	.byte		N12	, Dn3, v032
	.byte	W06
	.byte		N06	, Fs0, v100
	.byte	W06
	.byte	PEND
mus_candy_constellation_1_7:
	.byte		N06	, Gs1, v112
	.byte	W06
	.byte			Fs0, v092
	.byte	W06
	.byte		N12	, Dn3, v032
	.byte	W06
	.byte		N06	, Ds0, v072
	.byte	W06
	.byte			Fs0, v100
	.byte	W06
	.byte			Fs0, v112
	.byte	W06
	.byte			Gs1, v100
	.byte		N12	, Dn3, v040
	.byte	W06
	.byte		N06	, Fs0, v072
	.byte	W06
	.byte			Fs0, v112
	.byte	W06
	.byte			En1, v072
	.byte	W06
	.byte		N12	, Dn3, v032
	.byte	W06
	.byte		N06	, Gs1, v112
	.byte	W06
	.byte			Ds0, v072
	.byte	W06
	.byte			Fs0, v092
	.byte	W06
	.byte		N12	, Dn3, v040
	.byte	W06
	.byte		N06	, Fs0, v100
	.byte	W06
	.byte	PEND
	.byte	PATT	
		.word	mus_candy_constellation_1_6
	.byte	PATT	
		.word	mus_candy_constellation_1_7
	.byte	PATT	
		.word	mus_candy_constellation_1_6
	.byte	PATT	
		.word	mus_candy_constellation_1_7
	.byte		N06	, En1, v060
	.byte		N06	, Gs1, v112
	.byte	W06
	.byte			Fs0, v092
	.byte	W06
	.byte		N12	, Dn3, v020
	.byte	W06
	.byte		N06	, Ds0, v072
	.byte	W06
	.byte			Fs0, v100
	.byte	W06
	.byte			Fs0, v112
	.byte	W06
	.byte			Gs1, v100
	.byte		N06	, Dn3, v032
	.byte	W06
	.byte			Fs0, v072
	.byte	W06
	.byte			Fs0, v112
	.byte	W06
	.byte			Ds0, v080
	.byte	W06
	.byte			Ds0, v092
	.byte	W06
	.byte			Gs1, v112
	.byte	W06
	.byte			Ds0, v072
	.byte	W06
	.byte			Fs0, v092
	.byte	W06
	.byte			Ds0, v072
	.byte	W06
	.byte			Ds0, v092
	.byte	W06
	.byte			Gs1, v112
	.byte		N24	, Cs3, v040
	.byte	W06
	.byte		N06	, Fs0, v092
	.byte	W06
	.byte		N12	, Dn3, v032
	.byte	W06
	.byte		N06	, Ds0, v072
	.byte	W06
	.byte			Fs0, v100
	.byte	W06
	.byte			Fs0, v112
	.byte	W06
	.byte			Gs1, v100
	.byte		N12	, Dn3, v040
	.byte	W06
	.byte		N06	, Fs0, v072
	.byte	W06
	.byte			Fs0, v112
	.byte	W06
	.byte			En1, v072
	.byte	W06
	.byte		N12	, Dn3, v032
	.byte	W06
	.byte		N06	, Gs1, v112
	.byte	W06
	.byte			Ds0, v072
	.byte	W06
	.byte			Fs0, v092
	.byte	W06
	.byte		N12	, Dn3, v040
	.byte	W06
	.byte		N06	, Fs0, v100
	.byte	W06
	.byte			En1, v060
	.byte		N06	, Gs1, v112
	.byte	W06
	.byte			Fs0, v092
	.byte	W06
	.byte		N12	, Dn3, v020
	.byte	W06
	.byte		N06	, Ds0, v072
	.byte	W06
	.byte			Fs0, v100
	.byte	W06
	.byte			Fs0, v112
	.byte	W06
	.byte			Gs1, v100
	.byte		N06	, Dn3, v032
	.byte	W06
	.byte			Fs0, v072
	.byte	W06
	.byte			Fs0, v112
	.byte	W06
	.byte			Ds0, v080
	.byte	W06
	.byte			Ds0, v092
	.byte	W06
	.byte			Gs1, v112
	.byte	W06
	.byte		N04	, Ds0, v060
	.byte	W04
	.byte			Ds0, v076
	.byte	W04
	.byte			Ds0, v092
	.byte	W04
	.byte		N06	, Ds0, v072
	.byte	W06
	.byte			Ds0, v092
	.byte	W06
	.byte	GOTO	
		.word	mus_candy_constellation_1_8
	.byte	W96
	.byte	FINE

	@********************** Track  2 **********************@

	.global mus_candy_constellation_2
mus_candy_constellation_2:	@ 0x08D463D8
	.byte	KEYSH	, 0
	.byte	VOICE	, 109
	.byte	VOL	, v110
	.byte	MOD	, 0
	.byte	BEND	, c_v
	.byte		N24	, As2, v112
	.byte	W12
	.byte	PAN	, c_v
	.byte	W12
	.byte		N24	, Fn2
	.byte	W24
	.byte		N18	, As2
	.byte	W18
	.byte		N03	
	.byte	W03
	.byte		N03	
	.byte	W03
	.byte		N08	, As2, v100
	.byte	W08
	.byte			As2, v120
	.byte	W08
	.byte			As2, v100
	.byte	W08
	.byte		N16	, As2, v112
	.byte	W16
	.byte		N04	, As2, v100
	.byte	W04
	.byte			As2, v116
	.byte	W04
	.byte		N08	, As2, v112
	.byte	W08
	.byte			En2, v120
	.byte	W08
	.byte			As2, v112
	.byte	W08
	.byte			As2, v100
	.byte	W08
	.byte			En2, v120
	.byte	W08
	.byte			As2, v100
	.byte	W08
	.byte			Cn3, v120
	.byte	W08
	.byte			An2, v100
	.byte	W08
	.byte			Cn3, v112
	.byte	W08
	.byte			As2, v100
	.byte	W08
	.byte			En2, v120
	.byte	W08
	.byte			As2, v100
	.byte	W08
	.byte			Fn3
	.byte	W08
	.byte			Cn3, v120
	.byte	W08
	.byte			Fn3, v100
	.byte	W08
	.byte		N18	, Cn3, v120
	.byte	W24
	.byte	VOICE	, 1
	.byte	VOL	, v110
	.byte	PAN	, c_v
	.byte	MOD	, 2
	.byte	BEND	, c_v
	.byte	W24
	.byte	VOL	, v096
mus_candy_constellation_2_8:
	.byte		N06	, An2, v112
	.byte	W18
	.byte			An2, v092
	.byte	W18
	.byte			An2, v112
	.byte	W60
mus_candy_constellation_2_2:
	.byte		N06	, Dn3, v112
	.byte	W18
	.byte			Dn3, v092
	.byte	W18
	.byte			Dn3, v112
	.byte	W60
	.byte	PEND
mus_candy_constellation_2_1:
	.byte		N06	, An2, v112
	.byte	W18
	.byte			An2, v092
	.byte	W18
	.byte			An2, v112
	.byte	W60
	.byte	PEND
mus_candy_constellation_2_3:
	.byte		N06	, Dn3, v112
	.byte	W18
	.byte			Dn3, v092
	.byte	W18
	.byte			Dn3, v112
	.byte	W24
	.byte		N01	, Dn3, v100
	.byte	W06
	.byte		N01	
	.byte	W06
	.byte	BEND	, c_v-32
	.byte		N10	, Dn4, v092
	.byte	W06
	.byte	BEND	, c_v
	.byte	W06
	.byte		N10	, Dn3, v112
	.byte	W12
	.byte	PEND
	.byte	PATT	
		.word	mus_candy_constellation_2_1
	.byte	PATT	
		.word	mus_candy_constellation_2_2
	.byte	PATT	
		.word	mus_candy_constellation_2_1
	.byte	PATT	
		.word	mus_candy_constellation_2_3
	.byte	PATT	
		.word	mus_candy_constellation_2_1
	.byte	PATT	
		.word	mus_candy_constellation_2_2
	.byte	PATT	
		.word	mus_candy_constellation_2_1
	.byte	PATT	
		.word	mus_candy_constellation_2_3
	.byte	PATT	
		.word	mus_candy_constellation_2_1
	.byte	PATT	
		.word	mus_candy_constellation_2_2
	.byte	PATT	
		.word	mus_candy_constellation_2_1
	.byte		N06	, Gn2, v112
	.byte	W18
	.byte			Gn2, v092
	.byte	W18
	.byte			Gn2, v112
	.byte	W18
	.byte	BEND	, c_v-32
	.byte		N12	, Gn3
	.byte	W06
	.byte	BEND	, c_v
	.byte	W06
	.byte		N06	, Dn3, v100
	.byte	W06
	.byte			Bn2, v112
	.byte	W06
	.byte			Gn2
	.byte	W06
	.byte			Dn3, v100
	.byte	W06
	.byte			Gn2, v112
	.byte	W06
mus_candy_constellation_2_4:
	.byte		N06	, Cn3, v112
	.byte	W18
	.byte			Cn3, v092
	.byte	W18
	.byte			Cn3, v112
	.byte	W60
	.byte	PEND
	.byte	PATT	
		.word	mus_candy_constellation_2_2
mus_candy_constellation_2_5:
	.byte		N06	, En3, v112
	.byte	W18
	.byte			En3, v092
	.byte	W18
	.byte			En3, v112
	.byte	W60
	.byte	PEND
	.byte			Dn3
	.byte	W18
	.byte			Dn3, v092
	.byte	W18
	.byte			Dn3, v112
	.byte	W18
	.byte	BEND	, c_v-32
	.byte		N12	, Cn4, v100
	.byte	W06
	.byte	BEND	, c_v
	.byte	W06
	.byte		N06	, An3
	.byte	W06
	.byte			Fn3, v112
	.byte	W06
	.byte			Dn3
	.byte	W06
	.byte			An3, v100
	.byte	W06
	.byte			Dn3, v112
	.byte	W06
	.byte	PATT	
		.word	mus_candy_constellation_2_4
	.byte	PATT	
		.word	mus_candy_constellation_2_2
	.byte	PATT	
		.word	mus_candy_constellation_2_5
	.byte		N06	, Fn3, v112
	.byte	W18
	.byte			Fn3, v092
	.byte	W18
	.byte			Fn3, v112
	.byte	W18
	.byte	BEND	, c_v-32
	.byte		N12	, Cn4, v100
	.byte	W06
	.byte	BEND	, c_v
	.byte	W06
	.byte		N06	, An3
	.byte	W06
	.byte			Dn3
	.byte	W06
	.byte			En3
	.byte	W06
	.byte			Fn3
	.byte	W06
	.byte			Gn3
	.byte	W06
mus_candy_constellation_2_6:
	.byte		N06	, An2, v112
	.byte	W18
	.byte			An2, v092
	.byte	W18
	.byte			An2, v112
	.byte	W24
	.byte		N01	, An2, v052
	.byte	W06
	.byte			An2, v100
	.byte	W06
	.byte	BEND	, c_v-32
	.byte		N10	, En3
	.byte	W06
	.byte	BEND	, c_v
	.byte	W06
	.byte		N10	, An2, v112
	.byte	W12
	.byte	PEND
mus_candy_constellation_2_7:
	.byte		N06	, Dn3, v112
	.byte	W18
	.byte			Dn3, v092
	.byte	W18
	.byte			Dn3, v112
	.byte	W24
	.byte		N01	, Dn3, v100
	.byte	W06
	.byte		N01	
	.byte	W06
	.byte	BEND	, c_v-32
	.byte		N10	, Fn3
	.byte	W06
	.byte	BEND	, c_v
	.byte	W06
	.byte		N10	, An3
	.byte	W12
	.byte	PEND
	.byte	PATT	
		.word	mus_candy_constellation_2_1
	.byte		N06	, Dn3, v112
	.byte	W18
	.byte			Dn3, v092
	.byte	W18
	.byte			Dn3, v112
	.byte	W18
	.byte	BEND	, c_v-32
	.byte		N12	, Dn4
	.byte	W06
	.byte	BEND	, c_v
	.byte	W06
	.byte		N06	, An3, v100
	.byte	W06
	.byte		N12	, Dn3, v112
	.byte	W12
	.byte			An3, v100
	.byte	W12
	.byte	PATT	
		.word	mus_candy_constellation_2_6
	.byte	PATT	
		.word	mus_candy_constellation_2_7
	.byte	PATT	
		.word	mus_candy_constellation_2_1
	.byte		N06	, Dn3, v112
	.byte	W18
	.byte			Dn3, v092
	.byte	W18
	.byte			Dn3, v112
	.byte	W24
	.byte		N01	, Dn3, v100
	.byte	W06
	.byte		N01	
	.byte	W06
	.byte	BEND	, c_v-32
	.byte		N10	, An3
	.byte	W06
	.byte	BEND	, c_v
	.byte	W06
	.byte		N10	, Dn3
	.byte	W12
	.byte	PATT	
		.word	mus_candy_constellation_2_1
	.byte		N06	, Dn3, v112
	.byte	W18
	.byte			Dn3, v092
	.byte	W18
	.byte			Dn3, v112
	.byte	W18
	.byte			Dn4, v092
	.byte	W06
	.byte			An3, v096
	.byte	W06
	.byte			Fn3, v100
	.byte	W06
	.byte			Dn3, v108
	.byte	W06
	.byte			Fn3, v092
	.byte	W06
	.byte			An3, v096
	.byte	W06
	.byte			Dn3, v112
	.byte	W06
	.byte	GOTO	
		.word	mus_candy_constellation_2_8
	.byte	W96
	.byte	FINE

	@********************** Track  3 **********************@

	.global mus_candy_constellation_3
mus_candy_constellation_3:	@ 0x08D465F4
	.byte	KEYSH	, 0
	.byte	VOICE	, 106
	.byte	VOL	, v055
	.byte	PAN	, c_v
	.byte	LFODL	, 9
	.byte	LFOS	, 20
	.byte	MOD	, 1
	.byte	BEND	, c_v
	.byte		N24	, En3, v092
	.byte		N24	, An3, v080
	.byte	W24
	.byte			Bn2, v100
	.byte		N24	, En3
	.byte	W24
	.byte			An2
	.byte		N24	, Dn3
	.byte	W24
	.byte		N24	
	.byte		N24	, Gn3, v112
	.byte	W24
	.byte		N48	, Dn3, v092
	.byte		N48	, Fs3
	.byte	W48
	.byte		N72	, Gs2, v100
	.byte		N72	, En3
	.byte	W48
	.byte	W42
	.byte	VOICE	, 6
	.byte	W54
	.byte	PAN	, c_v
mus_candy_constellation_3_4:
	.byte	VOL	, v082
	.byte		N36	, An2, v060
	.byte	W36
	.byte		N24	, En2
	.byte	W24
	.byte		N12	, Cs2
	.byte	W12
	.byte			Dn2
	.byte	W12
	.byte		N06	, En2
	.byte	W12
mus_candy_constellation_3_1:
	.byte		N24	, Dn2, v060
	.byte	W24
	.byte			Fn2
	.byte	W24
	.byte			An2
	.byte	W24
	.byte			Dn3
	.byte	W24
	.byte	PEND
mus_candy_constellation_3_2:
	.byte		N18	, Cs3, v060
	.byte	W18
	.byte			Dn3
	.byte	W18
	.byte		N24	, Cs3
	.byte	W24
	.byte		N18	, An2
	.byte	W18
	.byte			En2
	.byte	W18
	.byte	PEND
	.byte		N92	, Dn2
	.byte	W96
	.byte	BEND	, c_v-32
	.byte		N18	, En3
	.byte	W03
	.byte	BEND	, c_v
	.byte	W15
	.byte		N18	, Cs3
	.byte	W18
	.byte		N24	, An2
	.byte	W24
	.byte		N12	, En2
	.byte	W12
	.byte			Cs2
	.byte	W12
	.byte		N06	, En2
	.byte	W12
mus_candy_constellation_3_3:
	.byte		N24	, Fn2, v060
	.byte	W24
	.byte			An2
	.byte	W24
	.byte			Dn3
	.byte	W24
	.byte			Bn2
	.byte	W24
	.byte	PEND
	.byte		N18	, Cs3
	.byte	W18
	.byte			Dn3
	.byte	W18
	.byte		N24	, Cs3
	.byte	W24
	.byte		N18	, An2
	.byte	W18
	.byte			En3
	.byte	W18
	.byte		N48	, Dn3
	.byte	W48
	.byte	BEND	, c_v-32
	.byte		N24	, Fn3
	.byte	W03
	.byte	BEND	, c_v
	.byte	W21
	.byte		N21	, Dn3
	.byte	W24
	.byte		N36	, Cs3
	.byte	W36
	.byte		N24	, An2
	.byte	W24
	.byte		N12	, En2
	.byte	W12
	.byte			Cs2
	.byte	W12
	.byte		N06	, En2
	.byte	W12
	.byte	PATT	
		.word	mus_candy_constellation_3_1
	.byte	PATT	
		.word	mus_candy_constellation_3_2
	.byte		N24	, Dn2, v060
	.byte	W24
	.byte			An2
	.byte	W24
	.byte			Dn3
	.byte	W24
	.byte			Fn3
	.byte	W24
	.byte		N18	, En3
	.byte	W18
	.byte			Cs3
	.byte	W18
	.byte		N24	, An2
	.byte	W24
	.byte		N12	, En2
	.byte	W12
	.byte			Cs2
	.byte	W12
	.byte		N06	, En2
	.byte	W12
	.byte	PATT	
		.word	mus_candy_constellation_3_3
	.byte		N18	, Cs3, v060
	.byte	W18
	.byte			Dn3
	.byte	W18
	.byte		N24	, En3
	.byte	W24
	.byte		N18	, Cs3
	.byte	W18
	.byte			An2
	.byte	W18
	.byte		N48	, Bn2
	.byte	W48
	.byte			Dn3
	.byte	W48
	.byte	VOICE	, 122
	.byte	W03
	.byte	LFODL	, 20
	.byte	LFOS	, 26
	.byte	MOD	, 6
	.byte	W03
	.byte	VOL	, v041
	.byte	W06
	.byte	BEND	, c_v-32
	.byte		N18	, Dn4, v052
	.byte	W03
	.byte	BEND	, c_v
	.byte	W15
	.byte		N18	, Bn3
	.byte	W18
	.byte		N06	, Gn3
	.byte	W18
	.byte		N18	, En3
	.byte	W18
	.byte		N06	, Gn3
	.byte	W12
	.byte		N21	, Fn3
	.byte	W24
	.byte			An3
	.byte	W24
	.byte	BEND	, c_v-32
	.byte		N21	, Cn4
	.byte	W03
	.byte	BEND	, c_v
	.byte	W21
	.byte		N18	, An3
	.byte	W24
	.byte			Bn3
	.byte	W18
	.byte			Cn4
	.byte	W18
	.byte		N21	, Bn3
	.byte	W24
	.byte	BEND	, c_v-24
	.byte		N12	, Gn3
	.byte	W03
	.byte	BEND	, c_v
	.byte	W09
	.byte		N12	, En3
	.byte	W12
	.byte		N06	, Gn3
	.byte	W12
	.byte		N84	, Fn3
	.byte	W96
	.byte	W12
	.byte	BEND	, c_v-32
	.byte		N18	, Dn4
	.byte	W03
	.byte	BEND	, c_v
	.byte	W15
	.byte		N18	, Bn3
	.byte	W18
	.byte		N06	, Gn3
	.byte	W12
	.byte		N06	
	.byte	W06
	.byte		N18	, En3
	.byte	W18
	.byte		N06	, Gn3
	.byte	W12
	.byte		N21	, Fn3
	.byte	W24
	.byte			An3
	.byte	W24
	.byte	BEND	, c_v-32
	.byte		N21	, Cn4
	.byte	W03
	.byte	BEND	, c_v
	.byte	W21
	.byte		N21	, An3
	.byte	W24
	.byte		N18	, Bn3
	.byte	W18
	.byte			Cn4
	.byte	W18
	.byte		N21	, Bn3
	.byte	W24
	.byte	BEND	, c_v-24
	.byte		N12	, Gn3
	.byte	W03
	.byte	BEND	, c_v
	.byte	W09
	.byte		N12	, Bn3
	.byte	W12
	.byte		N06	, Dn4
	.byte	W12
	.byte		N48	, Cn4
	.byte	W48
	.byte			Fn4
	.byte	W48
	.byte	VOICE	, 125
	.byte	PAN	, c_v-20
	.byte	VOL	, v055
	.byte		N36	, En3, v072
	.byte	W03
	.byte	VOL	, v044
	.byte	W03
	.byte		v051
	.byte	W03
	.byte		v058
	.byte	W03
	.byte		v066
	.byte	W03
	.byte		v073
	.byte	W03
	.byte		v072
	.byte	W03
	.byte		v069
	.byte	W03
	.byte		v065
	.byte	W03
	.byte		v062
	.byte	W03
	.byte		v058
	.byte	W03
	.byte		v055
	.byte	W03
	.byte		N60	, Cs3
	.byte	W03
	.byte	VOL	, v060
	.byte	W03
	.byte		v063
	.byte	W03
	.byte		v066
	.byte	W03
	.byte		v070
	.byte	W03
	.byte		v075
	.byte	W03
	.byte		v080
	.byte	W03
	.byte		v081
	.byte	W03
	.byte		v080
	.byte	W03
	.byte		v075
	.byte	W03
	.byte		v070
	.byte	W03
	.byte		v066
	.byte	W03
	.byte		v062
	.byte	W03
	.byte		v058
	.byte	W03
	.byte		v055
	.byte	W03
	.byte		v054
	.byte	W03
	.byte		v058
	.byte	W03
	.byte		v061
	.byte	W03
	.byte		v066
	.byte	W03
	.byte		v061
	.byte	W03
	.byte		v036
	.byte		N24	, Dn3, v060
	.byte	W24
	.byte			Fn3, v052
	.byte	W24
	.byte			An3, v060
	.byte	W24
	.byte			Fn3, v052
	.byte	W24
	.byte		N36	, En3
	.byte	W36
	.byte		N24	, Cs3, v060
	.byte	W24
	.byte		N36	, An2, v052
	.byte	W36
	.byte		N48	
	.byte	W48
	.byte		N24	, Fn3, v072
	.byte	W24
	.byte			Dn3, v060
	.byte	W24
	.byte		N18	, En3, v076
	.byte	W18
	.byte			Cs3
	.byte	W18
	.byte		N24	, An2
	.byte	W24
	.byte		N12	, En2
	.byte	W12
	.byte			Cs2
	.byte	W12
	.byte			En2
	.byte	W12
	.byte		N24	, Fn2
	.byte	W24
	.byte			An2
	.byte	W24
	.byte			Dn3
	.byte	W24
	.byte			An2
	.byte	W24
	.byte		N36	, Cs3, v080
	.byte	W36
	.byte		N60	, En3, v072
	.byte	W60
	.byte		N48	, Fn3, v056
	.byte	W48
	.byte			Dn3
	.byte	W48
	.byte		N96	, Cs3, v048
	.byte	W96
	.byte	VOICE	, 4
	.byte		N12	, Dn3, v100
	.byte	W16
	.byte			Dn3, v080
	.byte	W16
	.byte			Dn3, v060
	.byte	W16
	.byte			Dn3, v040
	.byte	W16
	.byte			Dn3, v020
	.byte	W20
	.byte	MOD	, 1
	.byte	PAN	, c_v
	.byte	BEND	, c_v
	.byte	W06
	.byte	VOICE	, 6
	.byte	W03
	.byte	VOL	, v082
	.byte	W03
	.byte	GOTO	
		.word	mus_candy_constellation_3_4
	.byte	W96
	.byte	FINE

	@********************** Track  4 **********************@

	.global mus_candy_constellation_4
mus_candy_constellation_4:	@ 0x08D46829
	.byte	KEYSH	, 0
	.byte	VOICE	, 64
	.byte	VOL	, v073
	.byte	MOD	, 1
	.byte	PAN	, c_v+20
	.byte	BEND	, c_v
	.byte		N24	, Bn1, v072
	.byte	W24
	.byte			Fs2, v060
	.byte	W24
	.byte			En2, v072
	.byte	W24
	.byte			An2, v060
	.byte	W24
	.byte		N48	, Fs3, v072
	.byte	W48
	.byte		N72	, Gs2, v080
	.byte	W48
	.byte	W48
	.byte		N06	, Gs2, v052
	.byte	W06
	.byte			An2, v056
	.byte	W06
	.byte			Bn2, v060
	.byte	W06
	.byte			Cs3, v068
	.byte	W06
	.byte			Dn3, v072
	.byte	W06
	.byte			En3, v076
	.byte	W06
	.byte			Fs3, v080
	.byte	W06
	.byte			Gs3, v076
	.byte	W06
mus_candy_constellation_4_3:
	.byte		N36	, Cs3, v052
	.byte	W36
	.byte		N60	, An2
	.byte	W60
	.byte		N48	, Fn2
	.byte	W48
	.byte		N24	, Dn3
	.byte	W24
	.byte			Fn3
	.byte	W24
	.byte		N18	, An2
	.byte	W18
	.byte			Bn2
	.byte	W18
	.byte		N60	, An2
	.byte	W60
	.byte		N48	, Fn2, v060
	.byte	W48
	.byte		N24	, An2, v072
	.byte	W24
	.byte			Dn3, v080
	.byte	W24
mus_candy_constellation_4_1:
	.byte		N18	, Cs3, v052
	.byte	W18
	.byte			An2
	.byte	W18
	.byte		N60	, En2
	.byte	W60
	.byte	PEND
mus_candy_constellation_4_2:
	.byte		N24	, An2, v052
	.byte	W24
	.byte			Dn3
	.byte	W24
	.byte			Fn3
	.byte	W24
	.byte			Dn3
	.byte	W24
	.byte	PEND
	.byte		N18	, An2
	.byte	W18
	.byte			Bn2
	.byte	W18
	.byte		N60	, An2, v060
	.byte	W60
	.byte		N48	, Fn2, v052
	.byte	W48
	.byte		N24	, An2, v060
	.byte	W24
	.byte			Dn3, v072
	.byte	W24
	.byte		N36	, An3, v052
	.byte	W36
	.byte		N24	, En3
	.byte	W24
	.byte		N12	, An2
	.byte	W12
	.byte			Bn2
	.byte	W12
	.byte			Cs3
	.byte	W12
	.byte		N24	, Fn2
	.byte	W24
	.byte			An2
	.byte	W24
	.byte			Dn3
	.byte	W24
	.byte			Fn3
	.byte	W24
	.byte		N18	, An2, v060
	.byte	W18
	.byte			Bn2
	.byte	W18
	.byte		N24	, An2
	.byte	W24
	.byte		N18	, En2
	.byte	W18
	.byte			Cs2
	.byte	W18
	.byte		N48	, Fn2, v052
	.byte	W48
	.byte		N24	, An2
	.byte	W24
	.byte			Dn3
	.byte	W24
	.byte	PATT	
		.word	mus_candy_constellation_4_1
	.byte	PATT	
		.word	mus_candy_constellation_4_2
	.byte		N18	, An2, v052
	.byte	W18
	.byte			Bn2
	.byte	W18
	.byte		N60	, Cs3
	.byte	W60
	.byte		N48	, Dn3
	.byte	W48
	.byte			Gn3
	.byte	W48
	.byte	VOICE	, 122
	.byte	W03
	.byte	LFODL	, 20
	.byte	LFOS	, 24
	.byte	MOD	, 5
	.byte	W03
	.byte	PAN	, c_v-20
	.byte	VOL	, v032
	.byte	W18
	.byte	BEND	, c_v-32
	.byte		N18	, Dn4, v048
	.byte	W03
	.byte	BEND	, c_v+8
	.byte	W15
	.byte		N18	, Bn3
	.byte	W18
	.byte		N06	, Gn3
	.byte	W18
	.byte		N18	, En3
	.byte	W18
	.byte		N06	, Gn3
	.byte	W12
	.byte		N21	, Fn3
	.byte	W24
	.byte			An3
	.byte	W24
	.byte	BEND	, c_v-32
	.byte		N21	, Cn4
	.byte	W03
	.byte	BEND	, c_v+8
	.byte	W21
	.byte		N15	, An3
	.byte	W12
	.byte	W12
	.byte		N18	, Bn3
	.byte	W18
	.byte			Cn4
	.byte	W18
	.byte		N21	, Bn3
	.byte	W24
	.byte	BEND	, c_v-24
	.byte		N12	, Gn3
	.byte	W03
	.byte	BEND	, c_v+8
	.byte	W09
	.byte		N12	, En3
	.byte	W12
	.byte		N06	, Gn3
	.byte	W12
	.byte		N84	, Fn3
	.byte	W84
	.byte	VOL	, v036
	.byte	W12
	.byte		N18	, Bn3, v052
	.byte	W03
	.byte	BEND	, c_v
	.byte	W15
	.byte		N18	, Gn3
	.byte	W18
	.byte		N06	, En3
	.byte	W12
	.byte		N06	
	.byte	W06
	.byte		N18	, Cn3
	.byte	W18
	.byte		N06	, En3
	.byte	W12
	.byte		N21	, Dn3
	.byte	W24
	.byte			Fn3
	.byte	W24
	.byte	BEND	, c_v-32
	.byte		N21	, An3
	.byte	W03
	.byte	BEND	, c_v
	.byte	W21
	.byte		N21	, Fn3
	.byte	W24
	.byte		N18	, Gn3
	.byte	W18
	.byte			An3
	.byte	W18
	.byte		N21	, Gn3
	.byte	W24
	.byte	BEND	, c_v-24
	.byte		N12	, En3
	.byte	W03
	.byte	BEND	, c_v
	.byte	W09
	.byte		N12	, Gn3
	.byte	W12
	.byte		N06	, Bn3
	.byte	W12
	.byte		N48	, An3
	.byte	W48
	.byte		N24	, Cn4
	.byte	W24
	.byte	VOICE	, 62
	.byte	VOL	, v050
	.byte		N06	, An2, v112
	.byte	W06
	.byte			Bn2, v116
	.byte	W06
	.byte			Cn3, v120
	.byte	W06
	.byte			Dn3
	.byte	W06
	.byte	VOICE	, 122
	.byte	PAN	, c_v
	.byte	VOL	, v036
	.byte		N36	, An3, v052
	.byte	W36
	.byte		N60	, En3
	.byte	W60
	.byte	PATT	
		.word	mus_candy_constellation_4_2
	.byte		N18	, An3, v052
	.byte	W18
	.byte			Bn3
	.byte	W18
	.byte		N24	, An3
	.byte	W24
	.byte		N18	, En3
	.byte	W18
	.byte			Cs3
	.byte	W18
	.byte		N90	, Fn3
	.byte	W96
	.byte		N18	, Cs4
	.byte	W18
	.byte			An3
	.byte	W18
	.byte		N24	, En3
	.byte	W24
	.byte		N12	, Cs3
	.byte	W12
	.byte			An2
	.byte	W12
	.byte		N09	, Cs3
	.byte	W12
	.byte	PATT	
		.word	mus_candy_constellation_4_2
	.byte	VOL	, v036
	.byte		N36	, An3, v052
	.byte	W36
	.byte		N60	, En3
	.byte	W60
	.byte		N24	, Dn3, v040
	.byte	W24
	.byte			Fn3, v052
	.byte	W24
	.byte			An3, v060
	.byte	W24
	.byte			Fn3, v072
	.byte	W24
	.byte		N96	, An3, v048
	.byte	W96
	.byte	W42
	.byte	VOICE	, 64
	.byte	VOL	, v073
	.byte	MOD	, 1
	.byte	PAN	, c_v+20
	.byte	BEND	, c_v
	.byte	W06
	.byte		N06	, Gs2, v052
	.byte	W06
	.byte			An2, v056
	.byte	W06
	.byte			Bn2, v060
	.byte	W06
	.byte			Cs3, v068
	.byte	W06
	.byte			Dn3, v072
	.byte	W06
	.byte			En3
	.byte	W06
	.byte			Fs3, v068
	.byte	W06
	.byte			Gs3, v060
	.byte	W06
	.byte	GOTO	
		.word	mus_candy_constellation_4_3
	.byte	W96
	.byte	FINE

	@********************** Track  5 **********************@

	.global mus_candy_constellation_5
mus_candy_constellation_5:	@ 0x08D46A14
	.byte	KEYSH	, 0
	.byte	VOICE	, 62
	.byte	VOL	, v073
	.byte	MOD	, 1
	.byte	PAN	, c_v-20
	.byte		N24	, En2, v072
	.byte	W24
	.byte			Bn2, v052
	.byte	W24
	.byte			An2, v060
	.byte	W24
	.byte			Gn3, v072
	.byte	W24
	.byte			Dn3, v052
	.byte	W24
	.byte			An2, v060
	.byte	W24
	.byte		N72	, Bn2
	.byte	W48
	.byte	W48
	.byte		N06	, En2, v056
	.byte	W06
	.byte			Fs2, v060
	.byte	W06
	.byte			Gs2, v068
	.byte	W06
	.byte			An2, v072
	.byte	W06
	.byte			An2, v076
	.byte	W06
	.byte			Bn2, v080
	.byte	W06
	.byte			Dn3, v088
	.byte	W06
	.byte			En3, v076
	.byte	W06
mus_candy_constellation_5_5:
	.byte		N36	, En2, v056
	.byte	W36
	.byte		N60	, Cs2, v052
	.byte	W60
mus_candy_constellation_5_1:
	.byte		N48	, An1, v052
	.byte	W48
	.byte		N24	, Fn2
	.byte	W24
	.byte			Bn2
	.byte	W24
	.byte	PEND
	.byte		N18	, En2
	.byte	W18
	.byte		N18	
	.byte	W18
	.byte		N60	
	.byte	W60
	.byte		N48	, An2, v060
	.byte	W48
	.byte		N24	, Dn3, v072
	.byte	W24
	.byte			Fn3, v080
	.byte	W24
	.byte		N18	, An2, v052
	.byte	W18
	.byte			En2
	.byte	W18
	.byte		N60	, Cs2
	.byte	W60
	.byte		N24	, Dn2
	.byte	W24
	.byte			Fn2
	.byte	W24
	.byte			An2
	.byte	W24
	.byte			Fn2
	.byte	W24
	.byte		N18	, En2
	.byte	W18
	.byte			Dn2
	.byte	W18
	.byte		N60	, Cs3
	.byte	W60
	.byte		N48	, An2
	.byte	W48
	.byte		N24	, Fn2, v060
	.byte	W24
	.byte			An2, v072
	.byte	W24
	.byte		N36	, En2, v056
	.byte	W36
	.byte		N60	, Cs2, v052
	.byte	W60
	.byte	PATT	
		.word	mus_candy_constellation_5_1
	.byte		N18	, En3, v040
	.byte	W18
	.byte			Fs3
	.byte	W18
	.byte		N60	, En3
	.byte	W60
	.byte		N48	, An2
	.byte	W48
	.byte		N24	, Fn3
	.byte	W24
	.byte		N21	, An3
	.byte	W24
	.byte		N18	
	.byte	W18
	.byte			En3
	.byte	W18
	.byte		N60	, Cs3
	.byte	W60
	.byte		N24	, Dn3
	.byte	W24
	.byte			Fn3
	.byte	W24
	.byte			An3
	.byte	W24
	.byte			Fn3
	.byte	W24
	.byte		N18	, En3, v052
	.byte	W18
	.byte			Fs3
	.byte	W18
	.byte		N60	, En3
	.byte	W60
	.byte		N48	, Gn3, v060
	.byte	W48
	.byte			Bn3, v072
	.byte	W48
mus_candy_constellation_5_2:
	.byte	VOICE	, 46
	.byte	VOL	, v064
	.byte	W06
	.byte	PAN	, c_v+30
	.byte		N06	, Gn3, v040
	.byte	W06
	.byte			Dn4
	.byte	W06
	.byte	PAN	, c_v-30
	.byte		N06	, Gn3
	.byte	W09
	.byte		N03	, Gn3, v020
	.byte	W03
	.byte	PAN	, c_v+30
	.byte		N06	, Bn3, v040
	.byte	W09
	.byte		N03	, Bn3, v020
	.byte	W03
	.byte	PAN	, c_v-30
	.byte		N06	, En3, v040
	.byte	W09
	.byte		N03	, En3, v020
	.byte	W03
	.byte	PAN	, c_v+30
	.byte		N06	, Gn3, v040
	.byte	W09
	.byte		N03	, Gn3, v020
	.byte	W03
	.byte	PAN	, c_v-30
	.byte		N06	, En3, v040
	.byte	W06
	.byte			Gn3
	.byte	W09
	.byte		N03	, Gn3, v020
	.byte	W03
	.byte	PAN	, c_v+30
	.byte		N06	, Bn3, v040
	.byte	W09
	.byte		N03	, Bn3, v020
	.byte	W03
	.byte	PEND
mus_candy_constellation_5_3:
	.byte	W06
	.byte	PAN	, c_v+30
	.byte		N06	, Fn3, v040
	.byte	W06
	.byte			Cn4
	.byte	W06
	.byte	PAN	, c_v-30
	.byte		N06	, Fn3
	.byte	W09
	.byte		N03	, Fn3, v020
	.byte	W03
	.byte	PAN	, c_v+30
	.byte		N06	, An3, v040
	.byte	W09
	.byte		N03	, An3, v020
	.byte	W03
	.byte	PAN	, c_v-30
	.byte		N06	, Fn3, v040
	.byte	W09
	.byte		N03	, Fn3, v020
	.byte	W03
	.byte	PAN	, c_v+30
	.byte		N06	, Cn4, v040
	.byte	W09
	.byte		N03	, Cn4, v020
	.byte	W03
	.byte	PAN	, c_v-30
	.byte		N06	, Fn3, v040
	.byte	W06
	.byte			An3
	.byte	W09
	.byte		N03	, An3, v020
	.byte	W03
	.byte	PAN	, c_v+30
	.byte		N06	, Cn4, v040
	.byte	W09
	.byte		N03	, Cn4, v020
	.byte	W03
	.byte	PEND
mus_candy_constellation_5_4:
	.byte	W06
	.byte	PAN	, c_v+30
	.byte		N06	, Bn3, v040
	.byte	W06
	.byte			Dn4, v036
	.byte	W06
	.byte	PAN	, c_v-30
	.byte		N06	, Gn3, v032
	.byte	W09
	.byte		N03	, Gn3, v016
	.byte	W03
	.byte	PAN	, c_v+30
	.byte		N06	, Bn3, v032
	.byte	W09
	.byte		N03	, Bn3, v016
	.byte	W03
	.byte	PAN	, c_v-30
	.byte		N06	, En3, v028
	.byte	W09
	.byte		N03	, En3, v016
	.byte	W03
	.byte	PAN	, c_v+30
	.byte		N06	, Gn3, v020
	.byte	W09
	.byte		N03	, Gn3, v012
	.byte	W03
	.byte	PAN	, c_v-30
	.byte		N06	, En3, v016
	.byte	W06
	.byte			Gn3, v012
	.byte	W09
	.byte		N03	, Gn3, v008
	.byte	W03
	.byte	PAN	, c_v+30
	.byte		N06	, Bn3
	.byte	W09
	.byte		N03	, Bn3, v004
	.byte	W03
	.byte	PEND
	.byte	VOICE	, 4
	.byte	PAN	, c_v+30
	.byte	VOL	, v064
	.byte		N09	, Fn2, v100
	.byte	W15
	.byte	PAN	, c_v+10
	.byte		N09	, Fn2, v052
	.byte	W09
	.byte	PAN	, c_v-30
	.byte		N09	, An2, v100
	.byte	W15
	.byte	PAN	, c_v-10
	.byte		N09	, An2, v052
	.byte	W09
	.byte	PAN	, c_v+30
	.byte		N09	, Cn3, v100
	.byte	W15
	.byte	PAN	, c_v+10
	.byte		N09	, Cn3, v052
	.byte	W09
	.byte	PAN	, c_v-30
	.byte		N09	, An2, v100
	.byte	W15
	.byte	PAN	, c_v-10
	.byte		N09	, An2, v052
	.byte	W09
	.byte	PATT	
		.word	mus_candy_constellation_5_2
	.byte	PATT	
		.word	mus_candy_constellation_5_3
	.byte	PATT	
		.word	mus_candy_constellation_5_4
	.byte	VOICE	, 62
	.byte	VOL	, v078
	.byte	MOD	, 1
	.byte	PAN	, c_v+10
	.byte	W48
	.byte		N06	, Gn2, v068
	.byte	W06
	.byte			An2
	.byte	W06
	.byte			Bn2, v072
	.byte	W06
	.byte			Cn3, v076
	.byte	W06
	.byte			Dn3, v080
	.byte	W06
	.byte			En3, v088
	.byte	W06
	.byte			Fn3, v092
	.byte	W06
	.byte			Gn3, v096
	.byte	W06
	.byte	PAN	, c_v+10
	.byte	VOL	, v055
	.byte		N36	, Cs3, v072
	.byte	W03
	.byte	VOL	, v044
	.byte	W03
	.byte		v051
	.byte	W03
	.byte		v058
	.byte	W03
	.byte		v066
	.byte	W03
	.byte		v073
	.byte	W03
	.byte		v072
	.byte	W03
	.byte		v069
	.byte	W03
	.byte		v065
	.byte	W03
	.byte		v062
	.byte	W03
	.byte		v058
	.byte	W03
	.byte		v055
	.byte	W03
	.byte		N60	, An2
	.byte	W03
	.byte	VOL	, v060
	.byte	W03
	.byte		v063
	.byte	W03
	.byte		v066
	.byte	W03
	.byte		v070
	.byte	W03
	.byte		v075
	.byte	W03
	.byte		v080
	.byte	W03
	.byte		v081
	.byte	W03
	.byte		v080
	.byte	W03
	.byte		v075
	.byte	W03
	.byte		v070
	.byte	W03
	.byte		v066
	.byte	W03
	.byte		v062
	.byte	W03
	.byte		v058
	.byte	W03
	.byte		v055
	.byte	W03
	.byte		v054
	.byte	W03
	.byte		v058
	.byte	W03
	.byte		v061
	.byte	W03
	.byte		v066
	.byte	W03
	.byte		v061
	.byte	W03
	.byte		v036
	.byte		N24	, Fn2, v060
	.byte	W03
	.byte	VOL	, v041
	.byte	W03
	.byte		v046
	.byte	W03
	.byte		v050
	.byte	W03
	.byte		v055
	.byte	W03
	.byte		v059
	.byte	W03
	.byte		v064
	.byte	W06
	.byte		N24	, An2, v052
	.byte	W24
	.byte			Dn3, v060
	.byte	W24
	.byte			Bn2, v052
	.byte	W24
	.byte		N18	, Cs3, v072
	.byte	W18
	.byte			Dn3
	.byte	W18
	.byte		N24	, Cs3
	.byte	W24
	.byte		N18	, An2
	.byte	W18
	.byte			En2
	.byte	W18
	.byte		N90	, Dn2
	.byte	W96
	.byte		N18	, An2
	.byte	W18
	.byte			En2, v080
	.byte	W18
	.byte		N24	, Cs2, v072
	.byte	W24
	.byte		N12	, An1
	.byte	W12
	.byte			En1, v080
	.byte	W12
	.byte			An1, v072
	.byte	W12
	.byte		N24	, Dn2, v060
	.byte	W24
	.byte			Fn2, v072
	.byte	W24
	.byte			An2, v080
	.byte	W24
	.byte			Dn3, v072
	.byte	W24
	.byte		N36	, En3, v060
	.byte	W36
	.byte		N60	, Cs3
	.byte	W60
	.byte		N24	, An2
	.byte	W24
	.byte			Dn3, v072
	.byte	W24
	.byte			Fn3, v080
	.byte	W24
	.byte			An3, v072
	.byte	W24
	.byte		TIE	, Cs4, v060
	.byte	W48
	.byte	VOL	, v064
	.byte	W03
	.byte		v061
	.byte	W03
	.byte		v058
	.byte	W03
	.byte		v055
	.byte	W03
	.byte		v052
	.byte	W03
	.byte		v048
	.byte	W03
	.byte		v046
	.byte	W03
	.byte		v042
	.byte	W03
	.byte		v039
	.byte	W03
	.byte		v036
	.byte	W03
	.byte		v033
	.byte	W03
	.byte		v030
	.byte	W03
	.byte		v026
	.byte	W03
	.byte		v023
	.byte	W03
	.byte		v021
	.byte	W03
	.byte		v017
	.byte	W03
	.byte		v014
	.byte	W03
	.byte		v012
	.byte	W03
	.byte		v011
	.byte	W03
	.byte		v011
	.byte	W03
	.byte		v009
	.byte	W03
	.byte		v008
	.byte	W03
	.byte		v007
	.byte	W03
	.byte		v005
	.byte	W03
	.byte		EOT	
	.byte	W20
	.byte	VOICE	, 62
	.byte	VOL	, v073
	.byte	MOD	, 1
	.byte	PAN	, c_v-20
	.byte	W04
	.byte		N06	, En2, v056
	.byte	W06
	.byte			Fs2, v060
	.byte	W06
	.byte			Gs2
	.byte	W06
	.byte			An2, v068
	.byte	W06
	.byte			An2, v072
	.byte	W06
	.byte			Bn2
	.byte	W06
	.byte			Dn3
	.byte	W06
	.byte			En3
	.byte	W06
	.byte	GOTO	
		.word	mus_candy_constellation_5_5
	.byte	W96
	.byte	FINE

	@********************** Track  6 **********************@

	.global mus_candy_constellation_6
mus_candy_constellation_6:	@ 0x08D46D19
	.byte	KEYSH	, 0
	.byte	VOICE	, 64
	.byte	VOL	, v073
	.byte	PAN	, c_v
	.byte	MOD	, 1
	.byte	BEND	, c_v
	.byte	W96
	.byte	W96
	.byte	W96
	.byte	VOL	, v073
	.byte	PAN	, c_v
mus_candy_constellation_6_1:
	.byte		N36	, An3, v052
	.byte	W36
	.byte		N54	, En3, v060
	.byte	W21
	.byte	VOL	, v071
	.byte	W01
	.byte		v070
	.byte	W02
	.byte		v069
	.byte	W01
	.byte		v068
	.byte	W02
	.byte		v066
	.byte	W01
	.byte		v064
	.byte	W02
	.byte		v063
	.byte	W01
	.byte		v061
	.byte	W02
	.byte		v060
	.byte	W01
	.byte		v058
	.byte	W02
	.byte		v058
	.byte	W01
	.byte		v056
	.byte	W02
	.byte		v054
	.byte	W01
	.byte		v053
	.byte	W02
	.byte		v051
	.byte	W01
	.byte		v050
	.byte	W02
	.byte		v046
	.byte	W01
	.byte		v043
	.byte	W02
	.byte		v039
	.byte	W01
	.byte		v035
	.byte	W02
	.byte		v032
	.byte	W01
	.byte		v029
	.byte	W02
	.byte	VOICE	, 5
	.byte	W03
	.byte	VOL	, v055
	.byte	W03
	.byte		N24	, Dn3, v032
	.byte	W24
	.byte			Fn3, v040
	.byte	W24
	.byte			An3, v052
	.byte	W24
	.byte			Dn4
	.byte	W24
	.byte		N30	, Cs4, v040
	.byte	W96
	.byte	W96
	.byte		N36	
	.byte	W96
	.byte		N24	, Fn3
	.byte	W24
	.byte			An3, v052
	.byte	W24
	.byte			Dn4, v060
	.byte	W24
	.byte			Bn3
	.byte	W24
	.byte		N30	, Cs4, v052
	.byte	W96
	.byte	W48
	.byte		N24	, Fn4, v060
	.byte	W24
	.byte		N21	, Dn4, v052
	.byte	W24
	.byte	W96
	.byte		N24	, An3, v040
	.byte	W24
	.byte			Dn3, v052
	.byte	W24
	.byte			Fn3, v060
	.byte	W24
	.byte			An3, v052
	.byte	W24
	.byte		N30	, Cs4, v040
	.byte	W96
	.byte		N24	, An2, v052
	.byte	W24
	.byte			Fn3, v060
	.byte	W24
	.byte			An3
	.byte	W24
	.byte			Dn4, v052
	.byte	W24
	.byte		N18	, Cs4
	.byte	W18
	.byte			An3, v060
	.byte	W18
	.byte		N24	, En3, v052
	.byte	W60
	.byte			Dn3, v060
	.byte	W24
	.byte			Fn3
	.byte	W24
	.byte			An3
	.byte	W24
	.byte			Dn4
	.byte	W24
	.byte			An3, v052
	.byte	W84
	.byte	VOICE	, 24
	.byte	W01
	.byte	VOL	, v055
	.byte	W11
	.byte		N03	, Gn2, v068
	.byte	W06
	.byte			Bn2
	.byte	W03
	.byte			Gn2, v040
	.byte	W03
	.byte			Dn3, v068
	.byte	W03
	.byte			Bn2, v040
	.byte	W03
	.byte			Fs3, v068
	.byte	W03
	.byte			Dn3, v040
	.byte	W03
	.byte			Gn3, v068
	.byte	W03
	.byte			Fs3, v040
	.byte	W03
	.byte			Bn3, v068
	.byte	W03
	.byte			Gn3, v040
	.byte	W03
	.byte			Dn4, v068
	.byte	W03
	.byte			Bn3, v040
	.byte	W03
	.byte			Fs4, v068
	.byte	W03
	.byte			Dn4, v040
	.byte	W03
	.byte			Gn4, v064
	.byte	W03
	.byte			Fs4, v040
	.byte	W03
	.byte			Bn4, v064
	.byte	W03
	.byte			Gn4, v040
	.byte	W03
	.byte			Dn5, v064
	.byte	W03
	.byte			Bn4, v040
	.byte	W03
	.byte			Fs5, v060
	.byte	W03
	.byte			Dn5, v036
	.byte	W03
	.byte			Gn5, v060
	.byte	W03
	.byte			Fs5, v036
	.byte	W03
	.byte			Bn5, v060
	.byte	W03
	.byte			Gn5, v036
	.byte	W03
	.byte			Dn6, v060
	.byte	W03
	.byte			Bn5, v036
	.byte	W03
	.byte			Fs6, v052
	.byte	W03
	.byte			Dn6, v036
	.byte	W03
	.byte	W96
	.byte	W96
	.byte	W96
	.byte	W96
	.byte	W96
	.byte	W96
	.byte	W96
	.byte	W96
	.byte	VOICE	, 24
	.byte	PAN	, c_v-10
	.byte	VOL	, v041
	.byte		N03	, An3, v052
	.byte	W06
	.byte			Cs4
	.byte	W03
	.byte			An3, v028
	.byte	W03
	.byte			En4, v052
	.byte	W03
	.byte			Cs4, v028
	.byte	W03
	.byte			Gs4, v052
	.byte	W03
	.byte			En4, v028
	.byte	W03
	.byte			En4, v052
	.byte	W03
	.byte			Gs4, v028
	.byte	W03
	.byte			Gs4, v052
	.byte	W03
	.byte			En4, v028
	.byte	W03
	.byte			An4, v052
	.byte	W03
	.byte			Gs4, v028
	.byte	W03
	.byte			Cs5, v052
	.byte	W03
	.byte			An4, v028
	.byte	W03
	.byte			An4, v052
	.byte	W03
	.byte			Cs5, v028
	.byte	W03
	.byte			Cs5, v052
	.byte	W03
	.byte			An4, v028
	.byte	W03
	.byte			En5, v052
	.byte	W03
	.byte			Cs5, v028
	.byte	W03
	.byte			Gs5, v052
	.byte	W03
	.byte			En5, v028
	.byte	W03
	.byte			Cs5, v052
	.byte	W03
	.byte			Gs5, v028
	.byte	W03
	.byte			En5, v052
	.byte	W03
	.byte			Cs5, v028
	.byte	W03
	.byte			An5, v052
	.byte	W03
	.byte			En5, v028
	.byte	W03
	.byte			Cs6, v052
	.byte	W03
	.byte			An5, v028
	.byte	W03
	.byte			Dn4, v048
	.byte	W06
	.byte			Fn4
	.byte	W03
	.byte			Dn4, v028
	.byte	W03
	.byte			An4, v048
	.byte	W03
	.byte			Fn4, v028
	.byte	W03
	.byte			Dn5, v048
	.byte	W03
	.byte			An4, v028
	.byte	W03
	.byte			Fn4, v048
	.byte	W03
	.byte			Dn5, v028
	.byte	W03
	.byte			An4, v048
	.byte	W03
	.byte			Fn4, v028
	.byte	W03
	.byte			Dn5, v048
	.byte	W03
	.byte			An4, v028
	.byte	W03
	.byte			Fn5, v048
	.byte	W03
	.byte			Dn5, v028
	.byte	W03
	.byte			An4, v048
	.byte	W03
	.byte			Fn5, v028
	.byte	W03
	.byte			Dn5, v048
	.byte	W03
	.byte			An4, v028
	.byte	W03
	.byte			Fn5, v048
	.byte	W03
	.byte			Dn5, v028
	.byte	W03
	.byte			An5, v048
	.byte	W03
	.byte			Fn5, v028
	.byte	W03
	.byte			Dn5, v048
	.byte	W03
	.byte			An5, v028
	.byte	W03
	.byte			Fn5, v048
	.byte	W03
	.byte			Dn5, v028
	.byte	W03
	.byte			An5, v048
	.byte	W03
	.byte			Fn5, v028
	.byte	W03
	.byte			Dn6, v048
	.byte	W03
	.byte			An5, v028
	.byte	W03
	.byte	VOL	, v032
	.byte		N03	, An4, v060
	.byte	W06
	.byte			Cs5
	.byte	W03
	.byte			An4, v032
	.byte	W03
	.byte			En5, v060
	.byte	W03
	.byte			Cs5, v032
	.byte	W03
	.byte			Gs5, v060
	.byte	W03
	.byte			En5, v032
	.byte	W03
	.byte			An4, v040
	.byte	W03
	.byte			Gs5, v032
	.byte	W03
	.byte			Cs5, v040
	.byte	W03
	.byte			An4, v020
	.byte	W03
	.byte			En5, v040
	.byte	W03
	.byte			Cs5, v020
	.byte	W03
	.byte			Gs5, v040
	.byte	W03
	.byte			En5, v020
	.byte	W03
	.byte			An4, v032
	.byte	W03
	.byte			Gs5, v020
	.byte	W03
	.byte			Cs5, v032
	.byte	W03
	.byte			An4, v016
	.byte	W03
	.byte			En5, v032
	.byte	W03
	.byte			Cs5, v016
	.byte	W03
	.byte			Gs5, v032
	.byte	W03
	.byte			En5, v016
	.byte	W03
	.byte			An4, v020
	.byte	W03
	.byte			Gs5, v012
	.byte	W03
	.byte			Cs5, v020
	.byte	W03
	.byte			An4, v012
	.byte	W03
	.byte			En5, v020
	.byte	W03
	.byte			Cs5, v012
	.byte	W03
	.byte			Gs5, v020
	.byte	W03
	.byte			En5, v012
	.byte	W03
	.byte	VOL	, v046
	.byte		N03	, Dn4, v048
	.byte	W06
	.byte			Fn4
	.byte	W03
	.byte			Dn4, v028
	.byte	W03
	.byte			An4, v048
	.byte	W03
	.byte			Fn4, v028
	.byte	W03
	.byte			Dn5, v048
	.byte	W03
	.byte			An4, v028
	.byte	W03
	.byte			Fn4, v048
	.byte	W03
	.byte			Dn5, v028
	.byte	W03
	.byte			An4, v048
	.byte	W03
	.byte			Fn4, v028
	.byte	W03
	.byte			Dn5, v048
	.byte	W03
	.byte			An4, v028
	.byte	W03
	.byte			Fn5, v048
	.byte	W03
	.byte			Dn5, v028
	.byte	W03
	.byte			An4, v048
	.byte	W03
	.byte			Fn5, v028
	.byte	W03
	.byte			Dn5, v048
	.byte	W03
	.byte			An4, v028
	.byte	W03
	.byte			Fn5, v048
	.byte	W03
	.byte			Dn5, v028
	.byte	W03
	.byte			An5, v048
	.byte	W03
	.byte			Fn5, v028
	.byte	W03
	.byte			Dn5, v048
	.byte	W03
	.byte			An5, v028
	.byte	W03
	.byte			Fn5, v048
	.byte	W03
	.byte			Dn5, v028
	.byte	W03
	.byte			An5, v048
	.byte	W03
	.byte			Fn5, v028
	.byte	W03
	.byte			Dn6, v048
	.byte	W03
	.byte			An5, v028
	.byte	W03
	.byte	VOICE	, 5
	.byte		N18	, En4, v060
	.byte	W18
	.byte			Cs4
	.byte	W18
	.byte		N24	, An3
	.byte	W24
	.byte		N12	, En3
	.byte	W12
	.byte			Cs3
	.byte	W12
	.byte			En3
	.byte	W12
	.byte		N24	, Fn3
	.byte	W24
	.byte			An3
	.byte	W24
	.byte			Dn4
	.byte	W24
	.byte			An3
	.byte	W24
	.byte		N36	, Cs4
	.byte	W36
	.byte			En4
	.byte	W54
	.byte	VOICE	, 24
	.byte	W06
	.byte		N03	, An3, v056
	.byte	W06
	.byte			Dn4
	.byte	W03
	.byte			An3, v028
	.byte	W03
	.byte			Fn4, v056
	.byte	W03
	.byte			Dn4, v028
	.byte	W03
	.byte			An4, v056
	.byte	W03
	.byte			Fn4, v028
	.byte	W03
	.byte			Dn4, v056
	.byte	W03
	.byte			An4, v028
	.byte	W03
	.byte			Fn4, v056
	.byte	W03
	.byte			Dn4, v028
	.byte	W03
	.byte			An4, v056
	.byte	W03
	.byte			Fn4, v028
	.byte	W03
	.byte			Dn5, v056
	.byte	W03
	.byte			An4, v028
	.byte	W03
	.byte			Fn4, v056
	.byte	W03
	.byte			Dn5, v028
	.byte	W03
	.byte			An4, v056
	.byte	W03
	.byte			Fn4, v028
	.byte	W03
	.byte			Dn5, v056
	.byte	W03
	.byte			An4, v028
	.byte	W03
	.byte			Fn5, v056
	.byte	W03
	.byte			Dn5, v028
	.byte	W03
	.byte			An4, v056
	.byte	W03
	.byte			Fn5, v028
	.byte	W03
	.byte			Dn5, v056
	.byte	W03
	.byte			An4, v028
	.byte	W03
	.byte			Fn5, v056
	.byte	W03
	.byte			Dn5, v028
	.byte	W03
	.byte			An5, v056
	.byte	W03
	.byte			Fn5, v028
	.byte	W03
	.byte			Dn5, v052
	.byte	W06
	.byte			Cs5
	.byte	W03
	.byte			Dn5, v028
	.byte	W03
	.byte			Bn4, v052
	.byte	W03
	.byte			Cs5, v028
	.byte	W03
	.byte			An4, v052
	.byte	W03
	.byte			Bn4, v028
	.byte	W03
	.byte			Dn5, v040
	.byte	W03
	.byte			An4, v016
	.byte	W03
	.byte			Cs5, v040
	.byte	W03
	.byte			Dn5, v016
	.byte	W03
	.byte			Bn4, v040
	.byte	W03
	.byte			Cs5, v016
	.byte	W03
	.byte			An4, v040
	.byte	W03
	.byte			Bn4, v016
	.byte	W03
	.byte			Dn5, v036
	.byte	W03
	.byte			An4, v012
	.byte	W03
	.byte			Cs5, v036
	.byte	W03
	.byte			Dn5, v012
	.byte	W03
	.byte			Bn4, v036
	.byte	W03
	.byte			Cs5, v012
	.byte	W03
	.byte			An4, v036
	.byte	W03
	.byte			Bn4, v012
	.byte	W03
	.byte			Dn5, v052
	.byte	W03
	.byte			An4, v008
	.byte	W03
	.byte			Cs5, v032
	.byte	W03
	.byte			Dn5, v008
	.byte	W03
	.byte			Bn4, v032
	.byte	W03
	.byte			Cs5, v008
	.byte	W03
	.byte			An4, v032
	.byte	W03
	.byte			Bn4, v008
	.byte	W03
	.byte	VOICE	, 4
	.byte		N12	, Dn3, v100
	.byte	W16
	.byte			Dn3, v080
	.byte	W16
	.byte			Dn3, v060
	.byte	W16
	.byte			Dn3, v040
	.byte	W16
	.byte			Dn3, v020
	.byte	W20
	.byte	MOD	, 1
	.byte	PAN	, c_v
	.byte	BEND	, c_v
	.byte	W06
	.byte	VOICE	, 6
	.byte	W03
	.byte	VOL	, v082
	.byte	W03
	.byte	GOTO	
		.word	mus_candy_constellation_6_1
	.byte	W96
	.byte	FINE

	.align 2
	.global mus_candy_constellation
mus_candy_constellation:	@ 0x08D470B0
	.byte	6		@ trackCount
	.byte	0		@ blockCount
	.byte	128		@ priority
	.byte	128		@ reverb

	.word	voicegroup000		@ voicegroup/tone

	.word	mus_candy_constellation_1		@ track
	.word	mus_candy_constellation_2		@ track
	.word	mus_candy_constellation_3		@ track
	.word	mus_candy_constellation_4		@ track
	.word	mus_candy_constellation_5		@ track
	.word	mus_candy_constellation_6		@ track
